<?xml version="1.0" encoding="utf-8"?>
<!-- Generator: Adobe Illustrator 15.0.2, SVG Export Plug-In . SVG Version: 6.00 Build 0)  -->
<!DOCTYPE svg PUBLIC "-//W3C//DTD SVG 1.1//EN" "http://www.w3.org/Graphics/SVG/1.1/DTD/svg11.dtd">
<svg version="1.1" id="Stuff" xmlns="http://www.w3.org/2000/svg" xmlns:xlink="http://www.w3.org/1999/xlink" x="0px" y="0px"
	 width="67.107px" height="88.02px" viewBox="171.283 83.075 67.107 88.02" enable-background="new 171.283 83.075 67.107 88.02"
	 xml:space="preserve">
<g>
	<g>
		<polygon fill="#FFFFFF" stroke="#000000" stroke-linecap="round" stroke-linejoin="round" points="235.808,168.992 
			233.465,170.345 225.594,165.801 217.937,170.22 185.466,151.474 185.466,142.634 185.206,142.483 185.206,132.021 
			187.55,130.668 235.808,158.53 		"/>
		<g>
			
				<ellipse transform="matrix(-0.4997 -0.8662 0.8662 -0.4997 202.6309 442.0012)" fill="none" stroke="#000000" stroke-width="0.25" stroke-linecap="round" stroke-linejoin="round" cx="228.96" cy="162.483" rx="1.723" ry="1.024"/>
			<path fill="none" stroke="#000000" stroke-width="0.5" stroke-linecap="round" stroke-linejoin="round" d="M229.831,163.97
				c0.488-0.281,0.5-1.18,0.025-2.003c-0.477-0.823-1.258-1.264-1.748-0.98"/>
		</g>
		<path fill="none" stroke="#000000" stroke-width="0.25" stroke-linecap="round" stroke-linejoin="round" d="M189.747,138.543
			c-0.457-0.518-1.033-0.749-1.42-0.522c-0.389,0.224-0.475,0.837-0.256,1.492"/>
		<path fill="none" stroke="#000000" stroke-width="0.5" stroke-linecap="round" stroke-linejoin="round" d="M189.747,138.543
			c-0.457-0.518-1.033-0.749-1.42-0.522"/>
		<polygon fill="none" stroke="#000000" stroke-width="0.25" stroke-linecap="round" stroke-linejoin="round" points="
			233.465,159.885 235.808,158.53 187.55,130.668 185.206,132.021 193.122,136.592 185.466,141.013 217.935,159.76 225.594,155.339 
					"/>
		
			<line fill="none" stroke="#000000" stroke-width="0.5" stroke-linecap="round" stroke-linejoin="round" x1="193.122" y1="136.592" x2="185.466" y2="141.013"/>
		
			<line fill="none" stroke="#000000" stroke-width="0.25" stroke-linecap="round" stroke-linejoin="round" x1="217.935" y1="159.76" x2="217.937" y2="170.22"/>
		
			<line fill="none" stroke="#000000" stroke-width="0.25" stroke-linecap="round" stroke-linejoin="round" x1="233.465" y1="159.885" x2="233.465" y2="170.345"/>
		
			<line fill="none" stroke="#000000" stroke-width="0.25" stroke-linecap="round" stroke-linejoin="round" x1="225.594" y1="155.339" x2="225.594" y2="165.801"/>
		
			<line fill="none" stroke="#000000" stroke-width="0.5" stroke-linecap="round" stroke-linejoin="round" x1="185.466" y1="141.013" x2="185.466" y2="151.474"/>
		<polygon fill="none" stroke="#000000" stroke-width="1.5" stroke-linecap="round" stroke-linejoin="round" points="
			235.808,168.992 233.465,170.345 225.594,165.801 217.937,170.22 185.466,151.474 185.466,142.634 185.206,142.483 
			185.206,132.021 187.55,130.668 235.808,158.53 		"/>
	</g>
	<g>
		<path fill="#FFFFFF" stroke="#000000" stroke-width="0.25" stroke-linecap="round" stroke-linejoin="round" d="M183.401,119.179
			v3.825l49.683,28.685l3.916-2.143v-14.23l0.641-0.371v-5.271l-0.641-0.37V114.73c0,0,0.018-0.605-0.563-0.941l-49.23-28.419
			l-3.805,2.195v1.239l-6.004,3.467v24.436l2.77,1.601l3.654-2.111l0.625,0.361l1.176-0.677c0.099-0.053,0.195-0.094,0.293-0.121
			l0.006,0.003c0.115,0.461-0.002,1.104-0.354,1.711c-0.279,0.485-0.654,0.854-1.027,1.049L183.401,119.179z"/>
		<g>
			<path fill="none" stroke="#000000" stroke-width="0.25" stroke-linecap="round" stroke-linejoin="round" d="M223.456,136.907
				c-0.002-0.684,0.228-1.238,0.685-1.502c0.623-0.361,1.51-0.074,2.285,0.646c0.328,0.308,0.635,0.691,0.893,1.138
				c0.435,0.75,0.646,1.535,0.637,2.194l0.002,1.921c-0.008,0.659-0.235,1.196-0.682,1.455c-0.891,0.514-2.313-0.285-3.18-1.785
				c-0.422-0.732-0.635-1.496-0.637-2.146L223.456,136.907z"/>
			<path fill="none" stroke="#000000" stroke-width="0.5" stroke-linecap="round" stroke-linejoin="round" d="M224.14,135.405
				c0.623-0.361,1.51-0.074,2.285,0.646c0.328,0.308,0.635,0.691,0.893,1.138c0.435,0.75,0.646,1.535,0.637,2.194l0.002,1.921
				c-0.008,0.659-0.235,1.196-0.682,1.455"/>
			<path fill="none" stroke="#000000" stroke-width="0.25" stroke-linecap="round" stroke-linejoin="round" d="M227.954,141.011
				c-0.5-0.037-1.098-0.484-1.498-1.179c-0.256-0.444-0.385-0.908-0.387-1.305v-1.838c-0.002-0.254,0.051-0.48,0.154-0.654"/>
			<path fill="none" stroke="#000000" stroke-width="0.25" stroke-linecap="round" stroke-linejoin="round" d="M227.956,141.124
				c-0.051,0.06-0.108,0.107-0.178,0.148c-0.543,0.313-1.408-0.174-1.934-1.086c-0.258-0.445-0.386-0.91-0.388-1.306v-1.838
				c-0.004-0.414,0.136-0.754,0.412-0.914c0.107-0.061,0.228-0.092,0.355-0.094c0.063-0.002,0.133,0.004,0.201,0.021"/>
			<path fill="#FFFFFF" stroke="#000000" stroke-width="0.5" stroke-linecap="round" stroke-linejoin="round" d="M227.954,141.011
				c-0.5-0.037-1.098-0.484-1.498-1.179c-0.256-0.444-0.385-0.908-0.387-1.305v-1.838c-0.002-0.254,0.051-0.48,0.154-0.654
				l-0.002-0.002c0.065-0.002,0.133,0.004,0.203,0.019c0.328,0.307,0.635,0.69,0.893,1.137c0.435,0.75,0.646,1.535,0.637,2.195
				V141.011L227.954,141.011z"/>
		</g>
		<path fill="none" stroke="#000000" stroke-linecap="round" stroke-linejoin="round" d="M219.513,130.96
			c0.639-0.762,0.84-1.771,0.338-2.063c-0.621-0.316-1.332,0.463-1.611,1.502c-0.276,1.037-0.096,1.627,0.492,2.106
			c0.498,0.418,1.473,0.078,2.176-0.762c0.703-0.838,0.929-1.955,0.373-2.274c-0.684-0.349-1.469,0.512-1.774,1.655
			c-0.31,1.146-0.105,1.797,0.543,2.326c0.547,0.459,1.616,0.084,2.393-0.838c0.773-0.922,1.021-2.15,0.41-2.502
			c-0.752-0.383-1.617,0.563-1.955,1.822c-0.338,1.258-0.115,1.975,0.598,2.557c0.601,0.504,1.775,0.094,2.625-0.918
			c0.849-1.012,1.117-2.359,0.449-2.746c-0.824-0.418-1.772,0.619-2.143,2c-0.371,1.379-0.129,2.166,0.655,2.805
			c0.648,0.546,1.921,0.101,2.841-0.993c0.918-1.097,1.135-2.427,0.483-2.972"/>
		<polygon fill="#CCCCCC" stroke="#000000" stroke-width="0.25" stroke-linecap="round" stroke-linejoin="round" points="
			228.317,124.094 228.317,139.276 222.409,142.688 219.653,141.103 219.653,138.569 220.711,137.96 220.711,132.054 
			220.304,132.288 219.653,131.913 219.653,125.952 220.711,125.344 220.711,119.442 220.304,119.677 219.653,119.302 
			219.653,116.663 225.659,113.196 230.717,116.087 230.735,118.521 224.702,122.003 224.702,122.716 226.747,123.896 
			228.993,122.599 229.948,123.149 		"/>
		<g>
			<path fill="#CCCCCC" stroke="#000000" stroke-width="0.25" stroke-linecap="round" stroke-linejoin="round" d="M182.538,111.397
				c-0.104-0.015-0.203-0.045-0.293-0.097c-0.59-0.342-0.604-1.428-0.029-2.424c0.576-0.997,1.521-1.527,2.115-1.187
				c0.088,0.051,0.164,0.119,0.228,0.199l0.309,0.408c0.281,0.439,0.209,1.236-0.221,1.979c-0.42,0.729-1.056,1.184-1.57,1.182
				L182.538,111.397z"/>
			<path fill="none" stroke="#000000" stroke-width="0.5" stroke-linecap="round" stroke-linejoin="round" d="M184.558,107.891
				l0.309,0.408c0.281,0.439,0.209,1.236-0.221,1.979c-0.42,0.729-1.056,1.184-1.57,1.182l-0.537-0.063"/>
			<path fill="none" stroke="#000000" stroke-width="0.25" stroke-linecap="round" stroke-linejoin="round" d="M182.683,109.146
				c0.526-0.912,1.395-1.397,1.936-1.086c0.103,0.059,0.185,0.141,0.248,0.239c0.281,0.439,0.209,1.236-0.221,1.979
				c-0.42,0.729-1.056,1.184-1.57,1.182c-0.131,0-0.256-0.03-0.365-0.094C182.169,111.054,182.155,110.06,182.683,109.146z"/>
		</g>
		<g>
			<path fill="#CCCCCC" stroke="#000000" stroke-width="0.25" stroke-linecap="round" stroke-linejoin="round" d="M182.526,98.188
				c-0.104-0.015-0.203-0.045-0.293-0.098c-0.59-0.341-0.604-1.427-0.029-2.423c0.576-0.998,1.523-1.528,2.115-1.188
				c0.088,0.051,0.164,0.119,0.227,0.201l0.31,0.407c0.281,0.439,0.209,1.236-0.221,1.979c-0.421,0.728-1.056,1.184-1.57,1.182
				L182.526,98.188z"/>
			<path fill="none" stroke="#000000" stroke-width="0.5" stroke-linecap="round" stroke-linejoin="round" d="M184.546,94.682
				l0.31,0.407c0.281,0.439,0.209,1.236-0.221,1.979c-0.421,0.728-1.056,1.184-1.57,1.182l-0.537-0.063"/>
			<path fill="none" stroke="#000000" stroke-width="0.25" stroke-linecap="round" stroke-linejoin="round" d="M182.671,95.938
				c0.527-0.914,1.396-1.4,1.937-1.086c0.102,0.057,0.184,0.139,0.248,0.237c0.281,0.439,0.209,1.236-0.221,1.979
				c-0.421,0.728-1.056,1.184-1.57,1.182c-0.131,0-0.256-0.03-0.365-0.095C182.157,97.844,182.144,96.85,182.671,95.938z"/>
		</g>
		<path fill="none" stroke="#000000" stroke-linecap="round" stroke-linejoin="round" d="M188.347,99.498
			c0.34-0.932,1.112-1.612,1.616-1.322c0.582,0.379,0.265,1.386-0.495,2.146c-0.761,0.758-1.361,0.896-2.072,0.627
			c-0.609-0.223-0.803-1.234-0.428-2.264c0.375-1.028,1.229-1.779,1.784-1.46c0.644,0.417,0.291,1.527-0.547,2.365
			c-0.838,0.839-1.504,0.99-2.287,0.691c-0.67-0.244-0.881-1.358-0.469-2.49s1.353-1.957,1.961-1.604
			c0.707,0.458,0.32,1.681-0.6,2.603c-0.922,0.921-1.654,1.089-2.517,0.761c-0.733-0.268-0.967-1.489-0.516-2.73
			c0.453-1.241,1.484-2.147,2.152-1.76c0.774,0.502,0.352,1.843-0.66,2.853c-1.01,1.012-1.813,1.194-2.756,0.836
			c-0.798-0.29-1.048-1.614-0.56-2.957c0.488-1.344,1.531-2.196,2.33-1.906"/>
		<path fill="none" stroke="#000000" stroke-width="0.25" stroke-linecap="round" stroke-linejoin="round" d="M183.401,87.564
			l49.119,28.354c0.582,0.336,0.563,0.941,0.563,0.941v5.727l-3.687,2.129v19.479l3.687-2.129v9.623"/>
		
			<line fill="none" stroke="#000000" stroke-width="0.5" stroke-linecap="round" stroke-linejoin="round" x1="229.397" y1="144.194" x2="233.084" y2="142.065"/>
		<polygon fill="none" stroke="#000000" stroke-width="0.25" stroke-linecap="round" stroke-linejoin="round" points="
			222.403,118.251 219.653,116.663 219.653,119.302 220.304,119.677 220.304,117.938 221.763,118.782 221.763,122.229 
			222.403,122.618 		"/>
		<polyline fill="none" stroke="#000000" stroke-width="0.5" stroke-linecap="round" stroke-linejoin="round" points="
			220.304,117.938 221.763,118.782 221.763,122.229 222.403,122.618 		"/>
		<polyline fill="none" stroke="#000000" stroke-width="0.5" stroke-linecap="round" stroke-linejoin="round" points="
			219.653,116.663 219.653,119.302 220.304,119.677 		"/>
		<polygon fill="none" stroke="#000000" stroke-width="0.25" stroke-linecap="round" stroke-linejoin="round" points="
			219.653,125.952 220.304,126.325 220.304,128.356 221.763,129.2 221.763,124.87 222.403,125.239 222.403,135.815 221.763,135.446 
			221.763,131.103 220.304,130.259 220.304,132.288 219.653,131.913 		"/>
		<polyline fill="none" stroke="#000000" stroke-width="0.5" stroke-linecap="round" stroke-linejoin="round" points="
			220.304,132.288 219.653,131.913 219.653,125.952 		"/>
		<polyline fill="none" stroke="#000000" stroke-width="0.5" stroke-linecap="round" stroke-linejoin="round" points="
			222.403,135.815 221.763,135.446 221.763,131.103 220.304,130.259 		"/>
		
			<line fill="none" stroke="#000000" stroke-width="0.5" stroke-linecap="round" stroke-linejoin="round" x1="221.763" y1="129.2" x2="221.763" y2="124.87"/>
		<polygon fill="none" stroke="#000000" stroke-width="0.25" stroke-linecap="round" stroke-linejoin="round" points="
			219.653,138.569 220.302,138.942 220.304,140.702 221.763,141.544 221.763,138.101 222.403,138.47 222.409,142.688 
			219.653,141.103 		"/>
		<polyline fill="none" stroke="#000000" stroke-width="0.5" stroke-linecap="round" stroke-linejoin="round" points="
			222.409,142.688 219.653,141.103 219.653,138.569 		"/>
		
			<line fill="none" stroke="#000000" stroke-width="0.5" stroke-linecap="round" stroke-linejoin="round" x1="221.763" y1="141.544" x2="221.763" y2="138.101"/>
		<polyline fill="none" stroke="#000000" stroke-width="0.25" stroke-linecap="round" stroke-linejoin="round" points="
			177.397,92.271 180.167,93.868 180.167,96.494 179.478,96.109 179.478,94.372 178.106,93.581 178.106,116.339 179.478,117.13 
			179.478,115.372 180.167,115.771 180.167,118.306 		"/>
		
			<line fill="none" stroke="#000000" stroke-width="0.5" stroke-linecap="round" stroke-linejoin="round" x1="179.478" y1="117.13" x2="179.478" y2="115.372"/>
		<polyline fill="none" stroke="#000000" stroke-width="0.5" stroke-linecap="round" stroke-linejoin="round" points="
			180.167,96.494 179.478,96.109 179.478,94.372 178.106,93.581 		"/>
		<polyline fill="none" stroke="#000000" stroke-width="0.25" stroke-linecap="round" stroke-linejoin="round" points="
			233.084,122.587 232.103,122.021 232.103,119.31 230.735,118.521 230.735,116.128 225.659,113.196 		"/>
		
			<line fill="none" stroke="#000000" stroke-width="0.25" stroke-linecap="round" stroke-linejoin="round" x1="228.409" y1="114.784" x2="222.403" y2="118.251"/>
		<polyline fill="none" stroke="#000000" stroke-width="0.25" stroke-linecap="round" stroke-linejoin="round" points="
			230.735,118.521 224.702,122.003 224.702,122.716 226.747,123.896 228.993,122.599 229.948,123.149 		"/>
		<polyline fill="none" stroke="#000000" stroke-width="0.5" stroke-linecap="round" stroke-linejoin="round" points="
			224.702,122.716 226.747,123.896 228.993,122.599 229.948,123.149 		"/>
		<polyline fill="none" stroke="#000000" stroke-width="0.5" stroke-linecap="round" stroke-linejoin="round" points="
			230.563,122.794 228.317,124.094 228.317,143.571 229.397,144.194 		"/>
		<polyline fill="none" stroke="#000000" stroke-width="0.25" stroke-linecap="round" stroke-linejoin="round" points="
			224.702,122.003 226.747,123.185 228.993,121.888 230.563,122.794 		"/>
		<polyline fill="none" stroke="#000000" stroke-width="0.5" stroke-linecap="round" stroke-linejoin="round" points="
			221.763,124.87 223.356,123.95 223.356,122.149 		"/>
		<polyline fill="none" stroke="#000000" stroke-width="0.25" stroke-linecap="round" stroke-linejoin="round" points="
			222.403,122.618 223.997,121.679 223.997,124.319 222.403,125.239 		"/>
		
			<line fill="none" stroke="#000000" stroke-width="0.5" stroke-linecap="round" stroke-linejoin="round" x1="222.403" y1="122.618" x2="223.997" y2="121.679"/>
		
			<line fill="none" stroke="#000000" stroke-width="0.25" stroke-linecap="round" stroke-linejoin="round" x1="228.317" y1="124.094" x2="229.397" y2="124.716"/>
		
			<line fill="none" stroke="#000000" stroke-width="0.25" stroke-linecap="round" stroke-linejoin="round" x1="228.993" y1="121.888" x2="228.993" y2="122.599"/>
		
			<line fill="none" stroke="#000000" stroke-width="0.25" stroke-linecap="round" stroke-linejoin="round" x1="226.747" y1="123.185" x2="226.747" y2="123.896"/>
		<polyline fill="none" stroke="#000000" stroke-width="0.25" stroke-linecap="round" stroke-linejoin="round" points="
			228.317,133.235 224.702,135.321 224.702,136.034 226.747,137.214 228.317,136.308 		"/>
		<polyline fill="none" stroke="#000000" stroke-width="0.5" stroke-linecap="round" stroke-linejoin="round" points="
			224.702,136.034 226.747,137.214 228.317,136.308 		"/>
		<polyline fill="none" stroke="#000000" stroke-width="0.25" stroke-linecap="round" stroke-linejoin="round" points="
			224.702,135.321 226.747,136.503 228.317,135.597 		"/>
		
			<line fill="none" stroke="#000000" stroke-width="0.25" stroke-linecap="round" stroke-linejoin="round" x1="226.747" y1="136.503" x2="226.747" y2="137.214"/>
		
			<line fill="none" stroke="#000000" stroke-width="0.5" stroke-linecap="round" stroke-linejoin="round" x1="225.659" y1="113.196" x2="219.653" y2="116.663"/>
		<polyline fill="none" stroke="#000000" stroke-width="0.25" stroke-linecap="round" stroke-linejoin="round" points="
			222.403,135.815 223.997,134.896 223.997,137.55 222.403,138.47 		"/>
		
			<line fill="none" stroke="#000000" stroke-width="0.5" stroke-linecap="round" stroke-linejoin="round" x1="222.403" y1="135.815" x2="223.997" y2="134.896"/>
		<polyline fill="none" stroke="#000000" stroke-width="0.5" stroke-linecap="round" stroke-linejoin="round" points="
			223.356,135.265 223.356,137.181 221.763,138.101 		"/>
		<polygon fill="none" stroke="#000000" stroke-width="0.25" stroke-linecap="round" stroke-linejoin="round" points="
			220.711,131.04 221.065,131.245 221.065,140.478 220.711,140.272 		"/>
		<polyline fill="none" stroke="#000000" stroke-width="0.5" stroke-linecap="round" stroke-linejoin="round" points="
			221.065,140.478 220.711,140.272 220.711,131.04 		"/>
		
			<line fill="none" stroke="#000000" stroke-width="0.5" stroke-linecap="round" stroke-linejoin="round" x1="221.065" y1="140.478" x2="221.763" y2="140.073"/>
		
			<line fill="none" stroke="#000000" stroke-width="0.5" stroke-linecap="round" stroke-linejoin="round" x1="220.711" y1="131.04" x2="221.183" y2="130.767"/>
		
			<line fill="none" stroke="#000000" stroke-width="0.25" stroke-linecap="round" stroke-linejoin="round" x1="221.065" y1="131.245" x2="221.538" y2="130.972"/>
		<g>
			<polygon fill="none" stroke="#000000" stroke-width="0.25" stroke-linecap="round" stroke-linejoin="round" points="
				220.711,118.72 221.065,118.925 221.065,128.157 220.711,127.952 			"/>
			<polyline fill="none" stroke="#000000" stroke-width="0.5" stroke-linecap="round" stroke-linejoin="round" points="
				221.065,128.157 220.711,127.952 220.711,118.72 			"/>
			
				<line fill="none" stroke="#000000" stroke-width="0.5" stroke-linecap="round" stroke-linejoin="round" x1="221.065" y1="128.157" x2="221.763" y2="127.753"/>
			
				<line fill="none" stroke="#000000" stroke-width="0.5" stroke-linecap="round" stroke-linejoin="round" x1="220.711" y1="118.72" x2="221.183" y2="118.446"/>
			
				<line fill="none" stroke="#000000" stroke-width="0.25" stroke-linecap="round" stroke-linejoin="round" x1="221.065" y1="118.925" x2="221.538" y2="118.651"/>
		</g>
		<g>
			<polygon fill="none" stroke="#000000" stroke-width="0.25" stroke-linecap="round" stroke-linejoin="round" points="
				178.778,94.301 179.134,94.506 179.134,115.927 178.778,115.722 			"/>
			<polyline fill="none" stroke="#000000" stroke-width="0.5" stroke-linecap="round" stroke-linejoin="round" points="
				179.134,115.927 178.778,115.722 178.778,94.301 			"/>
			
				<line fill="none" stroke="#000000" stroke-width="0.5" stroke-linecap="round" stroke-linejoin="round" x1="179.134" y1="115.927" x2="179.478" y2="115.728"/>
			
				<line fill="none" stroke="#000000" stroke-width="0.5" stroke-linecap="round" stroke-linejoin="round" x1="178.778" y1="94.301" x2="179.067" y2="94.135"/>
			
				<line fill="none" stroke="#000000" stroke-width="0.25" stroke-linecap="round" stroke-linejoin="round" x1="179.134" y1="94.506" x2="179.425" y2="94.342"/>
		</g>
		
			<line fill="none" stroke="#000000" stroke-width="0.5" stroke-linecap="round" stroke-linejoin="round" x1="219.653" y1="125.952" x2="220.711" y2="125.344"/>
		
			<line fill="none" stroke="#000000" stroke-width="0.5" stroke-linecap="round" stroke-linejoin="round" x1="220.304" y1="132.288" x2="220.711" y2="132.054"/>
		
			<line fill="none" stroke="#000000" stroke-width="0.25" stroke-linecap="round" stroke-linejoin="round" x1="220.304" y1="128.356" x2="220.858" y2="128.036"/>
		
			<line fill="none" stroke="#000000" stroke-width="0.25" stroke-linecap="round" stroke-linejoin="round" x1="223.356" y1="123.95" x2="223.997" y2="124.319"/>
		
			<line fill="none" stroke="#000000" stroke-width="0.5" stroke-linecap="round" stroke-linejoin="round" x1="219.653" y1="138.569" x2="220.711" y2="137.96"/>
		
			<line fill="none" stroke="#000000" stroke-width="0.25" stroke-linecap="round" stroke-linejoin="round" x1="220.302" y1="138.942" x2="220.711" y2="138.708"/>
		
			<line fill="none" stroke="#000000" stroke-width="0.25" stroke-linecap="round" stroke-linejoin="round" x1="220.304" y1="140.702" x2="220.879" y2="140.37"/>
		
			<line fill="none" stroke="#000000" stroke-width="0.25" stroke-linecap="round" stroke-linejoin="round" x1="223.356" y1="137.181" x2="223.997" y2="137.55"/>
		<polyline fill="none" stroke="#000000" stroke-width="0.25" stroke-linecap="round" stroke-linejoin="round" points="
			232.103,142.633 232.103,149.95 184.446,122.437 184.446,119.78 183.401,119.179 		"/>
		
			<line fill="none" stroke="#000000" stroke-width="0.5" stroke-linecap="round" stroke-linejoin="round" x1="232.103" y1="142.633" x2="232.103" y2="149.95"/>
		
			<line fill="none" stroke="#000000" stroke-width="0.5" stroke-linecap="round" stroke-linejoin="round" x1="228.317" y1="139.276" x2="222.409" y2="142.688"/>
		
			<line fill="none" stroke="#000000" stroke-width="0.25" stroke-linecap="round" stroke-linejoin="round" x1="232.103" y1="146.993" x2="223.526" y2="142.042"/>
		<polyline fill="none" stroke="#000000" stroke-width="0.25" stroke-linecap="round" stroke-linejoin="round" points="
			236.999,129.304 235.795,129.999 235.795,135.271 		"/>
		<polyline fill="none" stroke="#000000" stroke-width="0.25" stroke-linecap="round" stroke-linejoin="round" points="
			235.795,129.999 236.437,130.368 237.64,129.675 		"/>
		
			<line fill="none" stroke="#000000" stroke-width="0.25" stroke-linecap="round" stroke-linejoin="round" x1="236.437" y1="130.368" x2="236.437" y2="135.64"/>
		<polyline fill="none" stroke="#000000" stroke-width="0.25" stroke-linecap="round" stroke-linejoin="round" points="
			235.795,135.271 236.437,135.64 237.64,134.944 		"/>
		
			<line fill="none" stroke="#000000" stroke-width="0.25" stroke-linecap="round" stroke-linejoin="round" x1="180.167" y1="93.868" x2="186.171" y2="90.401"/>
		
			<line fill="none" stroke="#000000" stroke-width="0.5" stroke-linecap="round" stroke-linejoin="round" x1="220.304" y1="119.677" x2="220.711" y2="119.442"/>
		<path fill="none" stroke="#000000" stroke-width="0.25" stroke-linecap="round" stroke-linejoin="round" d="M185.622,115.88
			c0.099-0.053,0.195-0.094,0.293-0.121c0.244-0.069,0.478-0.059,0.67,0.054c0.554,0.317,0.564,1.332,0.027,2.264
			c-0.281,0.486-0.654,0.854-1.027,1.049l-1.139,0.656"/>
		<path fill="none" stroke="#000000" stroke-width="0.5" stroke-linecap="round" stroke-linejoin="round" d="M185.915,115.759
			c0.244-0.069,0.478-0.059,0.67,0.054"/>
		
			<line fill="none" stroke="#000000" stroke-width="0.25" stroke-linecap="round" stroke-linejoin="round" x1="219.653" y1="139.806" x2="187.007" y2="120.958"/>
		<polyline fill="none" stroke="#000000" stroke-width="0.25" stroke-linecap="round" stroke-linejoin="round" points="
			184.446,122.437 187.007,120.958 187.007,114.354 		"/>
		<g>
			<polygon fill="#CCCCCC" stroke="#000000" stroke-width="0.5" stroke-linecap="round" stroke-linejoin="round" points="
				204.323,128.122 204.323,126.419 203.796,126.114 203.796,124.306 199.474,121.81 194.163,124.874 194.163,126.075 
				193.636,126.38 193.636,128.083 199.013,131.187 			"/>
			<polygon fill="none" stroke="#000000" stroke-width="0.25" stroke-linecap="round" stroke-linejoin="round" points="
				193.636,128.083 193.636,126.38 194.163,126.685 194.163,124.874 198.485,127.37 198.485,129.181 199.013,129.485 
				199.013,131.187 			"/>
			
				<line fill="none" stroke="#000000" stroke-width="0.5" stroke-linecap="round" stroke-linejoin="round" x1="194.163" y1="126.685" x2="194.163" y2="124.874"/>
			
				<line fill="none" stroke="#000000" stroke-width="0.25" stroke-linecap="round" stroke-linejoin="round" x1="198.485" y1="127.37" x2="203.796" y2="124.306"/>
			
				<line fill="none" stroke="#000000" stroke-width="0.25" stroke-linecap="round" stroke-linejoin="round" x1="198.485" y1="129.181" x2="203.796" y2="126.114"/>
			
				<line fill="none" stroke="#000000" stroke-width="0.25" stroke-linecap="round" stroke-linejoin="round" x1="199.013" y1="129.485" x2="204.323" y2="126.419"/>
		</g>
		
			<line fill="none" stroke="#000000" stroke-width="0.25" stroke-linecap="round" stroke-linejoin="round" x1="178.106" y1="116.339" x2="178.983" y2="115.831"/>
		<polyline fill="none" stroke="#000000" stroke-width="0.25" stroke-linecap="round" stroke-linejoin="round" points="
			187.905,110.511 188.591,110.905 180.167,115.771 		"/>
		
			<line fill="none" stroke="#000000" stroke-width="0.5" stroke-linecap="round" stroke-linejoin="round" x1="179.478" y1="115.372" x2="187.905" y2="110.511"/>
		<polyline fill="none" stroke="#000000" stroke-width="0.25" stroke-linecap="round" stroke-linejoin="round" points="
			180.167,118.306 187.466,114.091 187.466,113.938 188.591,111.64 188.591,110.905 		"/>
		
			<line fill="none" stroke="#000000" stroke-width="0.5" stroke-linecap="round" stroke-linejoin="round" x1="180.167" y1="118.306" x2="187.466" y2="114.091"/>
		
			<line fill="none" stroke="#000000" stroke-width="0.25" stroke-linecap="round" stroke-linejoin="round" x1="187.466" y1="113.938" x2="220.711" y2="133.132"/>
		
			<line fill="none" stroke="#000000" stroke-width="0.25" stroke-linecap="round" stroke-linejoin="round" x1="188.591" y1="111.64" x2="219.653" y2="129.573"/>
		
			<line fill="none" stroke="#000000" stroke-width="0.25" stroke-linecap="round" stroke-linejoin="round" x1="188.966" y1="104.211" x2="220.711" y2="122.538"/>
		
			<line fill="none" stroke="#000000" stroke-width="0.25" stroke-linecap="round" stroke-linejoin="round" x1="188.966" y1="99.012" x2="219.653" y2="116.728"/>
		
			<line fill="none" stroke="#000000" stroke-width="0.25" stroke-linecap="round" stroke-linejoin="round" x1="188.966" y1="111.856" x2="188.966" y2="104.211"/>
		
			<line fill="none" stroke="#000000" stroke-width="0.25" stroke-linecap="round" stroke-linejoin="round" x1="188.966" y1="99.012" x2="188.966" y2="92.017"/>
		
			<line fill="none" stroke="#000000" stroke-width="0.25" stroke-linecap="round" stroke-linejoin="round" x1="183.401" y1="88.803" x2="186.087" y2="90.353"/>
		
			<line fill="none" stroke="#000000" stroke-width="0.25" stroke-linecap="round" stroke-linejoin="round" x1="187.466" y1="110.765" x2="187.466" y2="92.294"/>
		<path fill="none" stroke="#000000" stroke-width="0.25" stroke-linecap="round" stroke-linejoin="round" d="M188.966,111.856
			c0,0,2.908-5.237,0-7.646"/>
		<path fill="none" stroke="#000000" stroke-width="0.25" stroke-linecap="round" stroke-linejoin="round" d="M188.966,99.012
			c0,0,2.142-3.855,0.914-6.471"/>
		<path fill="none" stroke="#000000" stroke-width="0.25" stroke-linecap="round" stroke-linejoin="round" d="M196.157,108.354
			c0.588,0.344,1.187,0.424,1.641,0.16c0.625-0.359,0.82-1.271,0.582-2.303c-0.102-0.438-0.278-0.896-0.536-1.344
			c-0.435-0.75-1.007-1.324-1.582-1.646l-1.664-0.964c-0.574-0.321-1.152-0.395-1.601-0.137c-0.889,0.515-0.908,2.146-0.043,3.646
			c0.422,0.729,0.979,1.297,1.539,1.623L196.157,108.354z"/>
		<path fill="none" stroke="#000000" stroke-width="0.5" stroke-linecap="round" stroke-linejoin="round" d="M197.798,108.515
			c0.625-0.359,0.82-1.271,0.582-2.303c-0.102-0.438-0.278-0.896-0.536-1.344c-0.435-0.75-1.007-1.324-1.582-1.646l-1.664-0.963
			c-0.574-0.322-1.152-0.396-1.601-0.138"/>
		<path fill="none" stroke="#000000" stroke-width="0.25" stroke-linecap="round" stroke-linejoin="round" d="M194.851,102.408
			c-0.22,0.453-0.129,1.193,0.271,1.887c0.258,0.443,0.594,0.787,0.937,0.986l1.592,0.92c0.221,0.129,0.44,0.195,0.643,0.193"/>
		<path fill="none" stroke="#000000" stroke-width="0.25" stroke-linecap="round" stroke-linejoin="round" d="M194.755,102.35
			c-0.077,0.016-0.149,0.041-0.219,0.08c-0.541,0.313-0.553,1.307-0.024,2.217c0.256,0.444,0.594,0.789,0.936,0.988l1.592,0.92
			c0.357,0.209,0.722,0.258,0.998,0.098c0.107-0.063,0.193-0.15,0.258-0.26c0.035-0.056,0.063-0.117,0.086-0.185"/>
		<path fill="#FFFFFF" stroke="#000000" stroke-width="0.5" stroke-linecap="round" stroke-linejoin="round" d="M194.851,102.408
			c-0.22,0.453-0.129,1.193,0.271,1.887c0.258,0.443,0.594,0.787,0.937,0.986l1.592,0.92c0.221,0.129,0.44,0.195,0.643,0.193
			l0.004,0.002c0.033-0.058,0.062-0.117,0.084-0.185c-0.102-0.438-0.278-0.896-0.536-1.344c-0.435-0.75-1.007-1.324-1.582-1.646
			L194.851,102.408z"/>
		<polygon fill="#CCCCCC" stroke="#000000" stroke-width="0.25" stroke-linecap="round" stroke-linejoin="round" points="
			188.456,91.722 180.167,96.494 180.167,93.868 186.171,90.401 		"/>
		
			<line fill="none" stroke="#000000" stroke-width="0.5" stroke-linecap="round" stroke-linejoin="round" x1="225.659" y1="113.196" x2="186.087" y2="90.353"/>
		
			<line fill="none" stroke="#000000" stroke-width="0.5" stroke-linecap="round" stroke-linejoin="round" x1="180.167" y1="96.494" x2="188.456" y2="91.722"/>
		
			<line fill="none" stroke="#000000" stroke-width="0.25" stroke-linecap="round" stroke-linejoin="round" x1="220.304" y1="126.325" x2="220.711" y2="126.091"/>
		<path fill="none" stroke="#000000" stroke-width="0.5" stroke-linecap="round" stroke-linejoin="round" d="M228.409,114.784
			l3.427,1.979c0,0,0.268,0.153,0.268,0.508v4.75"/>
	</g>
	<g>
		<path fill="#FFFFFF" stroke="#000000" stroke-width="0.25" stroke-linecap="round" stroke-linejoin="round" d="M231.199,163.763
			c0.017-0.66-0.192-1.45-0.629-2.207c-0.469-0.813-1.104-1.416-1.725-1.716c-0.521-0.249-1.029-0.286-1.431-0.055
			c-0.885,0.512-0.901,2.128-0.043,3.616c0.857,1.487,2.271,2.28,3.152,1.77C230.959,164.922,231.184,164.403,231.199,163.763z"/>
		<polygon fill="none" stroke="#000000" stroke-width="0.25" stroke-linecap="round" stroke-linejoin="round" points="
			230.559,163.129 229.201,162.345 229.201,160.763 228.738,160.497 228.738,162.078 227.384,161.296 227.384,161.829 
			228.74,162.612 228.74,164.178 229.201,164.446 229.201,162.881 230.559,163.662 		"/>
		
			<line fill="none" stroke="#000000" stroke-width="0.25" stroke-linecap="round" stroke-linejoin="round" x1="230.559" y1="163.662" x2="230.559" y2="163.129"/>
		
			<line fill="none" stroke="#000000" stroke-width="0.25" stroke-linecap="round" stroke-linejoin="round" x1="229.201" y1="164.446" x2="229.201" y2="162.881"/>
		<polyline fill="none" stroke="#000000" stroke-width="0.25" stroke-linecap="round" stroke-linejoin="round" points="
			229.201,162.345 229.201,160.763 228.738,160.497 		"/>
		
			<line fill="none" stroke="#000000" stroke-width="0.25" stroke-linecap="round" stroke-linejoin="round" x1="228.738" y1="162.078" x2="227.384" y2="161.296"/>
		
			<line fill="none" stroke="#000000" stroke-width="0.25" stroke-linecap="round" stroke-linejoin="round" x1="230.559" y1="163.129" x2="229.201" y2="162.345"/>
	</g>
	<g>
		<path fill="#FFFFFF" stroke="#000000" stroke-width="0.25" stroke-linecap="round" stroke-linejoin="round" d="M186.772,83.98
			l49.439,28.541c0,0,1.428,0.824,1.428,2.521v14.633l-2.125,1.228v4.244l0.922,0.494l1.203-0.662v14.586c0,0,0,0.559-0.336,0.754
			l-13.922,8.037c0,0-0.529,0.305-0.92,0.08l-50.115-28.935c0,0-0.313-0.205-0.313-0.627V93.561c0,0-0.039-1.705,0.607-2.08
			l13.049-7.532C185.69,83.95,186.204,83.653,186.772,83.98z"/>
		
			<line fill="none" stroke="#000000" stroke-width="0.5" stroke-linecap="round" stroke-linejoin="round" x1="237.64" y1="129.675" x2="235.515" y2="130.901"/>
		<polyline fill="none" stroke="#000000" stroke-width="0.25" stroke-linecap="round" stroke-linejoin="round" points="
			237.64,134.978 235.515,136.204 235.515,130.901 		"/>
		
			<line fill="none" stroke="#000000" stroke-width="0.5" stroke-linecap="round" stroke-linejoin="round" x1="235.515" y1="136.204" x2="235.515" y2="130.901"/>
		<path fill="none" stroke="#000000" stroke-width="0.25" stroke-linecap="round" stroke-linejoin="round" d="M172.034,93.815
			c0,0,0,3.549,0.988,4.122l45.734,26.401"/>
		<path fill="none" stroke="#000000" stroke-width="0.25" stroke-linecap="round" stroke-linejoin="round" d="M221.885,158.101
			c-2.146-1.238-3.127-3.127-3.127-3.127l-45.734-26.404V97.937"/>
		
			<line fill="none" stroke="#000000" stroke-width="0.25" stroke-linecap="round" stroke-linejoin="round" x1="218.758" y1="154.974" x2="218.758" y2="124.339"/>
		
			<line fill="none" stroke="#000000" stroke-width="0.25" stroke-linecap="round" stroke-linejoin="round" x1="218.758" y1="124.339" x2="222.927" y2="121.931"/>
		
			<line fill="none" stroke="#000000" stroke-width="0.25" stroke-linecap="round" stroke-linejoin="round" x1="174.205" y1="91.942" x2="222.263" y2="119.686"/>
		
			<line fill="none" stroke="#000000" stroke-width="0.25" stroke-linecap="round" stroke-linejoin="round" x1="224.743" y1="155.828" x2="224.743" y2="123.314"/>
		
			<line fill="none" stroke="#000000" stroke-width="0.25" stroke-linecap="round" stroke-linejoin="round" x1="223.744" y1="119.719" x2="234.716" y2="113.385"/>
		
			<line fill="none" stroke="#000000" stroke-width="0.25" stroke-linecap="round" stroke-linejoin="round" x1="225.497" y1="121.823" x2="236.007" y2="115.757"/>
		<g>
			<path fill="#231F20" d="M201.868,120.046l-0.404-0.233l-0.161-0.679l-0.736-0.426l-0.152,0.496l-0.396-0.227l0.719-2.164
				l0.395,0.227L201.868,120.046z M201.183,118.63l-0.254-1.104l-0.25,0.813L201.183,118.63z"/>
			<path fill="#231F20" d="M201.972,119.267l0.362,0.16c0.021,0.184,0.066,0.331,0.134,0.45c0.065,0.117,0.155,0.211,0.27,0.275
				c0.119,0.068,0.211,0.086,0.271,0.049c0.062-0.035,0.093-0.1,0.093-0.195c0-0.061-0.015-0.118-0.039-0.178
				c-0.025-0.059-0.07-0.121-0.135-0.188c-0.044-0.045-0.144-0.142-0.298-0.283c-0.2-0.187-0.34-0.353-0.422-0.5
				c-0.112-0.207-0.17-0.412-0.17-0.615c0-0.133,0.027-0.238,0.08-0.322s0.131-0.127,0.23-0.129
				c0.099-0.002,0.223,0.039,0.362,0.121c0.232,0.133,0.406,0.305,0.523,0.515c0.117,0.209,0.178,0.434,0.184,0.674l-0.371-0.191
				c-0.018-0.143-0.051-0.256-0.104-0.344c-0.053-0.09-0.131-0.164-0.236-0.226c-0.106-0.063-0.192-0.079-0.254-0.055
				c-0.039,0.019-0.059,0.062-0.059,0.127c0,0.062,0.018,0.123,0.055,0.188c0.047,0.082,0.162,0.207,0.342,0.371
				c0.183,0.164,0.316,0.305,0.402,0.418c0.088,0.112,0.154,0.239,0.205,0.379c0.049,0.139,0.072,0.291,0.072,0.453
				c0,0.146-0.029,0.27-0.089,0.364c-0.059,0.096-0.141,0.144-0.248,0.144c-0.106,0.002-0.241-0.043-0.401-0.138
				c-0.232-0.135-0.412-0.313-0.537-0.536C202.071,119.831,201.997,119.567,201.972,119.267z"/>
			<path fill="#231F20" d="M203.69,120.259l0.363,0.16c0.021,0.185,0.065,0.332,0.133,0.451c0.065,0.117,0.155,0.211,0.27,0.275
				c0.121,0.069,0.211,0.086,0.271,0.049c0.061-0.033,0.092-0.1,0.092-0.195c0-0.061-0.014-0.119-0.039-0.178
				c-0.025-0.057-0.07-0.119-0.133-0.189c-0.045-0.045-0.146-0.141-0.299-0.282c-0.199-0.187-0.341-0.353-0.42-0.5
				c-0.113-0.207-0.171-0.412-0.171-0.615c0-0.133,0.025-0.238,0.08-0.322c0.054-0.084,0.129-0.127,0.229-0.129
				c0.102-0.002,0.223,0.039,0.363,0.121c0.231,0.133,0.405,0.305,0.522,0.514s0.18,0.435,0.187,0.674l-0.373-0.19
				c-0.019-0.144-0.052-0.256-0.104-0.344c-0.053-0.091-0.131-0.164-0.235-0.226c-0.107-0.063-0.191-0.08-0.255-0.055
				c-0.039,0.02-0.059,0.061-0.059,0.127c0,0.061,0.018,0.123,0.055,0.189c0.049,0.081,0.162,0.204,0.345,0.368
				c0.18,0.164,0.313,0.306,0.401,0.418c0.086,0.113,0.154,0.24,0.203,0.382c0.049,0.137,0.072,0.288,0.072,0.45
				c0,0.148-0.027,0.271-0.086,0.365c-0.062,0.096-0.144,0.144-0.25,0.144c-0.107,0.002-0.242-0.043-0.402-0.138
				c-0.231-0.135-0.412-0.313-0.537-0.537C203.79,120.823,203.716,120.56,203.69,120.259z"/>
			<path fill="#231F20" d="M207.169,123.104l-0.403-0.232l-0.162-0.68l-0.738-0.426l-0.152,0.498l-0.395-0.229l0.719-2.164
				l0.396,0.229L207.169,123.104z M206.483,121.69l-0.254-1.105l-0.25,0.814L206.483,121.69z"/>
			<path fill="#231F20" d="M209.556,124.481l-0.406-0.232l-0.16-0.68l-0.738-0.426l-0.151,0.498l-0.396-0.229l0.717-2.164
				l0.396,0.229L209.556,124.481z M208.868,123.067l-0.254-1.105l-0.248,0.814L208.868,123.067z"/>
			<path fill="#231F20" d="M209.753,122.019l0.738,0.426c0.146,0.084,0.256,0.156,0.326,0.215c0.072,0.06,0.137,0.131,0.193,0.217
				c0.057,0.088,0.104,0.187,0.141,0.297c0.039,0.111,0.058,0.226,0.058,0.334c0,0.121-0.021,0.22-0.068,0.293
				c-0.047,0.074-0.111,0.113-0.189,0.119c0.111,0.109,0.197,0.238,0.259,0.384c0.061,0.145,0.092,0.291,0.092,0.438
				c0,0.117-0.021,0.221-0.06,0.312c-0.039,0.088-0.092,0.145-0.16,0.172c-0.067,0.026-0.149,0.02-0.25-0.021
				c-0.063-0.026-0.213-0.108-0.448-0.242l-0.63-0.362L209.753,122.019L209.753,122.019z M210.127,122.663v0.596l0.243,0.142
				c0.146,0.084,0.236,0.133,0.271,0.147c0.063,0.025,0.113,0.025,0.149-0.006c0.035-0.028,0.056-0.086,0.056-0.17
				c0-0.08-0.017-0.153-0.047-0.223c-0.033-0.066-0.078-0.125-0.142-0.17c-0.037-0.027-0.145-0.092-0.317-0.193L210.127,122.663z
				 M210.127,123.688v0.688l0.346,0.199c0.135,0.076,0.219,0.121,0.256,0.131c0.055,0.021,0.1,0.01,0.135-0.024
				c0.035-0.033,0.053-0.099,0.053-0.188c0-0.078-0.014-0.149-0.041-0.221c-0.026-0.068-0.065-0.131-0.116-0.187
				c-0.052-0.053-0.16-0.129-0.33-0.227L210.127,123.688z"/>
			<path fill="#231F20" d="M211.624,125.677v-2.558l0.373,0.215v2.123l0.927,0.533v0.437L211.624,125.677z"/>
			<path fill="#231F20" d="M213.112,125.263c0-0.263,0.029-0.468,0.084-0.613c0.043-0.105,0.101-0.191,0.174-0.254
				c0.072-0.063,0.15-0.094,0.238-0.094c0.115-0.003,0.246,0.041,0.396,0.127c0.271,0.157,0.489,0.399,0.651,0.729
				c0.164,0.33,0.246,0.705,0.246,1.125c0,0.416-0.082,0.695-0.244,0.836c-0.162,0.144-0.379,0.135-0.647-0.021
				c-0.275-0.16-0.492-0.4-0.654-0.73C213.194,126.042,213.112,125.673,213.112,125.263z M213.497,125.466
				c0,0.293,0.05,0.541,0.146,0.748s0.219,0.354,0.367,0.439c0.147,0.084,0.271,0.08,0.365-0.014
				c0.096-0.097,0.143-0.293,0.143-0.591c0-0.297-0.045-0.543-0.139-0.741c-0.093-0.199-0.216-0.345-0.369-0.433
				c-0.152-0.09-0.277-0.086-0.371,0.006C213.545,124.976,213.497,125.171,213.497,125.466z"/>
			<path fill="#231F20" d="M215.679,128.017v-1.084l-0.678-1.886l0.438,0.252l0.434,1.271l0.427-0.775l0.43,0.248l-0.678,1.105
				v1.082L215.679,128.017z"/>
		</g>
		<g>
			<path fill="#010101" d="M179.255,127.099c0.443,0.989,1.197,1.912,2.054,2.403c0.196,0.115,0.395,0.203,0.582,0.263v-0.451
				c-0.187-0.049-0.384-0.131-0.582-0.244c-0.621-0.359-1.181-0.986-1.56-1.688L179.255,127.099z"/>
			<path fill="#010101" d="M177.546,125.589v-0.131c-0.096,0.051-0.186,0.041-0.35-0.053c-0.162-0.094-0.271-0.199-0.35-0.334
				c-0.068-0.115-0.104-0.248-0.104-0.373c0-0.242,0.152-0.328,0.451-0.156l0.346,0.199v-0.104c0-0.183-0.082-0.318-0.287-0.438
				c-0.145-0.084-0.213-0.084-0.285-0.023l-0.174-0.278c0.125-0.09,0.254-0.063,0.472,0.063c0.356,0.205,0.539,0.479,0.539,0.81
				v0.969L177.546,125.589z M177.54,124.944l-0.307-0.176c-0.154-0.09-0.234-0.06-0.234,0.073c0,0.132,0.074,0.248,0.24,0.345
				c0.1,0.059,0.174,0.094,0.244,0.059c0.039-0.021,0.057-0.08,0.057-0.184V124.944L177.54,124.944z"/>
			<path fill="#010101" d="M178.946,126.286c-0.072,0.039-0.186,0.021-0.318-0.055c-0.139-0.08-0.246-0.183-0.342-0.363v0.736
				l-0.264-0.152v-2.039l0.258,0.15v0.153c0.098-0.075,0.205-0.055,0.346,0.027c0.131,0.076,0.248,0.191,0.32,0.313
				c0.131,0.223,0.146,0.477,0.146,0.698C179.094,125.976,179.077,126.216,178.946,126.286 M178.56,124.966
				c-0.238-0.137-0.273,0.066-0.273,0.324s0.035,0.504,0.273,0.642c0.235,0.137,0.271-0.068,0.271-0.326
				S178.796,125.103,178.56,124.966"/>
			<path fill="#010101" d="M179.513,126.085c0,0.248,0.118,0.476,0.334,0.599c0.146,0.086,0.225,0.084,0.315,0.035l0.168,0.27
				c-0.135,0.072-0.26,0.078-0.49-0.055c-0.327-0.189-0.588-0.533-0.588-1.084c0-0.47,0.22-0.615,0.556-0.422
				c0.352,0.202,0.555,0.604,0.555,1.018v0.129L179.513,126.085z M180.065,126.003c-0.041-0.135-0.135-0.262-0.258-0.332
				c-0.123-0.071-0.22-0.053-0.261,0.033c-0.026,0.051-0.03,0.09-0.034,0.176l0.588,0.341
				C180.099,126.13,180.091,126.083,180.065,126.003"/>
			<path fill="#010101" d="M181.3,126.647c-0.059-0.103-0.104-0.16-0.194-0.213c-0.144-0.082-0.26-0.021-0.26,0.178v0.881
				l-0.265-0.152v-1.45l0.258,0.149v0.156c0.068-0.064,0.201-0.057,0.349,0.027c0.127,0.071,0.223,0.164,0.313,0.317L181.3,126.647z
				"/>
			<path fill="#010101" d="M181.634,125.903l0.265,0.152v0.309l-0.265-0.152V125.903z M181.636,126.499l0.264,0.152v1.451
				l-0.264-0.152V126.499z"/>
			<path fill="#010101" d="M183.062,128.618c-0.086,0.049-0.213,0.049-0.392-0.053c-0.18-0.104-0.307-0.25-0.391-0.398
				c-0.123-0.213-0.154-0.414-0.154-0.66c0-0.243,0.031-0.407,0.154-0.479c0.084-0.049,0.211-0.049,0.391,0.053
				c0.179,0.104,0.306,0.25,0.392,0.398c0.123,0.215,0.153,0.414,0.153,0.66C183.216,128.382,183.185,128.548,183.062,128.618
				 M182.862,127.534c-0.049-0.082-0.115-0.15-0.191-0.195c-0.077-0.045-0.143-0.053-0.19-0.024c-0.08,0.041-0.09,0.188-0.09,0.346
				c0,0.156,0.01,0.314,0.09,0.449c0.049,0.082,0.113,0.149,0.19,0.195c0.076,0.045,0.144,0.053,0.191,0.026
				c0.082-0.045,0.092-0.19,0.092-0.346C182.954,127.827,182.944,127.669,182.862,127.534"/>
			<path fill="#010101" d="M176.481,122.925c0.506-1.229,1.824-1.551,3.365-0.659c0.877,0.506,1.698,1.34,2.336,2.313v0.002
				c-0.277-0.276-0.574-0.514-0.881-0.69c-1.068-0.615-1.98-0.386-2.322,0.475l0.422,0.246c0.32-0.629,1.053-0.773,1.899-0.285
				c0.83,0.48,1.578,1.467,1.902,2.482l0.424,0.243c-0.532-2.104-2.063-4.229-3.78-5.223c-1.763-1.016-3.259-0.604-3.783,0.857
				L176.481,122.925z"/>
			<polygon fill="#010101" points="183.294,127.185 183.294,127.431 183.241,127.399 183.241,127.153 183.171,127.114 
				183.171,127.062 183.362,127.173 183.362,127.224 			"/>
			<polygon fill="#010101" points="183.595,127.603 183.595,127.431 183.544,127.513 183.509,127.491 183.458,127.351 
				183.458,127.524 183.405,127.493 183.405,127.196 183.456,127.228 183.526,127.427 183.597,127.308 183.647,127.337 
				183.647,127.634 			"/>
		</g>
		<path fill="none" stroke="#000000" stroke-width="1.5" stroke-linecap="round" stroke-linejoin="round" d="M237.64,134.978v14.586
			c0,0,0,0.559-0.336,0.754l-13.922,8.037c0,0-0.529,0.305-0.92,0.08l-50.115-28.935c0,0-0.313-0.205-0.313-0.627V93.561
			c0,0-0.039-1.705,0.607-2.08l13.049-7.532c0,0,0.514-0.297,1.082,0.03l49.439,28.541c0,0,1.428,0.824,1.428,2.521L237.64,134.978"
			/>
	</g>
</g>
</svg>
