<?xml version="1.0" encoding="utf-8"?>
<!-- Generator: Adobe Illustrator 15.0.2, SVG Export Plug-In . SVG Version: 6.00 Build 0)  -->
<!DOCTYPE svg PUBLIC "-//W3C//DTD SVG 1.1//EN" "http://www.w3.org/Graphics/SVG/1.1/DTD/svg11.dtd">
<svg version="1.1" id="Stuff" xmlns="http://www.w3.org/2000/svg" xmlns:xlink="http://www.w3.org/1999/xlink" x="0px" y="0px"
	 width="251.899px" height="188.223px" viewBox="171.757 327.371 251.899 188.223"
	 enable-background="new 171.757 327.371 251.899 188.223" xml:space="preserve">
<g>
	<g>
		<g>
			<path fill="#F6F6F6" stroke="#000000" stroke-width="0.25" d="M269.424,510.216c0,0,18.506-6.945,39.685-1.312
				c23.312,6.201,34.586-9.896,34.586-28.085l-74.271-42.86V510.216z"/>
			<line fill="none" stroke="#000000" stroke-width="0.5" x1="343.693" y1="480.819" x2="269.424" y2="437.959"/>
			
				<line fill="none" stroke="#000000" stroke-linecap="round" stroke-linejoin="round" x1="269.424" y1="437.959" x2="269.424" y2="510.216"/>
			<g>
				<polygon fill="#F6F6F6" stroke="#000000" stroke-linecap="round" stroke-linejoin="round" points="296.073,460.363 
					294.901,461.039 290.967,458.767 287.138,460.977 270.901,451.604 270.901,447.184 270.772,447.108 270.772,441.878 
					271.944,441.201 296.073,455.133 				"/>
				<g>
					
						<ellipse transform="matrix(-0.5002 -0.8659 0.8659 -0.5002 43.1745 939.1309)" fill="none" stroke="#000000" stroke-width="0.25" stroke-linecap="round" stroke-linejoin="round" cx="292.632" cy="457.105" rx="0.861" ry="0.512"/>
					<path fill="none" stroke="#000000" stroke-width="0.5" stroke-linecap="round" stroke-linejoin="round" d="M293.086,457.852
						c0.243-0.141,0.25-0.59,0.012-1.002c-0.238-0.411-0.629-0.631-0.873-0.49"/>
				</g>
				<path fill="none" stroke="#000000" stroke-width="0.25" stroke-linecap="round" stroke-linejoin="round" d="M273.043,445.139
					c-0.229-0.26-0.517-0.375-0.71-0.262c-0.194,0.11-0.237,0.418-0.129,0.745"/>
				<path fill="none" stroke="#000000" stroke-width="0.5" stroke-linecap="round" stroke-linejoin="round" d="M273.043,445.139
					c-0.229-0.26-0.517-0.375-0.71-0.262"/>
				<polygon fill="none" stroke="#000000" stroke-width="0.25" stroke-linecap="round" stroke-linejoin="round" points="
					294.901,455.809 296.073,455.133 271.944,441.201 270.772,441.878 274.729,444.162 270.901,446.373 287.136,455.746 
					290.967,453.535 				"/>
				
					<line fill="none" stroke="#000000" stroke-width="0.5" stroke-linecap="round" stroke-linejoin="round" x1="274.729" y1="444.162" x2="270.901" y2="446.373"/>
				
					<line fill="none" stroke="#000000" stroke-width="0.25" stroke-linecap="round" stroke-linejoin="round" x1="287.136" y1="455.746" x2="287.138" y2="460.977"/>
				
					<line fill="none" stroke="#000000" stroke-width="0.25" stroke-linecap="round" stroke-linejoin="round" x1="294.901" y1="455.809" x2="294.901" y2="461.039"/>
				
					<line fill="none" stroke="#000000" stroke-width="0.25" stroke-linecap="round" stroke-linejoin="round" x1="290.967" y1="453.535" x2="290.967" y2="458.767"/>
				
					<line fill="none" stroke="#000000" stroke-width="0.5" stroke-linecap="round" stroke-linejoin="round" x1="270.901" y1="446.373" x2="270.901" y2="451.604"/>
			</g>
			<g>
				<path fill="#F6F6F6" stroke="#000000" stroke-width="0.25" stroke-linecap="round" stroke-linejoin="round" d="M269.87,435.456
					v1.913l24.841,14.343l1.959-1.071v-7.115l0.319-0.186v-2.636l-0.319-0.186v-7.287c0,0,0.008-0.303-0.281-0.471l-24.615-14.209
					l-1.902,1.098v0.619l-3.002,1.733v12.219l1.386,0.8l1.825-1.056l0.313,0.181l0.588-0.338c0.049-0.026,0.098-0.047,0.146-0.062
					l0.004,0.001c0.057,0.23-0.002,0.553-0.179,0.855c-0.139,0.243-0.325,0.427-0.514,0.523L269.87,435.456z"/>
				<g>
					<path fill="none" stroke="#000000" stroke-width="0.25" stroke-linecap="round" stroke-linejoin="round" d="M289.897,444.32
						c-0.002-0.342,0.113-0.619,0.342-0.751c0.312-0.181,0.754-0.037,1.144,0.323c0.164,0.153,0.315,0.346,0.444,0.568
						c0.218,0.375,0.322,0.768,0.318,1.098l0.002,0.96c-0.004,0.33-0.119,0.599-0.342,0.728c-0.445,0.258-1.156-0.143-1.59-0.893
						c-0.211-0.366-0.316-0.748-0.318-1.072V444.32L289.897,444.32z"/>
					<path fill="none" stroke="#000000" stroke-width="0.5" stroke-linecap="round" stroke-linejoin="round" d="M290.239,443.569
						c0.312-0.181,0.754-0.037,1.144,0.323c0.164,0.153,0.315,0.346,0.444,0.568c0.218,0.375,0.322,0.768,0.318,1.098l0.002,0.96
						c-0.004,0.33-0.119,0.599-0.342,0.728"/>
					<path fill="none" stroke="#000000" stroke-width="0.25" stroke-linecap="round" stroke-linejoin="round" d="M292.146,446.372
						c-0.25-0.019-0.549-0.241-0.748-0.589c-0.129-0.223-0.193-0.454-0.193-0.651v-0.919c-0.002-0.127,0.025-0.24,0.076-0.327"/>
					<path fill="none" stroke="#000000" stroke-width="0.25" stroke-linecap="round" stroke-linejoin="round" d="M292.147,446.429
						c-0.025,0.028-0.055,0.054-0.09,0.074c-0.271,0.155-0.703-0.088-0.967-0.543c-0.129-0.224-0.191-0.455-0.193-0.652v-0.919
						c-0.002-0.207,0.068-0.377,0.207-0.457c0.053-0.03,0.113-0.046,0.178-0.047c0.031-0.001,0.066,0.002,0.101,0.01"/>
					<path fill="#FFFFFF" stroke="#000000" stroke-width="0.5" stroke-linecap="round" stroke-linejoin="round" d="M292.146,446.372
						c-0.25-0.019-0.549-0.241-0.748-0.589c-0.129-0.223-0.193-0.454-0.193-0.651v-0.919c-0.002-0.127,0.025-0.24,0.076-0.327
						v-0.001c0.033-0.001,0.066,0.002,0.103,0.009c0.164,0.153,0.315,0.346,0.444,0.568c0.218,0.375,0.322,0.768,0.318,1.098
						V446.372z"/>
				</g>
				<path fill="none" stroke="#000000" stroke-linecap="round" stroke-linejoin="round" d="M287.926,441.347
					c0.319-0.381,0.42-0.886,0.17-1.031c-0.312-0.158-0.666,0.231-0.808,0.751c-0.139,0.52-0.047,0.813,0.246,1.054
					c0.25,0.209,0.736,0.039,1.088-0.381c0.353-0.419,0.466-0.978,0.188-1.138c-0.342-0.174-0.734,0.256-0.889,0.828
					c-0.155,0.571-0.054,0.897,0.271,1.163c0.273,0.229,0.81,0.042,1.197-0.419c0.387-0.461,0.51-1.075,0.205-1.251
					c-0.377-0.191-0.81,0.28-0.979,0.91c-0.168,0.63-0.057,0.987,0.299,1.278c0.302,0.252,0.89,0.047,1.313-0.459
					s0.559-1.18,0.225-1.373c-0.412-0.209-0.887,0.311-1.069,1c-0.187,0.689-0.064,1.083,0.328,1.402
					c0.323,0.271,0.959,0.05,1.42-0.497c0.459-0.548,0.565-1.213,0.241-1.485"/>
				<polygon fill="#CCCCCC" stroke="#000000" stroke-width="0.25" stroke-linecap="round" stroke-linejoin="round" points="
					292.327,437.913 292.327,445.506 289.374,447.212 287.995,446.419 287.995,445.151 288.524,444.847 288.524,441.894 
					288.321,442.011 287.995,441.823 287.995,438.844 288.524,438.538 288.524,435.589 288.321,435.705 287.995,435.518 
					287.995,434.198 290.999,432.466 293.526,433.91 293.536,435.128 290.521,436.868 290.521,437.225 291.543,437.814 
					292.665,437.166 293.144,437.441 				"/>
				<g>
					<path fill="#CCCCCC" stroke="#000000" stroke-width="0.25" stroke-linecap="round" stroke-linejoin="round" d="
						M269.438,431.565c-0.053-0.007-0.102-0.021-0.146-0.048c-0.296-0.171-0.304-0.714-0.017-1.212
						c0.289-0.499,0.762-0.766,1.06-0.593c0.043,0.024,0.082,0.059,0.112,0.1l0.154,0.204c0.141,0.22,0.104,0.618-0.111,0.989
						c-0.209,0.363-0.526,0.592-0.785,0.591L269.438,431.565z"/>
					<path fill="none" stroke="#000000" stroke-width="0.5" stroke-linecap="round" stroke-linejoin="round" d="M270.448,429.813
						l0.154,0.204c0.141,0.22,0.104,0.618-0.111,0.989c-0.209,0.363-0.526,0.592-0.785,0.591l-0.268-0.031"/>
					<path fill="none" stroke="#000000" stroke-width="0.25" stroke-linecap="round" stroke-linejoin="round" d="M269.511,430.439
						c0.264-0.456,0.696-0.699,0.967-0.543c0.051,0.029,0.092,0.07,0.125,0.12c0.141,0.22,0.104,0.618-0.111,0.989
						c-0.209,0.363-0.526,0.592-0.785,0.591c-0.063,0-0.127-0.017-0.182-0.047C269.254,431.394,269.247,430.896,269.511,430.439z"/>
				</g>
				<g>
					<path fill="#CCCCCC" stroke="#000000" stroke-width="0.25" stroke-linecap="round" stroke-linejoin="round" d="
						M269.433,424.962c-0.053-0.008-0.103-0.022-0.146-0.05c-0.295-0.17-0.303-0.713-0.016-1.211c0.289-0.5,0.762-0.766,1.059-0.594
						c0.043,0.025,0.082,0.059,0.113,0.1l0.154,0.205c0.141,0.22,0.104,0.617-0.111,0.989c-0.209,0.364-0.526,0.592-0.785,0.591
						L269.433,424.962z"/>
					<path fill="none" stroke="#000000" stroke-width="0.5" stroke-linecap="round" stroke-linejoin="round" d="M270.442,423.207
						l0.154,0.205c0.141,0.22,0.104,0.617-0.111,0.989c-0.209,0.364-0.527,0.592-0.785,0.591l-0.268-0.03"/>
					<path fill="none" stroke="#000000" stroke-width="0.25" stroke-linecap="round" stroke-linejoin="round" d="M269.506,423.837
						c0.264-0.457,0.696-0.701,0.967-0.543c0.051,0.026,0.092,0.067,0.125,0.118c0.141,0.22,0.104,0.617-0.111,0.989
						c-0.209,0.364-0.526,0.592-0.785,0.591c-0.063,0-0.127-0.016-0.182-0.047C269.247,424.789,269.241,424.291,269.506,423.837z"/>
				</g>
				<path fill="none" stroke="#000000" stroke-linecap="round" stroke-linejoin="round" d="M272.344,425.615
					c0.17-0.465,0.557-0.807,0.809-0.66c0.291,0.188,0.131,0.691-0.248,1.072c-0.381,0.379-0.682,0.447-1.037,0.313
					c-0.305-0.111-0.399-0.617-0.213-1.132c0.188-0.515,0.615-0.891,0.894-0.729c0.319,0.209,0.145,0.764-0.273,1.184
					c-0.42,0.418-0.752,0.494-1.145,0.347c-0.334-0.123-0.439-0.681-0.234-1.246c0.207-0.565,0.676-0.979,0.979-0.804
					c0.354,0.229,0.16,0.842-0.299,1.303c-0.461,0.46-0.828,0.544-1.258,0.38c-0.367-0.133-0.484-0.744-0.258-1.365
					c0.226-0.621,0.742-1.074,1.076-0.881c0.387,0.252,0.176,0.922-0.33,1.428s-0.906,0.598-1.379,0.418
					c-0.398-0.146-0.523-0.808-0.279-1.479c0.244-0.672,0.766-1.101,1.166-0.953"/>
				<path fill="none" stroke="#000000" stroke-width="0.25" stroke-linecap="round" stroke-linejoin="round" d="M269.87,419.649
					l24.56,14.177c0.291,0.168,0.281,0.472,0.281,0.472v2.862l-1.843,1.064v9.739l1.843-1.064v4.813"/>
				
					<line fill="none" stroke="#000000" stroke-width="0.5" stroke-linecap="round" stroke-linejoin="round" x1="292.868" y1="447.965" x2="294.711" y2="446.899"/>
				<polygon fill="none" stroke="#000000" stroke-width="0.25" stroke-linecap="round" stroke-linejoin="round" points="
					289.37,434.992 287.995,434.198 287.995,435.518 288.321,435.705 288.321,434.837 289.051,435.259 289.051,436.981 
					289.37,437.177 				"/>
				<polyline fill="none" stroke="#000000" stroke-width="0.5" stroke-linecap="round" stroke-linejoin="round" points="
					288.321,434.837 289.051,435.259 289.051,436.981 289.37,437.177 				"/>
				<polyline fill="none" stroke="#000000" stroke-width="0.5" stroke-linecap="round" stroke-linejoin="round" points="
					287.995,434.198 287.995,435.518 288.321,435.705 				"/>
				<polygon fill="none" stroke="#000000" stroke-width="0.25" stroke-linecap="round" stroke-linejoin="round" points="
					287.995,438.844 288.321,439.029 288.321,440.046 289.051,440.468 289.051,438.302 289.37,438.486 289.37,443.774 
					289.051,443.591 289.051,441.419 288.321,440.996 288.321,442.011 287.995,441.823 				"/>
				<polyline fill="none" stroke="#000000" stroke-width="0.5" stroke-linecap="round" stroke-linejoin="round" points="
					288.321,442.011 287.995,441.823 287.995,438.844 				"/>
				<polyline fill="none" stroke="#000000" stroke-width="0.5" stroke-linecap="round" stroke-linejoin="round" points="
					289.37,443.774 289.051,443.591 289.051,441.419 288.321,440.996 				"/>
				
					<line fill="none" stroke="#000000" stroke-width="0.5" stroke-linecap="round" stroke-linejoin="round" x1="289.051" y1="440.468" x2="289.051" y2="438.302"/>
				<polygon fill="none" stroke="#000000" stroke-width="0.25" stroke-linecap="round" stroke-linejoin="round" points="
					287.995,445.151 288.319,445.339 288.321,446.219 289.051,446.639 289.051,444.918 289.37,445.102 289.374,447.212 
					287.995,446.419 				"/>
				<polyline fill="none" stroke="#000000" stroke-width="0.5" stroke-linecap="round" stroke-linejoin="round" points="
					289.374,447.212 287.995,446.419 287.995,445.151 				"/>
				
					<line fill="none" stroke="#000000" stroke-width="0.5" stroke-linecap="round" stroke-linejoin="round" x1="289.051" y1="446.639" x2="289.051" y2="444.918"/>
				<polyline fill="none" stroke="#000000" stroke-width="0.25" stroke-linecap="round" stroke-linejoin="round" points="
					266.868,422.003 268.254,422.802 268.254,424.113 267.907,423.923 267.907,423.053 267.222,422.656 267.222,434.036 
					267.907,434.432 267.907,433.553 268.254,433.753 268.254,435.02 				"/>
				
					<line fill="none" stroke="#000000" stroke-width="0.5" stroke-linecap="round" stroke-linejoin="round" x1="267.907" y1="434.432" x2="267.907" y2="433.553"/>
				<polyline fill="none" stroke="#000000" stroke-width="0.5" stroke-linecap="round" stroke-linejoin="round" points="
					268.254,424.113 267.907,423.923 267.907,423.053 267.222,422.656 				"/>
				<polyline fill="none" stroke="#000000" stroke-width="0.25" stroke-linecap="round" stroke-linejoin="round" points="
					294.711,437.16 294.22,436.878 294.22,435.521 293.536,435.128 293.536,433.931 290.999,432.466 				"/>
				
					<line fill="none" stroke="#000000" stroke-width="0.25" stroke-linecap="round" stroke-linejoin="round" x1="292.374" y1="433.26" x2="289.37" y2="434.992"/>
				<polyline fill="none" stroke="#000000" stroke-width="0.25" stroke-linecap="round" stroke-linejoin="round" points="
					293.536,435.128 290.521,436.868 290.521,437.225 291.543,437.814 292.665,437.166 293.144,437.441 				"/>
				<polyline fill="none" stroke="#000000" stroke-width="0.5" stroke-linecap="round" stroke-linejoin="round" points="
					290.521,437.225 291.543,437.814 292.665,437.166 293.144,437.441 				"/>
				<polyline fill="none" stroke="#000000" stroke-width="0.5" stroke-linecap="round" stroke-linejoin="round" points="
					293.45,437.264 292.327,437.913 292.327,447.652 292.868,447.965 				"/>
				<polyline fill="none" stroke="#000000" stroke-width="0.25" stroke-linecap="round" stroke-linejoin="round" points="
					290.521,436.868 291.543,437.46 292.665,436.811 293.45,437.264 				"/>
				<polyline fill="none" stroke="#000000" stroke-width="0.5" stroke-linecap="round" stroke-linejoin="round" points="
					289.051,438.302 289.847,437.843 289.847,436.941 				"/>
				<polyline fill="none" stroke="#000000" stroke-width="0.25" stroke-linecap="round" stroke-linejoin="round" points="
					289.37,437.177 290.168,436.706 290.168,438.026 289.37,438.486 				"/>
				
					<line fill="none" stroke="#000000" stroke-width="0.5" stroke-linecap="round" stroke-linejoin="round" x1="289.37" y1="437.177" x2="290.168" y2="436.706"/>
				
					<line fill="none" stroke="#000000" stroke-width="0.25" stroke-linecap="round" stroke-linejoin="round" x1="292.327" y1="437.913" x2="292.868" y2="438.225"/>
				
					<line fill="none" stroke="#000000" stroke-width="0.25" stroke-linecap="round" stroke-linejoin="round" x1="292.665" y1="436.811" x2="292.665" y2="437.166"/>
				
					<line fill="none" stroke="#000000" stroke-width="0.25" stroke-linecap="round" stroke-linejoin="round" x1="291.543" y1="437.46" x2="291.543" y2="437.814"/>
				<polyline fill="none" stroke="#000000" stroke-width="0.25" stroke-linecap="round" stroke-linejoin="round" points="
					292.327,442.484 290.521,443.527 290.521,443.885 291.543,444.474 292.327,444.021 				"/>
				<polyline fill="none" stroke="#000000" stroke-width="0.5" stroke-linecap="round" stroke-linejoin="round" points="
					290.521,443.885 291.543,444.474 292.327,444.021 				"/>
				<polyline fill="none" stroke="#000000" stroke-width="0.25" stroke-linecap="round" stroke-linejoin="round" points="
					290.521,443.527 291.543,444.118 292.327,443.665 				"/>
				
					<line fill="none" stroke="#000000" stroke-width="0.25" stroke-linecap="round" stroke-linejoin="round" x1="291.543" y1="444.118" x2="291.543" y2="444.474"/>
				
					<line fill="none" stroke="#000000" stroke-width="0.5" stroke-linecap="round" stroke-linejoin="round" x1="290.999" y1="432.466" x2="287.995" y2="434.198"/>
				<polyline fill="none" stroke="#000000" stroke-width="0.25" stroke-linecap="round" stroke-linejoin="round" points="
					289.37,443.774 290.168,443.314 290.168,444.642 289.37,445.102 				"/>
				
					<line fill="none" stroke="#000000" stroke-width="0.5" stroke-linecap="round" stroke-linejoin="round" x1="289.37" y1="443.774" x2="290.168" y2="443.314"/>
				<polyline fill="none" stroke="#000000" stroke-width="0.5" stroke-linecap="round" stroke-linejoin="round" points="
					289.847,443.499 289.847,444.457 289.051,444.918 				"/>
				<polygon fill="none" stroke="#000000" stroke-width="0.25" stroke-linecap="round" stroke-linejoin="round" points="
					288.524,441.387 288.702,441.489 288.702,446.105 288.524,446.004 				"/>
				<polyline fill="none" stroke="#000000" stroke-width="0.5" stroke-linecap="round" stroke-linejoin="round" points="
					288.702,446.105 288.524,446.004 288.524,441.387 				"/>
				
					<line fill="none" stroke="#000000" stroke-width="0.5" stroke-linecap="round" stroke-linejoin="round" x1="288.702" y1="446.105" x2="289.051" y2="445.903"/>
				
					<line fill="none" stroke="#000000" stroke-width="0.5" stroke-linecap="round" stroke-linejoin="round" x1="288.524" y1="441.387" x2="288.761" y2="441.25"/>
				
					<line fill="none" stroke="#000000" stroke-width="0.25" stroke-linecap="round" stroke-linejoin="round" x1="288.702" y1="441.489" x2="288.938" y2="441.353"/>
				<g>
					<polygon fill="none" stroke="#000000" stroke-width="0.25" stroke-linecap="round" stroke-linejoin="round" points="
						288.524,435.227 288.702,435.329 288.702,439.945 288.524,439.844 					"/>
					<polyline fill="none" stroke="#000000" stroke-width="0.5" stroke-linecap="round" stroke-linejoin="round" points="
						288.702,439.945 288.524,439.844 288.524,435.227 					"/>
					
						<line fill="none" stroke="#000000" stroke-width="0.5" stroke-linecap="round" stroke-linejoin="round" x1="288.702" y1="439.945" x2="289.051" y2="439.743"/>
					
						<line fill="none" stroke="#000000" stroke-width="0.5" stroke-linecap="round" stroke-linejoin="round" x1="288.524" y1="435.227" x2="288.761" y2="435.091"/>
					
						<line fill="none" stroke="#000000" stroke-width="0.25" stroke-linecap="round" stroke-linejoin="round" x1="288.702" y1="435.329" x2="288.938" y2="435.192"/>
				</g>
				<g>
					<polygon fill="none" stroke="#000000" stroke-width="0.25" stroke-linecap="round" stroke-linejoin="round" points="
						267.558,423.018 267.735,423.119 267.735,433.83 267.558,433.728 					"/>
					<polyline fill="none" stroke="#000000" stroke-width="0.5" stroke-linecap="round" stroke-linejoin="round" points="
						267.735,433.83 267.558,433.728 267.558,423.018 					"/>
					
						<line fill="none" stroke="#000000" stroke-width="0.5" stroke-linecap="round" stroke-linejoin="round" x1="267.735" y1="433.83" x2="267.907" y2="433.73"/>
					
						<line fill="none" stroke="#000000" stroke-width="0.5" stroke-linecap="round" stroke-linejoin="round" x1="267.558" y1="423.018" x2="267.702" y2="422.934"/>
					
						<line fill="none" stroke="#000000" stroke-width="0.25" stroke-linecap="round" stroke-linejoin="round" x1="267.735" y1="423.119" x2="267.883" y2="423.037"/>
				</g>
				
					<line fill="none" stroke="#000000" stroke-width="0.5" stroke-linecap="round" stroke-linejoin="round" x1="287.995" y1="438.844" x2="288.524" y2="438.538"/>
				
					<line fill="none" stroke="#000000" stroke-width="0.5" stroke-linecap="round" stroke-linejoin="round" x1="288.321" y1="442.011" x2="288.524" y2="441.894"/>
				
					<line fill="none" stroke="#000000" stroke-width="0.25" stroke-linecap="round" stroke-linejoin="round" x1="288.321" y1="440.046" x2="288.599" y2="439.885"/>
				
					<line fill="none" stroke="#000000" stroke-width="0.25" stroke-linecap="round" stroke-linejoin="round" x1="289.847" y1="437.843" x2="290.168" y2="438.026"/>
				
					<line fill="none" stroke="#000000" stroke-width="0.5" stroke-linecap="round" stroke-linejoin="round" x1="287.995" y1="445.151" x2="288.524" y2="444.847"/>
				
					<line fill="none" stroke="#000000" stroke-width="0.25" stroke-linecap="round" stroke-linejoin="round" x1="288.319" y1="445.339" x2="288.524" y2="445.221"/>
				
					<line fill="none" stroke="#000000" stroke-width="0.25" stroke-linecap="round" stroke-linejoin="round" x1="288.321" y1="446.219" x2="288.608" y2="446.052"/>
				
					<line fill="none" stroke="#000000" stroke-width="0.25" stroke-linecap="round" stroke-linejoin="round" x1="289.847" y1="444.457" x2="290.168" y2="444.642"/>
				<polyline fill="none" stroke="#000000" stroke-width="0.25" stroke-linecap="round" stroke-linejoin="round" points="
					294.22,447.183 294.22,450.843 270.392,437.086 270.392,435.758 269.87,435.456 				"/>
				
					<line fill="none" stroke="#000000" stroke-width="0.5" stroke-linecap="round" stroke-linejoin="round" x1="294.22" y1="447.183" x2="294.22" y2="450.843"/>
				
					<line fill="none" stroke="#000000" stroke-width="0.5" stroke-linecap="round" stroke-linejoin="round" x1="292.327" y1="445.506" x2="289.374" y2="447.212"/>
				
					<line fill="none" stroke="#000000" stroke-width="0.25" stroke-linecap="round" stroke-linejoin="round" x1="294.22" y1="449.363" x2="289.933" y2="446.888"/>
				<polyline fill="none" stroke="#000000" stroke-width="0.25" stroke-linecap="round" stroke-linejoin="round" points="
					296.67,440.519 296.065,440.866 296.065,443.503 				"/>
				<polyline fill="none" stroke="#000000" stroke-width="0.25" stroke-linecap="round" stroke-linejoin="round" points="
					296.065,440.866 296.388,441.052 296.989,440.704 				"/>
				
					<line fill="none" stroke="#000000" stroke-width="0.25" stroke-linecap="round" stroke-linejoin="round" x1="296.388" y1="441.052" x2="296.388" y2="443.687"/>
				<polyline fill="none" stroke="#000000" stroke-width="0.25" stroke-linecap="round" stroke-linejoin="round" points="
					296.065,443.503 296.388,443.687 296.989,443.34 				"/>
				
					<line fill="none" stroke="#000000" stroke-width="0.25" stroke-linecap="round" stroke-linejoin="round" x1="268.254" y1="422.802" x2="271.256" y2="421.067"/>
				
					<line fill="none" stroke="#000000" stroke-width="0.5" stroke-linecap="round" stroke-linejoin="round" x1="288.321" y1="435.705" x2="288.524" y2="435.589"/>
				<path fill="none" stroke="#000000" stroke-width="0.25" stroke-linecap="round" stroke-linejoin="round" d="M270.979,433.807
					c0.049-0.026,0.098-0.047,0.146-0.062c0.123-0.034,0.238-0.028,0.337,0.026c0.274,0.159,0.28,0.666,0.014,1.132
					c-0.141,0.243-0.328,0.427-0.514,0.524l-0.57,0.328"/>
				<path fill="none" stroke="#000000" stroke-width="0.5" stroke-linecap="round" stroke-linejoin="round" d="M271.127,433.746
					c0.122-0.034,0.237-0.028,0.336,0.026"/>
				
					<line fill="none" stroke="#000000" stroke-width="0.25" stroke-linecap="round" stroke-linejoin="round" x1="287.995" y1="445.77" x2="271.674" y2="436.346"/>
				<polyline fill="none" stroke="#000000" stroke-width="0.25" stroke-linecap="round" stroke-linejoin="round" points="
					270.392,437.086 271.674,436.346 271.674,433.045 				"/>
				<g>
					<polygon fill="#CCCCCC" stroke="#000000" stroke-width="0.5" stroke-linecap="round" stroke-linejoin="round" points="
						280.331,439.928 280.331,439.076 280.067,438.925 280.067,438.02 277.905,436.771 275.252,438.304 275.252,438.904 
						274.987,439.057 274.987,439.908 277.676,441.461 					"/>
					<polygon fill="none" stroke="#000000" stroke-width="0.25" stroke-linecap="round" stroke-linejoin="round" points="
						274.987,439.908 274.987,439.057 275.252,439.21 275.252,438.304 277.411,439.552 277.411,440.457 277.676,440.609 
						277.676,441.461 					"/>
					
						<line fill="none" stroke="#000000" stroke-width="0.5" stroke-linecap="round" stroke-linejoin="round" x1="275.252" y1="439.21" x2="275.252" y2="438.304"/>
					
						<line fill="none" stroke="#000000" stroke-width="0.25" stroke-linecap="round" stroke-linejoin="round" x1="277.411" y1="439.552" x2="280.067" y2="438.02"/>
					
						<line fill="none" stroke="#000000" stroke-width="0.25" stroke-linecap="round" stroke-linejoin="round" x1="277.411" y1="440.457" x2="280.067" y2="438.925"/>
					
						<line fill="none" stroke="#000000" stroke-width="0.25" stroke-linecap="round" stroke-linejoin="round" x1="277.676" y1="440.609" x2="280.331" y2="439.076"/>
				</g>
				
					<line fill="none" stroke="#000000" stroke-width="0.25" stroke-linecap="round" stroke-linejoin="round" x1="267.222" y1="434.036" x2="267.661" y2="433.782"/>
				<polyline fill="none" stroke="#000000" stroke-width="0.25" stroke-linecap="round" stroke-linejoin="round" points="
					272.122,431.122 272.465,431.319 268.254,433.753 				"/>
				
					<line fill="none" stroke="#000000" stroke-width="0.5" stroke-linecap="round" stroke-linejoin="round" x1="267.907" y1="433.553" x2="272.122" y2="431.122"/>
				<polyline fill="none" stroke="#000000" stroke-width="0.25" stroke-linecap="round" stroke-linejoin="round" points="
					268.254,435.02 271.901,432.912 271.901,432.837 272.465,431.687 272.465,431.319 				"/>
				
					<line fill="none" stroke="#000000" stroke-width="0.5" stroke-linecap="round" stroke-linejoin="round" x1="268.254" y1="435.02" x2="271.901" y2="432.912"/>
				
					<line fill="none" stroke="#000000" stroke-width="0.25" stroke-linecap="round" stroke-linejoin="round" x1="271.901" y1="432.837" x2="288.524" y2="442.433"/>
				
					<line fill="none" stroke="#000000" stroke-width="0.25" stroke-linecap="round" stroke-linejoin="round" x1="272.465" y1="431.687" x2="287.995" y2="440.653"/>
				
					<line fill="none" stroke="#000000" stroke-width="0.25" stroke-linecap="round" stroke-linejoin="round" x1="272.651" y1="427.973" x2="288.524" y2="437.136"/>
				
					<line fill="none" stroke="#000000" stroke-width="0.25" stroke-linecap="round" stroke-linejoin="round" x1="272.651" y1="425.373" x2="287.995" y2="434.23"/>
				
					<line fill="none" stroke="#000000" stroke-width="0.25" stroke-linecap="round" stroke-linejoin="round" x1="272.651" y1="431.796" x2="272.651" y2="427.973"/>
				
					<line fill="none" stroke="#000000" stroke-width="0.25" stroke-linecap="round" stroke-linejoin="round" x1="272.651" y1="425.373" x2="272.651" y2="421.875"/>
				
					<line fill="none" stroke="#000000" stroke-width="0.25" stroke-linecap="round" stroke-linejoin="round" x1="269.87" y1="420.268" x2="271.213" y2="421.044"/>
				
					<line fill="none" stroke="#000000" stroke-width="0.25" stroke-linecap="round" stroke-linejoin="round" x1="271.901" y1="431.249" x2="271.901" y2="422.014"/>
				<path fill="none" stroke="#000000" stroke-width="0.25" stroke-linecap="round" stroke-linejoin="round" d="M272.651,431.796
					c0,0,1.455-2.619,0-3.822"/>
				<path fill="none" stroke="#000000" stroke-width="0.25" stroke-linecap="round" stroke-linejoin="round" d="M272.651,425.373
					c0,0,1.07-1.928,0.457-3.234"/>
				<path fill="none" stroke="#000000" stroke-width="0.25" stroke-linecap="round" stroke-linejoin="round" d="M276.247,430.045
					c0.296,0.172,0.595,0.212,0.82,0.079c0.313-0.18,0.41-0.636,0.291-1.15c-0.051-0.219-0.139-0.447-0.268-0.672
					c-0.218-0.375-0.504-0.662-0.791-0.822l-0.832-0.482c-0.287-0.159-0.576-0.196-0.802-0.067
					c-0.442,0.258-0.452,1.074-0.021,1.824c0.211,0.364,0.49,0.647,0.77,0.811L276.247,430.045z"/>
				<path fill="none" stroke="#000000" stroke-width="0.5" stroke-linecap="round" stroke-linejoin="round" d="M277.067,430.124
					c0.313-0.18,0.41-0.636,0.291-1.15c-0.051-0.219-0.139-0.447-0.268-0.672c-0.218-0.375-0.504-0.662-0.791-0.822l-0.832-0.482
					c-0.287-0.159-0.576-0.196-0.802-0.067"/>
				<path fill="none" stroke="#000000" stroke-width="0.25" stroke-linecap="round" stroke-linejoin="round" d="M275.595,427.07
					c-0.109,0.228-0.064,0.599,0.135,0.943c0.129,0.223,0.297,0.395,0.469,0.494l0.795,0.459c0.111,0.063,0.222,0.098,0.322,0.098"
					/>
				<path fill="none" stroke="#000000" stroke-width="0.25" stroke-linecap="round" stroke-linejoin="round" d="M275.547,427.041
					c-0.039,0.009-0.074,0.021-0.109,0.041c-0.27,0.156-0.275,0.652-0.012,1.107c0.127,0.223,0.297,0.395,0.467,0.494l0.797,0.461
					c0.178,0.104,0.359,0.129,0.498,0.049c0.055-0.031,0.098-0.076,0.129-0.131c0.018-0.027,0.031-0.059,0.043-0.092"/>
				<path fill="#FFFFFF" stroke="#000000" stroke-width="0.5" stroke-linecap="round" stroke-linejoin="round" d="M275.595,427.07
					c-0.109,0.228-0.064,0.599,0.135,0.943c0.129,0.223,0.297,0.395,0.469,0.494l0.795,0.459c0.111,0.063,0.222,0.098,0.322,0.098
					h0.002c0.017-0.027,0.029-0.059,0.041-0.092c-0.051-0.219-0.139-0.447-0.268-0.672c-0.218-0.375-0.504-0.662-0.791-0.822
					L275.595,427.07z"/>
				<polygon fill="#CCCCCC" stroke="#000000" stroke-width="0.25" stroke-linecap="round" stroke-linejoin="round" points="
					272.397,421.728 268.254,424.113 268.254,422.802 271.256,421.067 				"/>
				
					<line fill="none" stroke="#000000" stroke-width="0.5" stroke-linecap="round" stroke-linejoin="round" x1="290.999" y1="432.466" x2="271.213" y2="421.044"/>
				
					<line fill="none" stroke="#000000" stroke-width="0.5" stroke-linecap="round" stroke-linejoin="round" x1="268.254" y1="424.113" x2="272.397" y2="421.728"/>
				
					<line fill="none" stroke="#000000" stroke-width="0.25" stroke-linecap="round" stroke-linejoin="round" x1="288.321" y1="439.029" x2="288.524" y2="438.912"/>
				<path fill="none" stroke="#000000" stroke-width="0.5" stroke-linecap="round" stroke-linejoin="round" d="M292.374,433.26
					l1.714,0.988c0,0,0.133,0.077,0.133,0.255v2.375"/>
			</g>
			<g>
				<path fill="#F6F6F6" stroke="#000000" stroke-width="0.25" stroke-linecap="round" stroke-linejoin="round" d="M293.769,457.748
					c0.008-0.329-0.098-0.725-0.314-1.104c-0.233-0.406-0.553-0.708-0.862-0.857c-0.258-0.125-0.515-0.144-0.715-0.026
					c-0.441,0.256-0.451,1.063-0.021,1.809c0.43,0.743,1.135,1.14,1.576,0.884C293.647,458.327,293.761,458.068,293.769,457.748z"/>
				<polygon fill="none" stroke="#000000" stroke-width="0.25" stroke-linecap="round" stroke-linejoin="round" points="
					293.448,457.431 292.769,457.039 292.769,456.248 292.538,456.115 292.538,456.906 291.86,456.514 291.86,456.781 
					292.538,457.174 292.538,457.955 292.769,458.091 292.769,457.307 293.448,457.697 				"/>
				
					<line fill="none" stroke="#000000" stroke-width="0.25" stroke-linecap="round" stroke-linejoin="round" x1="293.448" y1="457.697" x2="293.448" y2="457.431"/>
				
					<line fill="none" stroke="#000000" stroke-width="0.25" stroke-linecap="round" stroke-linejoin="round" x1="292.769" y1="458.091" x2="292.769" y2="457.307"/>
				<polyline fill="none" stroke="#000000" stroke-width="0.25" stroke-linecap="round" stroke-linejoin="round" points="
					292.769,457.039 292.769,456.248 292.538,456.115 				"/>
				
					<line fill="none" stroke="#000000" stroke-width="0.25" stroke-linecap="round" stroke-linejoin="round" x1="292.538" y1="456.906" x2="291.86" y2="456.514"/>
				
					<line fill="none" stroke="#000000" stroke-width="0.25" stroke-linecap="round" stroke-linejoin="round" x1="293.448" y1="457.431" x2="292.769" y2="457.039"/>
			</g>
			<g>
				<path fill="#F6F6F6" stroke="#000000" stroke-width="0.25" stroke-linecap="round" stroke-linejoin="round" d="M271.556,417.857
					l24.719,14.271c0,0,0.715,0.411,0.715,1.261v7.315l-1.063,0.613v2.122l0.461,0.247l0.602-0.331v7.293c0,0,0,0.279-0.168,0.377
					l-6.961,4.02c0,0-0.266,0.151-0.461,0.04l-25.057-14.468c0,0-0.156-0.103-0.156-0.313v-17.657c0,0-0.02-0.852,0.303-1.039
					l6.525-3.766C271.015,417.842,271.271,417.693,271.556,417.857z"/>
				
					<line fill="none" stroke="#000000" stroke-width="0.5" stroke-linecap="round" stroke-linejoin="round" x1="296.989" y1="440.704" x2="295.927" y2="441.317"/>
				<path fill="none" stroke="#000000" stroke-linecap="round" stroke-linejoin="round" d="M296.989,443.355v7.293
					c0,0,0,0.279-0.168,0.377l-6.961,4.02c0,0-0.266,0.151-0.461,0.04l-25.057-14.468c0,0-0.156-0.103-0.156-0.313v-17.657
					c0,0-0.021-0.852,0.303-1.039l6.525-3.766c0,0,0.256-0.148,0.541,0.016l24.719,14.271c0,0,0.715,0.411,0.715,1.261V443.355"/>
				<polyline fill="none" stroke="#000000" stroke-width="0.25" stroke-linecap="round" stroke-linejoin="round" points="
					296.989,443.355 295.927,443.969 295.927,441.317 				"/>
				
					<line fill="none" stroke="#000000" stroke-width="0.5" stroke-linecap="round" stroke-linejoin="round" x1="295.927" y1="443.969" x2="295.927" y2="441.317"/>
				<path fill="none" stroke="#000000" stroke-width="0.25" stroke-linecap="round" stroke-linejoin="round" d="M264.187,422.773
					c0,0,0,1.775,0.494,2.063l22.867,13.2"/>
				<path fill="none" stroke="#000000" stroke-width="0.25" stroke-linecap="round" stroke-linejoin="round" d="M289.11,454.918
					c-1.072-0.619-1.563-1.563-1.563-1.563l-22.867-13.202v-15.315"/>
				
					<line fill="none" stroke="#000000" stroke-width="0.25" stroke-linecap="round" stroke-linejoin="round" x1="287.549" y1="453.354" x2="287.549" y2="438.036"/>
				
					<line fill="none" stroke="#000000" stroke-width="0.25" stroke-linecap="round" stroke-linejoin="round" x1="287.549" y1="438.036" x2="289.633" y2="436.832"/>
				
					<line fill="none" stroke="#000000" stroke-width="0.25" stroke-linecap="round" stroke-linejoin="round" x1="264.825" y1="421.58" x2="289.685" y2="435.932"/>
				
					<line fill="none" stroke="#000000" stroke-width="0.25" stroke-linecap="round" stroke-linejoin="round" x1="290.54" y1="454.65" x2="290.54" y2="436.996"/>
				
					<line fill="none" stroke="#000000" stroke-width="0.25" stroke-linecap="round" stroke-linejoin="round" x1="289.685" y1="435.932" x2="295.927" y2="432.328"/>
				
					<line fill="none" stroke="#000000" stroke-width="0.25" stroke-linecap="round" stroke-linejoin="round" x1="290.54" y1="436.996" x2="296.415" y2="433.604"/>
				<g>
					<path fill="#2B2523" d="M279.103,435.89l-0.201-0.117l-0.082-0.339l-0.367-0.213l-0.075,0.248l-0.199-0.113l0.358-1.082
						l0.197,0.113L279.103,435.89z M278.761,435.182l-0.127-0.552l-0.125,0.405L278.761,435.182z"/>
					<path fill="#2B2523" d="M279.155,435.5l0.183,0.08c0.01,0.093,0.032,0.166,0.065,0.227c0.033,0.059,0.078,0.104,0.135,0.138
						c0.06,0.034,0.105,0.043,0.136,0.024s0.047-0.05,0.047-0.099c0-0.029-0.008-0.06-0.021-0.089
						c-0.014-0.028-0.034-0.061-0.067-0.095c-0.021-0.022-0.07-0.07-0.148-0.142c-0.1-0.094-0.17-0.177-0.211-0.25
						c-0.057-0.104-0.084-0.206-0.084-0.309c0-0.065,0.014-0.119,0.039-0.161c0.027-0.042,0.066-0.063,0.115-0.063
						c0.051-0.001,0.11,0.02,0.182,0.061c0.117,0.066,0.203,0.152,0.262,0.257c0.06,0.105,0.091,0.218,0.093,0.337l-0.187-0.096
						c-0.008-0.071-0.024-0.128-0.051-0.172c-0.027-0.045-0.066-0.082-0.119-0.112s-0.096-0.04-0.127-0.026
						c-0.02,0.009-0.029,0.029-0.029,0.063c0,0.03,0.011,0.063,0.027,0.094c0.023,0.041,0.082,0.104,0.172,0.187
						s0.158,0.152,0.201,0.209s0.076,0.12,0.102,0.188c0.026,0.069,0.037,0.146,0.037,0.228c0,0.073-0.016,0.135-0.045,0.183
						s-0.07,0.071-0.123,0.071c-0.055,0.001-0.121-0.021-0.201-0.068c-0.116-0.066-0.207-0.155-0.27-0.269
						C279.204,435.782,279.168,435.65,279.155,435.5z"/>
					<path fill="#2B2523" d="M280.015,435.996l0.182,0.08c0.01,0.093,0.033,0.166,0.066,0.227c0.033,0.059,0.078,0.104,0.135,0.138
						c0.062,0.035,0.105,0.043,0.135,0.024c0.031-0.018,0.047-0.051,0.047-0.099c0-0.029-0.008-0.06-0.02-0.089
						c-0.014-0.028-0.035-0.06-0.066-0.095c-0.022-0.022-0.071-0.07-0.149-0.143c-0.101-0.093-0.17-0.176-0.209-0.25
						c-0.058-0.104-0.086-0.205-0.086-0.308c0-0.066,0.014-0.119,0.041-0.161c0.024-0.042,0.063-0.063,0.112-0.063
						c0.052-0.001,0.111,0.02,0.183,0.061c0.117,0.066,0.203,0.152,0.262,0.257c0.059,0.105,0.09,0.218,0.094,0.337l-0.188-0.096
						c-0.008-0.071-0.025-0.128-0.051-0.172c-0.027-0.045-0.066-0.082-0.119-0.112c-0.054-0.03-0.097-0.04-0.127-0.026
						c-0.021,0.01-0.029,0.029-0.029,0.063c0,0.03,0.01,0.063,0.027,0.095c0.024,0.041,0.082,0.104,0.172,0.186
						s0.158,0.151,0.201,0.209c0.043,0.057,0.077,0.12,0.102,0.189c0.025,0.068,0.037,0.146,0.037,0.227
						c0,0.074-0.014,0.135-0.043,0.183c-0.031,0.048-0.072,0.071-0.125,0.071c-0.055,0.001-0.121-0.021-0.201-0.068
						c-0.117-0.066-0.207-0.155-0.27-0.269C280.063,436.278,280.026,436.146,280.015,435.996z"/>
					<path fill="#2B2523" d="M281.754,437.42l-0.201-0.116l-0.082-0.34l-0.369-0.214l-0.076,0.249l-0.197-0.113l0.359-1.082
						l0.197,0.114L281.754,437.42z M281.411,436.713l-0.127-0.554l-0.125,0.407L281.411,436.713z"/>
					<path fill="#2B2523" d="M282.946,438.107l-0.203-0.116l-0.08-0.34l-0.368-0.213l-0.076,0.249l-0.197-0.114l0.359-1.082
						l0.196,0.114L282.946,438.107z M282.603,437.4l-0.127-0.553l-0.123,0.407L282.603,437.4z"/>
					<path fill="#2B2523" d="M283.047,436.877l0.368,0.213c0.072,0.042,0.128,0.078,0.162,0.106
						c0.037,0.029,0.068,0.065,0.099,0.108c0.026,0.044,0.051,0.093,0.069,0.147c0.02,0.056,0.027,0.112,0.027,0.167
						c0,0.062-0.01,0.109-0.033,0.146c-0.022,0.037-0.057,0.057-0.096,0.06c0.057,0.056,0.1,0.119,0.129,0.191
						c0.031,0.072,0.047,0.146,0.047,0.22c0,0.06-0.01,0.11-0.029,0.155c-0.02,0.044-0.047,0.072-0.079,0.086
						c-0.035,0.014-0.076,0.01-0.125-0.011c-0.031-0.015-0.107-0.056-0.226-0.121l-0.313-0.183V436.877z M283.231,437.198v0.298
						l0.123,0.07c0.072,0.042,0.117,0.066,0.135,0.074c0.031,0.013,0.058,0.013,0.076-0.003c0.018-0.016,0.027-0.043,0.027-0.085
						c0-0.04-0.009-0.077-0.023-0.111c-0.018-0.033-0.039-0.063-0.07-0.085c-0.02-0.014-0.071-0.046-0.159-0.097L283.231,437.198z
						 M283.231,437.712v0.345l0.174,0.1c0.066,0.038,0.109,0.062,0.127,0.065c0.027,0.01,0.052,0.005,0.068-0.013
						c0.018-0.018,0.024-0.05,0.024-0.095c0-0.039-0.006-0.075-0.02-0.109s-0.033-0.065-0.059-0.094
						c-0.025-0.025-0.08-0.063-0.166-0.112L283.231,437.712z"/>
					<path fill="#2B2523" d="M283.981,438.705v-1.277l0.187,0.106v1.063l0.463,0.267v0.218L283.981,438.705z"/>
					<path fill="#2B2523" d="M284.726,438.498c0-0.131,0.014-0.232,0.041-0.307c0.021-0.053,0.051-0.096,0.088-0.127
						c0.035-0.031,0.074-0.047,0.119-0.047c0.057-0.001,0.123,0.021,0.197,0.063c0.137,0.079,0.246,0.2,0.325,0.365
						c0.082,0.165,0.123,0.354,0.123,0.563c0,0.208-0.041,0.348-0.121,0.418c-0.082,0.07-0.188,0.066-0.323-0.012
						c-0.14-0.079-0.246-0.199-0.328-0.364C284.767,438.888,284.726,438.703,284.726,438.498z M284.918,438.6
						c0,0.146,0.024,0.271,0.071,0.374c0.049,0.104,0.109,0.177,0.185,0.22c0.073,0.042,0.137,0.04,0.184-0.007
						c0.047-0.048,0.07-0.146,0.07-0.295c0-0.149-0.021-0.271-0.068-0.371s-0.106-0.172-0.186-0.216
						c-0.076-0.045-0.14-0.043-0.187,0.003S284.918,438.452,284.918,438.6z"/>
					<path fill="#2B2523" d="M286.01,439.875v-0.541l-0.34-0.942l0.219,0.126l0.217,0.636l0.213-0.388l0.215,0.124l-0.338,0.553
						v0.541L286.01,439.875z"/>
				</g>
				<g>
					<path fill="#13110C" d="M267.797,439.416c0.223,0.495,0.6,0.956,1.026,1.202c0.099,0.059,0.197,0.103,0.291,0.131v-0.226
						c-0.094-0.024-0.19-0.065-0.291-0.122c-0.311-0.18-0.59-0.493-0.778-0.844L267.797,439.416z"/>
					<path fill="#13110C" d="M266.942,438.661v-0.064c-0.049,0.024-0.094,0.021-0.176-0.026c-0.08-0.047-0.135-0.1-0.174-0.167
						c-0.035-0.058-0.054-0.124-0.054-0.187c0-0.121,0.076-0.164,0.228-0.078l0.172,0.1v-0.052c0-0.091-0.041-0.159-0.143-0.219
						c-0.072-0.042-0.107-0.042-0.144-0.013l-0.088-0.14c0.063-0.045,0.127-0.031,0.236,0.031c0.178,0.103,0.27,0.239,0.27,0.403
						v0.484L266.942,438.661z M266.938,438.34l-0.152-0.088c-0.078-0.046-0.116-0.029-0.116,0.036s0.036,0.124,0.118,0.173
						c0.052,0.028,0.089,0.047,0.123,0.028c0.021-0.011,0.027-0.04,0.027-0.092V438.34L266.938,438.34z"/>
					<path fill="#13110C" d="M267.642,439.01c-0.035,0.02-0.092,0.011-0.158-0.027c-0.07-0.04-0.123-0.091-0.172-0.182v0.368
						l-0.131-0.076v-1.021l0.129,0.075v0.077c0.049-0.038,0.102-0.027,0.172,0.014c0.066,0.038,0.125,0.097,0.16,0.156
						c0.066,0.111,0.074,0.238,0.074,0.35C267.717,438.854,267.709,438.975,267.642,439.01 M267.448,438.35
						c-0.119-0.068-0.137,0.033-0.137,0.162s0.018,0.252,0.137,0.319c0.119,0.068,0.138-0.033,0.138-0.162
						C267.586,438.54,267.567,438.419,267.448,438.35"/>
					<path fill="#13110C" d="M267.926,438.909c0,0.124,0.061,0.237,0.168,0.3c0.071,0.043,0.11,0.041,0.158,0.018l0.084,0.135
						c-0.068,0.036-0.132,0.039-0.246-0.026c-0.164-0.096-0.293-0.268-0.293-0.542c0-0.234,0.108-0.309,0.276-0.212
						c0.176,0.103,0.277,0.304,0.277,0.51v0.063L267.926,438.909z M268.202,438.868c-0.021-0.066-0.067-0.131-0.129-0.166
						c-0.063-0.036-0.108-0.025-0.131,0.018c-0.014,0.024-0.016,0.045-0.018,0.088l0.295,0.17
						C268.219,438.932,268.215,438.908,268.202,438.868"/>
					<path fill="#13110C" d="M268.819,439.19c-0.029-0.051-0.053-0.08-0.098-0.105c-0.072-0.041-0.131-0.012-0.131,0.089v0.439
						l-0.132-0.076v-0.726l0.13,0.075v0.078c0.032-0.032,0.1-0.028,0.174,0.014c0.063,0.036,0.11,0.082,0.156,0.159L268.819,439.19z
						"/>
					<path fill="#13110C" d="M268.985,438.818l0.133,0.076v0.154l-0.133-0.076V438.818z M268.987,439.116l0.131,0.076v0.727
						l-0.131-0.076V439.116z"/>
					<path fill="#13110C" d="M269.7,440.177c-0.043,0.023-0.106,0.023-0.194-0.026c-0.091-0.052-0.154-0.125-0.195-0.199
						c-0.063-0.105-0.078-0.207-0.078-0.33c0-0.122,0.016-0.203,0.078-0.239c0.041-0.024,0.104-0.024,0.195,0.025
						c0.088,0.053,0.151,0.125,0.194,0.199c0.062,0.107,0.076,0.207,0.076,0.33C269.776,440.058,269.761,440.141,269.7,440.177
						 M269.601,439.635c-0.025-0.041-0.059-0.075-0.096-0.099c-0.039-0.021-0.072-0.025-0.097-0.013
						c-0.041,0.021-0.045,0.094-0.045,0.173c0,0.078,0.004,0.157,0.045,0.226c0.023,0.041,0.058,0.074,0.097,0.098
						c0.037,0.021,0.069,0.026,0.096,0.014c0.041-0.021,0.045-0.096,0.045-0.173C269.646,439.78,269.642,439.701,269.601,439.635"/>
					<path fill="#13110C" d="M266.409,437.329c0.254-0.613,0.912-0.774,1.685-0.329c0.438,0.253,0.85,0.67,1.168,1.155v0.001
						c-0.14-0.139-0.287-0.257-0.441-0.346c-0.533-0.308-0.99-0.192-1.16,0.237l0.211,0.123c0.16-0.314,0.525-0.388,0.949-0.144
						c0.416,0.24,0.789,0.733,0.951,1.241l0.213,0.122c-0.268-1.053-1.033-2.115-1.891-2.611c-0.881-0.508-1.629-0.303-1.894,0.43
						L266.409,437.329z"/>
					<polygon fill="#13110C" points="269.815,439.46 269.815,439.582 269.79,439.566 269.79,439.443 269.756,439.425 
						269.756,439.397 269.851,439.453 269.851,439.479 					"/>
					<polygon fill="#13110C" points="269.967,439.669 269.967,439.582 269.94,439.623 269.924,439.612 269.897,439.543 
						269.897,439.63 269.872,439.613 269.872,439.466 269.897,439.48 269.933,439.58 269.969,439.521 269.993,439.535 
						269.993,439.684 					"/>
				</g>
			</g>
			<g>
				<g>
					<g>
						<path fill="#F6F6F6" stroke="#000000" stroke-width="0.5" stroke-linecap="round" stroke-linejoin="round" d="M201.836,352.49
							c0.107-0.06,0.246-0.054,0.398,0.035l5.152,2.975c0.339,0.195,0.612,0.722,0.612,1.173v5.725c0,0.251-0.085,0.427-0.218,0.5
							l-0.723,0.417c-0.106,0.058-0.246,0.053-0.396-0.036l-5.15-2.974c-0.34-0.196-0.613-0.722-0.613-1.172v-5.726
							c0-0.249,0.083-0.425,0.215-0.499L201.836,352.49z"/>
						<path fill="none" stroke="#000000" stroke-width="0.25" stroke-linecap="round" stroke-linejoin="round" d="M201.511,360.304
							c-0.34-0.196-0.613-0.722-0.613-1.172v-5.726c0-0.249,0.083-0.425,0.215-0.499c0.108-0.062,0.247-0.053,0.398,0.034
							l5.15,2.974c0.339,0.197,0.614,0.723,0.614,1.174v5.725c0,0.252-0.084,0.428-0.218,0.5c-0.106,0.058-0.246,0.053-0.396-0.036
							L201.511,360.304z"/>
						<path fill="#F6F6F6" stroke="#000000" stroke-width="0.25" stroke-linecap="round" stroke-linejoin="round" d="
							M201.294,360.324c-0.288-0.166-0.521-0.612-0.521-0.998v-4.865c0-0.214,0.071-0.361,0.184-0.425
							c0.091-0.05,0.209-0.044,0.338,0.03l4.379,2.527c0.288,0.167,0.521,0.612,0.521,0.997v4.865c0,0.215-0.072,0.363-0.185,0.427
							c-0.092,0.049-0.209,0.044-0.338-0.03L201.294,360.324z"/>
						<path fill="none" stroke="#000000" stroke-width="0.5" stroke-linecap="round" stroke-linejoin="round" d="M205.988,362.89
							l0.674,0.389c0.15,0.088,0.289,0.094,0.396,0.036l0.723-0.417c0.133-0.073,0.218-0.249,0.218-0.5v-5.725
							c0-0.451-0.273-0.978-0.612-1.172l-5.152-2.976c-0.152-0.088-0.291-0.095-0.398-0.035l-0.724,0.418
							c-0.132,0.073-0.215,0.25-0.215,0.499v0.68c-0.078,0.075-0.125,0.202-0.125,0.375v4.865c0,0.385,0.232,0.832,0.521,0.998
							l4.379,2.528C205.792,362.921,205.901,362.928,205.988,362.89z"/>
						<path fill="none" stroke="#000000" stroke-width="0.25" stroke-linecap="round" stroke-linejoin="round" d="M200.957,354.036
							c0,0,0.354-0.271,0.245-0.824"/>
						<path fill="none" stroke="#000000" stroke-width="0.25" stroke-linecap="round" stroke-linejoin="round" d="M206.01,362.883
							c0,0,0.41-0.172,0.836,0.198"/>
						<g>
							
								<ellipse transform="matrix(0.5008 0.8656 -0.8656 0.5008 409.4767 1.445)" fill="none" stroke="#000000" stroke-width="0.25" stroke-linecap="round" stroke-linejoin="round" cx="203.486" cy="355.712" rx="0.463" ry="0.287"/>
							<path fill="none" stroke="#000000" stroke-width="0.25" stroke-linecap="round" stroke-linejoin="round" d="M203.252,355.31
								c0.138-0.079,0.353,0.037,0.479,0.258c0.128,0.223,0.121,0.466-0.018,0.545"/>
						</g>
						<g>
							
								<ellipse transform="matrix(0.5008 0.8656 -0.8656 0.5008 411.8417 2.8327)" cx="203.465" cy="358.456" rx="0.463" ry="0.286"/>
						</g>
						<g>
							
								<ellipse transform="matrix(0.4999 0.8661 -0.8661 0.4999 414.4995 4.3292)" fill="none" stroke="#000000" stroke-width="0.25" stroke-linecap="round" stroke-linejoin="round" cx="203.501" cy="361.072" rx="0.464" ry="0.286"/>
							<path fill="none" stroke="#000000" stroke-width="0.25" stroke-linecap="round" stroke-linejoin="round" d="M203.252,360.66
								c0.138-0.078,0.353,0.037,0.48,0.26c0.126,0.222,0.12,0.466-0.018,0.544"/>
						</g>
					</g>
				</g>
				<g>
					<polygon fill="#F6F6F6" stroke="#000000" stroke-width="0.25" stroke-linecap="round" stroke-linejoin="round" points="
						184.369,485.404 184.369,369.555 224.529,392.745 224.529,508.593 					"/>
					<polyline fill="none" stroke="#000000" stroke-width="0.5" stroke-linecap="round" stroke-linejoin="round" points="
						224.529,508.593 224.529,392.745 184.369,369.555 					"/>
					<g>
						<path fill="none" d="M190.714,442.201c-0.221,0.381-0.588,0.578-0.819,0.441c-0.236-0.137-0.248-0.551-0.031-0.937
							c0.221-0.377,0.588-0.573,0.824-0.438C190.921,441.402,190.933,441.822,190.714,442.201z"/>
					</g>
				</g>
				
					<line fill="none" stroke="#000000" stroke-width="0.5" stroke-linecap="round" stroke-linejoin="round" x1="235.56" y1="514.844" x2="172.007" y2="478.171"/>
				<g>
					<path fill="#FFFFFF" stroke="#000000" stroke-width="0.25" stroke-linecap="round" stroke-linejoin="round" d="M188.365,430.16
						v14.613c0,0.262-0.098,0.447-0.26,0.541l-0.435,0.254c-0.194,0.113-0.485,0.09-0.809-0.096c-0.588-0.342-1.066-1.09-1.066-1.68
						v-14.771l0.509-0.697l1.883,1.088v0.648L188.365,430.16z"/>
					<path fill="none" stroke="#000000" stroke-width="0.25" stroke-linecap="round" stroke-linejoin="round" d="M187.929,430.837
						v14.188c0,0.264-0.101,0.451-0.259,0.545c-0.194,0.113-0.485,0.09-0.809-0.096c-0.588-0.342-1.066-1.09-1.066-1.68v-14.771"/>
					<path fill="#FFFFFF" stroke="#000000" stroke-width="0.25" stroke-linecap="round" stroke-linejoin="round" d="
						M188.187,430.061c-0.104,0.059-0.205,0.162-0.279,0.295c-0.082,0.137-0.119,0.279-0.117,0.4h0.002v4.254
						c0,0.229-0.084,0.393-0.221,0.475l-0.598,0.346c-0.17,0.103-0.425,0.08-0.707-0.084c-0.515-0.291-0.931-0.948-0.931-1.463V430
						c-0.006-0.29,0.088-0.633,0.275-0.956c0.186-0.328,0.438-0.576,0.691-0.72l1.883,1.088L188.187,430.061L188.187,430.061z"/>
					<path fill="none" stroke="#000000" stroke-width="0.5" stroke-linecap="round" stroke-linejoin="round" d="M187.572,435.484
						l-0.598,0.346c-0.17,0.103-0.425,0.08-0.707-0.084c-0.515-0.291-0.931-0.948-0.931-1.463V430
						c-0.006-0.29,0.088-0.633,0.275-0.956c0.186-0.328,0.438-0.576,0.691-0.72"/>
					<path fill="none" stroke="#000000" stroke-width="0.25" stroke-linecap="round" stroke-linejoin="round" d="M187.572,435.484
						l-0.598,0.346c-0.17,0.103-0.425,0.08-0.707-0.084c-0.515-0.291-0.931-0.948-0.931-1.463V430
						c-0.006-0.29,0.088-0.633,0.275-0.956c0.186-0.328,0.438-0.576,0.691-0.72l1.883,1.088v0.648"/>
					<path fill="none" stroke="#000000" stroke-width="0.25" stroke-linecap="round" stroke-linejoin="round" d="M187.344,441.13
						c0-0.267-0.216-0.604-0.48-0.759c-0.266-0.155-0.484-0.065-0.484,0.203c0,0.168,0.091,0.365,0.22,0.527v0.691
						c0,0.145,0.121,0.327,0.266,0.413c0.146,0.085,0.262,0.035,0.262-0.11v-0.688C187.257,441.396,187.344,441.3,187.344,441.13z"
						/>
					<path fill="none" d="M186.88,431.302c0,0.34-0.276,0.455-0.612,0.26c-0.343-0.193-0.615-0.627-0.615-0.965
						c0-0.342,0.272-0.455,0.615-0.262C186.603,430.529,186.88,430.964,186.88,431.302z"/>
					<g>
						<path d="M185.582,434.434l-0.041-0.023l-0.018-0.065l-0.078-0.045l-0.014,0.045l-0.045-0.025l0.077-0.199l0.043,0.025
							L185.582,434.434z M185.513,434.296l-0.027-0.105l-0.027,0.074L185.513,434.296z"/>
						<path d="M185.595,434.359l0.036,0.019c0.002,0.018,0.009,0.032,0.017,0.045c0.006,0.01,0.014,0.021,0.026,0.026
							c0.015,0.008,0.023,0.008,0.027,0.006c0.006-0.002,0.01-0.012,0.01-0.018s-0.002-0.012-0.004-0.016
							c-0.002-0.009-0.008-0.013-0.014-0.021c-0.004-0.006-0.016-0.016-0.029-0.031c-0.024-0.016-0.037-0.032-0.047-0.049
							c-0.014-0.02-0.018-0.039-0.018-0.061c0-0.01,0.002-0.023,0.01-0.029c0.004-0.006,0.014-0.012,0.022-0.01
							c0.009,0,0.021,0.004,0.037,0.012c0.025,0.017,0.043,0.035,0.056,0.053c0.014,0.021,0.02,0.043,0.02,0.068l-0.037-0.023
							c-0.002-0.016-0.008-0.024-0.012-0.032c-0.006-0.008-0.014-0.017-0.025-0.023c-0.01-0.006-0.02-0.006-0.026-0.006
							c-0.004,0.002-0.006,0.006-0.006,0.014c0,0.004,0.002,0.011,0.004,0.017c0.008,0.008,0.02,0.02,0.039,0.039
							c0.018,0.018,0.03,0.028,0.043,0.041c0.008,0.012,0.016,0.022,0.021,0.034c0.004,0.017,0.008,0.029,0.008,0.046
							c0,0.014-0.006,0.026-0.01,0.034c-0.008,0.011-0.018,0.013-0.029,0.013c-0.008,0-0.022-0.007-0.039-0.017
							c-0.024-0.016-0.045-0.033-0.057-0.055C185.603,434.414,185.597,434.391,185.595,434.359z"/>
						<path d="M185.777,434.468l0.035,0.016c0.006,0.019,0.008,0.033,0.014,0.043c0.01,0.012,0.019,0.021,0.031,0.029
							c0.012,0.006,0.021,0.008,0.026,0.004c0.009-0.002,0.011-0.008,0.011-0.016c0-0.007-0.002-0.013-0.004-0.019
							s-0.009-0.012-0.017-0.02c-0.002-0.007-0.014-0.015-0.028-0.027c-0.021-0.021-0.037-0.035-0.048-0.053
							c-0.01-0.019-0.016-0.039-0.016-0.06c0-0.012,0.002-0.022,0.01-0.028c0.004-0.009,0.015-0.013,0.021-0.013
							c0.012,0,0.022,0.006,0.037,0.017c0.024,0.014,0.045,0.028,0.059,0.051c0.012,0.02,0.016,0.043,0.021,0.063l-0.039-0.02
							c-0.002-0.016-0.009-0.025-0.015-0.035c-0.004-0.008-0.012-0.016-0.024-0.021c-0.011-0.007-0.021-0.011-0.025-0.007
							c-0.004,0-0.006,0.007-0.006,0.013s0.002,0.012,0.006,0.016c0.006,0.01,0.019,0.021,0.035,0.041
							c0.021,0.014,0.035,0.027,0.043,0.039s0.018,0.025,0.02,0.037c0.009,0.016,0.011,0.029,0.011,0.045
							c0,0.014-0.004,0.025-0.011,0.033c-0.004,0.012-0.014,0.014-0.022,0.014c-0.012,0-0.027-0.006-0.043-0.016
							c-0.025-0.015-0.045-0.033-0.06-0.058C185.785,434.518,185.779,434.494,185.777,434.468z"/>
						<path d="M186.142,434.755l-0.041-0.023l-0.019-0.063l-0.078-0.044l-0.018,0.044l-0.041-0.023l0.076-0.199l0.041,0.023
							L186.142,434.755z M186.068,434.615l-0.025-0.104l-0.024,0.076L186.068,434.615z"/>
						<path d="M186.392,434.902l-0.041-0.024l-0.019-0.066l-0.078-0.047l-0.016,0.047l-0.041-0.021l0.074-0.2l0.043,0.022
							L186.392,434.902z M186.32,434.764l-0.025-0.109l-0.026,0.076L186.32,434.764z"/>
						<path d="M186.416,434.666l0.074,0.048c0.018,0.01,0.027,0.016,0.037,0.022c0.004,0.004,0.014,0.014,0.018,0.021
							c0.009,0.006,0.015,0.018,0.019,0.028c0.002,0.011,0.006,0.021,0.006,0.031s-0.004,0.021-0.008,0.027
							c-0.006,0.008-0.01,0.012-0.021,0.012c0.013,0.01,0.021,0.021,0.027,0.035c0.004,0.016,0.008,0.029,0.008,0.043
							c0,0.012,0,0.021-0.006,0.027c-0.004,0.01-0.01,0.016-0.018,0.018c-0.009,0.002-0.015,0-0.023-0.006
							c-0.01,0-0.025-0.01-0.049-0.023l-0.064-0.039V434.666z M186.455,434.73v0.059l0.025,0.017
							c0.014,0.006,0.022,0.014,0.026,0.016c0.009,0.002,0.013,0.002,0.021,0c0.002-0.002,0.002-0.01,0.002-0.016
							c0-0.008,0-0.017-0.002-0.021c-0.008-0.008-0.01-0.014-0.019-0.02c-0.006,0-0.016-0.01-0.034-0.021L186.455,434.73z
							 M186.455,434.828v0.064l0.035,0.022c0.014,0.009,0.023,0.013,0.027,0.015c0.002,0.002,0.01,0,0.014-0.002
							c0-0.004,0.006-0.01,0.006-0.019c0-0.008-0.006-0.014-0.006-0.02c-0.002-0.01-0.004-0.015-0.012-0.021
							c-0.004-0.004-0.017-0.012-0.033-0.021L186.455,434.828z"/>
						<path d="M186.611,435.027v-0.244l0.043,0.023v0.201l0.094,0.055v0.041L186.611,435.027z"/>
						<path d="M186.769,434.996c0-0.022,0.002-0.043,0.006-0.059c0.008-0.008,0.012-0.016,0.021-0.021
							c0.004-0.006,0.015-0.008,0.025-0.008c0.008,0,0.025,0.004,0.037,0.017c0.029,0.014,0.055,0.039,0.07,0.069
							c0.018,0.035,0.024,0.068,0.024,0.109c0,0.043-0.008,0.068-0.024,0.078c-0.017,0.012-0.037,0.012-0.066-0.006
							c-0.029-0.017-0.053-0.041-0.068-0.074C186.775,435.072,186.769,435.035,186.769,434.996z M186.808,435.02
							c0,0.027,0.006,0.049,0.016,0.07c0.01,0.021,0.023,0.032,0.035,0.045c0.02,0.008,0.033,0.008,0.043,0
							c0.01-0.011,0.012-0.025,0.012-0.056c0-0.029-0.002-0.053-0.012-0.071c-0.01-0.02-0.023-0.033-0.043-0.043
							c-0.012-0.011-0.025-0.011-0.035-0.002C186.814,434.973,186.808,434.988,186.808,435.02z"/>
						<path d="M187.041,435.273v-0.102l-0.074-0.187l0.046,0.029l0.047,0.121l0.045-0.07l0.045,0.023l-0.07,0.104v0.103
							L187.041,435.273z"/>
					</g>
					<g>
						<path fill="#13110C" d="M186.802,444.677c0.051,0.104,0.137,0.207,0.235,0.264c0.021,0.012,0.043,0.023,0.064,0.029v-0.047
							c-0.021-0.004-0.045-0.017-0.064-0.027c-0.072-0.043-0.137-0.111-0.18-0.187L186.802,444.677z"/>
						<path fill="#13110C" d="M186.609,444.51v-0.015c-0.012,0.011-0.021,0.004-0.039-0.008c-0.021-0.008-0.031-0.018-0.041-0.035
							c-0.01-0.012-0.012-0.024-0.012-0.037c0-0.024,0.014-0.032,0.051-0.014l0.039,0.021v-0.013c0-0.018-0.01-0.032-0.031-0.043
							c-0.016-0.012-0.025-0.012-0.033-0.004l-0.022-0.033c0.018-0.006,0.033-0.004,0.057,0.011
							c0.041,0.022,0.063,0.053,0.063,0.088v0.098L186.609,444.51z M186.607,444.445l-0.035-0.021
							c-0.018-0.009-0.027-0.009-0.027,0.008c0,0.012,0.011,0.024,0.027,0.039c0.012,0.004,0.02,0.008,0.031,0.004
							c0.002-0.002,0.004-0.004,0.004-0.016V444.445z"/>
						<path fill="#13110C" d="M186.769,444.591c-0.008,0.006-0.021,0.004-0.039-0.004c-0.017-0.011-0.027-0.021-0.039-0.039v0.073
							l-0.031-0.018v-0.211l0.031,0.018v0.019c0.012-0.008,0.022-0.006,0.039,0.008c0.014,0.006,0.031,0.018,0.039,0.031
							c0.014,0.021,0.016,0.049,0.016,0.071C186.785,444.562,186.783,444.587,186.769,444.591 M186.722,444.453
							c-0.025-0.016-0.031,0.007-0.031,0.033c0,0.023,0.006,0.051,0.031,0.066c0.028,0.016,0.03-0.004,0.03-0.031
							C186.753,444.496,186.751,444.471,186.722,444.453"/>
						<path fill="#13110C" d="M186.83,444.576c0,0.023,0.019,0.047,0.041,0.063c0.017,0.01,0.023,0.012,0.035,0.008l0.021,0.029
							c-0.015,0.002-0.031,0.002-0.056-0.013c-0.041-0.022-0.069-0.061-0.069-0.114c0-0.05,0.026-0.063,0.065-0.039
							c0.037,0.022,0.063,0.065,0.063,0.108v0.013L186.83,444.576z M186.894,444.57c-0.002-0.012-0.015-0.026-0.027-0.035
							c-0.016-0.01-0.025-0.008-0.031,0c-0.002,0.006-0.002,0.013-0.006,0.021l0.07,0.037
							C186.9,444.582,186.898,444.58,186.894,444.57"/>
						<path fill="#13110C" d="M187.039,444.646c-0.008-0.012-0.014-0.018-0.022-0.023c-0.019-0.01-0.031-0.006-0.031,0.017v0.088
							l-0.031-0.016v-0.146l0.031,0.016v0.017c0.01-0.006,0.022-0.006,0.039,0.004c0.018,0.01,0.024,0.021,0.035,0.035
							L187.039,444.646z"/>
						<path fill="#13110C" d="M187.074,444.57l0.031,0.021v0.03l-0.031-0.018V444.57z M187.078,444.632l0.027,0.02v0.146
							l-0.027-0.019V444.632z"/>
						<path fill="#13110C" d="M187.238,444.857c-0.012,0.006-0.027,0.006-0.045-0.006c-0.021-0.014-0.035-0.029-0.045-0.045
							c-0.015-0.023-0.021-0.043-0.021-0.068c0-0.024,0.006-0.043,0.021-0.047c0.01-0.006,0.022-0.006,0.045,0.008
							c0.018,0.01,0.033,0.027,0.045,0.041c0.014,0.023,0.018,0.043,0.018,0.07C187.255,444.835,187.251,444.852,187.238,444.857
							 M187.214,444.746c-0.006-0.008-0.016-0.016-0.021-0.021c-0.008-0.006-0.019-0.006-0.023-0.006
							c-0.01,0.006-0.01,0.021-0.01,0.037c0,0.018,0,0.032,0.01,0.049c0.007,0.008,0.017,0.016,0.023,0.018
							c0.006,0.008,0.016,0.011,0.021,0.008c0.011-0.008,0.011-0.021,0.011-0.038C187.224,444.779,187.224,444.762,187.214,444.746"
							/>
						<path fill="#13110C" d="M186.488,444.23c0.055-0.121,0.207-0.146,0.383-0.047c0.099,0.059,0.193,0.15,0.267,0.254l0,0
							c-0.031-0.029-0.066-0.055-0.099-0.072c-0.125-0.074-0.229-0.055-0.268,0.029l0.049,0.027c0.037-0.063,0.119-0.07,0.219-0.017
							c0.094,0.058,0.181,0.16,0.213,0.271l0.052,0.026c-0.063-0.221-0.234-0.448-0.433-0.563c-0.201-0.113-0.371-0.08-0.432,0.065
							L186.488,444.23z"/>
						<polygon fill="#13110C" points="187.263,444.714 187.263,444.738 187.257,444.736 187.257,444.71 187.251,444.705 
							187.251,444.699 187.271,444.714 187.271,444.719 						"/>
						<polygon fill="#13110C" points="187.298,444.759 187.298,444.74 187.291,444.748 187.289,444.746 187.281,444.73 
							187.281,444.75 187.275,444.746 187.275,444.718 187.281,444.719 187.291,444.74 187.298,444.727 187.304,444.73 
							187.304,444.762 						"/>
					</g>
					<path fill="none" stroke="#000000" stroke-width="0.25" stroke-linecap="round" stroke-linejoin="round" d="M187.929,430.837
						c-0.002-0.123,0.034-0.267,0.114-0.4c0.076-0.135,0.179-0.236,0.281-0.295"/>
					<path fill="none" stroke="#000000" stroke-width="0.25" stroke-linecap="round" stroke-linejoin="round" d="M187.195,431.064
						c-0.004-0.295,0.088-0.635,0.277-0.963c0.186-0.322,0.436-0.57,0.688-0.713"/>
					<path fill="none" stroke="#000000" stroke-width="0.25" stroke-linecap="round" stroke-linejoin="round" d="M186.859,428.645
						c-0.256,0.143-0.496,0.389-0.682,0.711c-0.15,0.26-0.24,0.529-0.269,0.775h0.002l0,0c-0.213,0-0.354,0.146-0.354,0.405
						c0,0.396,0.315,0.896,0.711,1.119c0.391,0.228,0.707,0.092,0.707-0.297c0-0.268-0.146-0.576-0.354-0.82h-0.002v0.002
						c0.027-0.247,0.115-0.516,0.266-0.774c0.187-0.324,0.429-0.568,0.683-0.713L186.859,428.645z"/>
					<path fill="#FFFFFF" stroke="#000000" stroke-width="0.25" stroke-linecap="round" stroke-linejoin="round" d="
						M189.894,442.645c0.233,0.135,0.602-0.062,0.819-0.443c0.222-0.379,0.207-0.799-0.026-0.932l-4.494-2.592
						c-0.121-0.07-0.201-0.133-0.244-0.172l0,0c0.029-0.037,0.068-0.078,0.113-0.113l0,0c0.039-0.037,0.08-0.063,0.104-0.08l0,0
						c0.015-0.012,0.023-0.014,0.025-0.02l0,0l0,0l0,0c0.004,0,0.004,0,0.004,0l0,0l1.064-0.611
						c0.231-0.135,0.243-0.553,0.024-0.933c-0.219-0.381-0.586-0.579-0.822-0.442l-1.063,0.617l0,0l0,0
						c-0.033,0.018-0.244,0.143-0.49,0.375l0,0c-0.123,0.116-0.256,0.266-0.371,0.463l0,0c-0.11,0.194-0.209,0.451-0.211,0.756l0,0
						c-0.002,0.303,0.109,0.629,0.307,0.885l0,0c0.191,0.258,0.447,0.463,0.767,0.646L189.894,442.645z"/>
					<path fill="none" stroke="#000000" stroke-width="0.5" stroke-linecap="round" stroke-linejoin="round" d="M186.464,436.307
						l-1.063,0.617l0,0l0,0c-0.033,0.018-0.244,0.143-0.49,0.375l0,0c-0.123,0.116-0.256,0.266-0.371,0.463l0,0
						c-0.11,0.194-0.209,0.451-0.211,0.756l0,0c-0.002,0.303,0.109,0.629,0.308,0.885l0,0c0.19,0.258,0.446,0.463,0.766,0.646
						l4.492,2.596c0.233,0.135,0.602-0.061,0.819-0.443c0.222-0.379,0.207-0.799-0.026-0.932l-4.494-2.592
						c-0.121-0.07-0.201-0.133-0.244-0.172l0,0c0.029-0.037,0.068-0.078,0.113-0.113l0,0c0.039-0.037,0.08-0.063,0.104-0.08l0,0
						c0.015-0.012,0.023-0.014,0.025-0.02l0,0l0,0l0,0c0.004,0,0.004,0,0.004,0l0,0l1.064-0.611"/>
					<path fill="none" stroke="#000000" stroke-width="0.25" stroke-linecap="round" stroke-linejoin="round" d="M190.687,441.27
						l-2.322-1.342v-9.769l-0.178-0.1v-0.648l-1.883-1.088c-0.255,0.144-0.507,0.392-0.691,0.719
						c-0.188,0.324-0.281,0.666-0.275,0.957v4.283c0,0.342,0.187,0.748,0.459,1.068v1.342l-0.395,0.23l0,0
						c-0.033,0.018-0.244,0.143-0.49,0.375c-0.123,0.116-0.256,0.266-0.371,0.463c-0.11,0.194-0.209,0.451-0.211,0.756
						c-0.002,0.303,0.109,0.629,0.308,0.885c0.19,0.258,0.446,0.463,0.766,0.646l0.395,0.229v3.516c0,0.591,0.479,1.339,1.066,1.681
						c0.322,0.186,0.613,0.209,0.809,0.096l0.435-0.254c0.162-0.094,0.26-0.279,0.26-0.541v-3.014l1.529,0.885
						c0.233,0.135,0.602-0.062,0.819-0.443C190.935,441.822,190.921,441.402,190.687,441.27z"/>
					<path fill="none" stroke="#000000" stroke-width="0.5" stroke-linecap="round" stroke-linejoin="round" d="M186.304,428.324
						c-0.255,0.144-0.507,0.392-0.691,0.72c-0.188,0.323-0.281,0.665-0.275,0.956v4.283c0,0.342,0.187,0.748,0.459,1.068v1.342
						l-0.395,0.23l0,0c-0.033,0.018-0.244,0.143-0.49,0.375c-0.123,0.116-0.256,0.266-0.371,0.463
						c-0.11,0.194-0.209,0.451-0.211,0.756c-0.002,0.303,0.109,0.629,0.308,0.885c0.19,0.258,0.446,0.463,0.766,0.646l0.395,0.229
						v3.517c0,0.59,0.479,1.338,1.066,1.68c0.322,0.186,0.613,0.209,0.809,0.096l0.435-0.254"/>
					<path fill="none" d="M185.4,440.053c-0.234-0.138-0.246-0.556-0.029-0.935c0.224-0.381,0.588-0.58,0.822-0.444"/>
					<path fill="none" stroke="#000000" stroke-width="0.25" stroke-linecap="round" stroke-linejoin="round" d="M185.337,430v4.283
						c0,0.515,0.416,1.172,0.931,1.463c0.282,0.164,0.537,0.187,0.707,0.084c0.137-0.084,0.221-0.245,0.221-0.473v-4.285"/>
					<path fill="none" d="M186.193,438.3c0.234-0.138,0.25-0.554,0.029-0.935c-0.222-0.383-0.586-0.58-0.822-0.442"/>
					<path fill="none" stroke="#000000" stroke-width="0.25" stroke-linecap="round" stroke-linejoin="round" d="M190.714,442.201
						c-0.219,0.383-0.586,0.578-0.819,0.443c-0.236-0.137-0.248-0.553-0.029-0.932c0.219-0.384,0.586-0.58,0.822-0.443
						C190.921,441.402,190.935,441.822,190.714,442.201z"/>
					<path fill="none" stroke="#000000" stroke-width="0.25" stroke-linecap="round" stroke-linejoin="round" d="M186.464,436.307
						l-1.063,0.617l0,0l0,0c-0.033,0.018-0.244,0.143-0.49,0.375l0,0c-0.123,0.116-0.256,0.266-0.371,0.463l0,0
						c-0.11,0.194-0.209,0.451-0.211,0.756l0,0c-0.002,0.303,0.109,0.629,0.308,0.885l0,0c0.19,0.258,0.446,0.463,0.766,0.646
						l4.492,2.596c0.233,0.135,0.602-0.061,0.819-0.443c0.222-0.379,0.207-0.799-0.026-0.932l-4.494-2.592
						c-0.121-0.07-0.201-0.133-0.244-0.172l0,0c0.029-0.037,0.068-0.078,0.113-0.113l0,0c0.039-0.037,0.08-0.063,0.104-0.08l0,0
						c0.015-0.012,0.023-0.014,0.025-0.02l0,0l0,0l0,0c0.004,0,0.004,0,0.004,0l0,0l1.064-0.611"/>
				</g>
				<g>
					<polygon fill="#F6F6F6" stroke="#000000" stroke-width="0.5" stroke-linecap="round" stroke-linejoin="round" points="
						188.533,372.763 188.353,372.867 187.75,372.517 187.162,372.857 184.667,371.418 184.667,370.74 184.648,370.728 
						184.648,369.926 184.828,369.822 188.533,371.961 					"/>
					<g>
						
							<ellipse transform="matrix(-0.5009 -0.8655 0.8655 -0.5009 -40.0387 721.4194)" fill="none" stroke="#000000" stroke-width="0.25" stroke-linecap="round" stroke-linejoin="round" cx="187.989" cy="372.254" rx="0.133" ry="0.078"/>
						<path fill="none" stroke="#000000" stroke-width="0.25" stroke-linecap="round" stroke-linejoin="round" d="M188.076,372.377
							c0.037-0.021,0.037-0.091,0-0.152c-0.035-0.064-0.096-0.098-0.133-0.076"/>
					</g>
					<path fill="none" stroke="#000000" stroke-width="0.25" stroke-linecap="round" stroke-linejoin="round" d="M184.998,370.426
						c-0.035-0.039-0.08-0.058-0.108-0.041c-0.029,0.018-0.037,0.063-0.021,0.114"/>
					<path fill="none" stroke="#000000" stroke-width="0.5" stroke-linecap="round" stroke-linejoin="round" d="M184.998,370.426
						c-0.035-0.039-0.08-0.058-0.108-0.041"/>
					<polygon fill="none" stroke="#000000" stroke-width="0.25" stroke-linecap="round" stroke-linejoin="round" points="
						188.353,372.064 188.533,371.961 184.828,369.822 184.648,369.926 185.255,370.275 184.667,370.615 187.162,372.054 
						187.75,371.715 					"/>
					
						<line fill="none" stroke="#000000" stroke-width="0.5" stroke-linecap="round" stroke-linejoin="round" x1="185.255" y1="370.275" x2="184.667" y2="370.615"/>
					
						<line fill="none" stroke="#000000" stroke-width="0.25" stroke-linecap="round" stroke-linejoin="round" x1="187.162" y1="372.054" x2="187.162" y2="372.857"/>
					
						<line fill="none" stroke="#000000" stroke-width="0.25" stroke-linecap="round" stroke-linejoin="round" x1="188.353" y1="372.064" x2="188.353" y2="372.867"/>
					
						<line fill="none" stroke="#000000" stroke-width="0.25" stroke-linecap="round" stroke-linejoin="round" x1="187.75" y1="371.715" x2="187.75" y2="372.517"/>
					
						<line fill="none" stroke="#000000" stroke-width="0.5" stroke-linecap="round" stroke-linejoin="round" x1="184.667" y1="370.615" x2="184.667" y2="371.418"/>
				</g>
				<g>
					<path fill="#F6F6F6" stroke="#000000" stroke-width="0.5" stroke-linecap="round" stroke-linejoin="round" d="M184.769,366.237
						l3.795,2.191c0,0,0.108,0.063,0.108,0.192v1.124v0.406v1.119c0,0,0,0.043-0.024,0.059l-1.068,0.617
						c0,0-0.041,0.023-0.069,0.006l-3.849-2.221c0,0-0.022-0.017-0.022-0.048v-2.711c0,0-0.004-0.132,0.047-0.159l1-0.579
						C184.685,366.235,184.726,366.213,184.769,366.237z"/>
					<path fill="none" stroke="#000000" stroke-width="0.25" stroke-linecap="round" stroke-linejoin="round" d="M183.638,366.992
						c0,0,0,0.273,0.075,0.317l3.511,2.027"/>
					<path fill="none" stroke="#000000" stroke-width="0.25" stroke-linecap="round" stroke-linejoin="round" d="M187.464,371.927
						c-0.164-0.097-0.239-0.24-0.239-0.24l-3.511-2.026v-2.352"/>
					
						<line fill="none" stroke="#000000" stroke-width="0.25" stroke-linecap="round" stroke-linejoin="round" x1="187.224" y1="371.687" x2="187.224" y2="369.337"/>
					
						<line fill="none" stroke="#000000" stroke-width="0.25" stroke-linecap="round" stroke-linejoin="round" x1="187.224" y1="369.337" x2="187.544" y2="369.151"/>
					
						<line fill="none" stroke="#000000" stroke-width="0.25" stroke-linecap="round" stroke-linejoin="round" x1="183.736" y1="366.809" x2="187.552" y2="369.012"/>
					
						<line fill="none" stroke="#000000" stroke-width="0.25" stroke-linecap="round" stroke-linejoin="round" x1="187.683" y1="371.886" x2="187.683" y2="369.177"/>
					
						<line fill="none" stroke="#000000" stroke-width="0.25" stroke-linecap="round" stroke-linejoin="round" x1="187.552" y1="369.012" x2="188.511" y2="368.46"/>
					
						<line fill="none" stroke="#000000" stroke-width="0.25" stroke-linecap="round" stroke-linejoin="round" x1="187.683" y1="369.177" x2="188.585" y2="368.655"/>
					<g>
						<path fill="#2B2523" d="M185.927,369.007l-0.031-0.019l-0.013-0.053l-0.057-0.032l-0.012,0.038l-0.031-0.018l0.055-0.166
							l0.031,0.018L185.927,369.007z M185.875,368.897l-0.02-0.084l-0.021,0.063L185.875,368.897z"/>
						<path fill="#2B2523" d="M185.935,368.946l0.026,0.014c0.002,0.015,0.006,0.025,0.013,0.034
							c0.004,0.01,0.012,0.018,0.021,0.021c0.008,0.006,0.017,0.007,0.021,0.004c0.004-0.002,0.008-0.008,0.008-0.016
							c0-0.004-0.002-0.009-0.004-0.014s-0.004-0.01-0.011-0.015c-0.004-0.004-0.012-0.011-0.022-0.021
							c-0.014-0.015-0.025-0.026-0.031-0.039c-0.01-0.016-0.014-0.03-0.014-0.047c0-0.01,0.002-0.018,0.006-0.023
							s0.01-0.01,0.018-0.011c0.009,0,0.019,0.004,0.027,0.01c0.021,0.01,0.031,0.022,0.041,0.04
							c0.01,0.016,0.014,0.032,0.014,0.052l-0.026-0.016c-0.002-0.012-0.004-0.021-0.008-0.025
							c-0.007-0.008-0.013-0.014-0.021-0.018c-0.008-0.006-0.014-0.008-0.02-0.004c-0.002,0-0.005,0.004-0.005,0.01
							c0,0.004,0.003,0.009,0.005,0.014c0.004,0.006,0.012,0.016,0.026,0.029c0.015,0.012,0.023,0.021,0.029,0.031
							c0.008,0.009,0.014,0.019,0.016,0.028c0.004,0.011,0.006,0.022,0.006,0.035c0,0.011-0.002,0.021-0.006,0.027
							c-0.006,0.008-0.012,0.012-0.02,0.012s-0.021-0.004-0.029-0.011c-0.02-0.012-0.033-0.024-0.043-0.042
							C185.943,368.991,185.937,368.969,185.935,368.946z"/>
						<path fill="#2B2523" d="M186.066,369.022l0.029,0.013c0.002,0.016,0.004,0.025,0.01,0.035
							c0.006,0.009,0.014,0.018,0.021,0.021c0.008,0.006,0.017,0.007,0.021,0.004c0.006-0.002,0.01-0.008,0.01-0.017
							c0-0.004-0.002-0.008-0.006-0.013c0-0.005-0.004-0.009-0.008-0.015c-0.004-0.004-0.013-0.013-0.023-0.021
							c-0.016-0.015-0.027-0.026-0.033-0.039c-0.008-0.016-0.014-0.03-0.014-0.047c0-0.01,0.004-0.018,0.008-0.024
							s0.01-0.01,0.019-0.011c0.008,0,0.016,0.004,0.026,0.011c0.019,0.01,0.031,0.022,0.041,0.04
							c0.008,0.016,0.015,0.031,0.015,0.052l-0.029-0.017c0-0.01-0.004-0.02-0.008-0.025s-0.011-0.014-0.019-0.018
							c-0.008-0.006-0.016-0.006-0.02-0.004c-0.004,0.001-0.006,0.004-0.006,0.011c0,0.004,0.002,0.009,0.006,0.014
							c0.002,0.007,0.012,0.016,0.024,0.029c0.015,0.012,0.025,0.022,0.031,0.03c0.006,0.01,0.012,0.02,0.017,0.029
							c0.004,0.01,0.006,0.022,0.006,0.035c0,0.011-0.002,0.02-0.009,0.026c-0.004,0.009-0.01,0.013-0.02,0.013
							c-0.008,0-0.018-0.004-0.029-0.013c-0.018-0.01-0.03-0.022-0.041-0.04C186.076,369.067,186.07,369.046,186.066,369.022z"/>
						<path fill="#2B2523" d="M186.333,369.241l-0.03-0.018l-0.013-0.053l-0.055-0.032l-0.014,0.038l-0.029-0.019l0.055-0.166
							l0.029,0.019L186.333,369.241z M186.283,369.133l-0.02-0.085l-0.021,0.063L186.283,369.133z"/>
						<path fill="#2B2523" d="M186.517,369.346l-0.029-0.019l-0.012-0.053l-0.06-0.031l-0.012,0.037l-0.029-0.018l0.056-0.166
							l0.028,0.018L186.517,369.346z M186.464,369.239l-0.018-0.086l-0.021,0.063L186.464,369.239z"/>
						<path fill="#2B2523" d="M186.533,369.159l0.057,0.031c0.013,0.007,0.021,0.012,0.025,0.019
							c0.006,0.004,0.012,0.01,0.016,0.016c0.005,0.008,0.009,0.015,0.011,0.022c0.002,0.009,0.004,0.019,0.004,0.025
							c0,0.01-0.002,0.017-0.004,0.022c-0.004,0.005-0.011,0.009-0.017,0.009c0.011,0.009,0.017,0.02,0.021,0.028
							c0.006,0.013,0.008,0.023,0.008,0.033s-0.002,0.019-0.004,0.025c-0.004,0.006-0.008,0.011-0.012,0.013
							c-0.007,0.002-0.015,0.001-0.021-0.001c-0.004-0.003-0.016-0.01-0.033-0.02l-0.049-0.027L186.533,369.159L186.533,369.159z
							 M186.562,369.209v0.045l0.018,0.012c0.012,0.006,0.019,0.01,0.021,0.011c0.006,0.003,0.01,0.003,0.012,0
							s0.004-0.007,0.004-0.013s-0.002-0.012-0.004-0.019c-0.002-0.006-0.006-0.01-0.01-0.014c-0.004-0.002-0.013-0.007-0.025-0.014
							L186.562,369.209z M186.562,369.286v0.054l0.024,0.016c0.011,0.006,0.019,0.01,0.021,0.01
							c0.006,0.002,0.008,0.001,0.012-0.002c0.002-0.002,0.004-0.008,0.004-0.014s-0.002-0.012-0.004-0.019
							c-0.002-0.005-0.004-0.01-0.008-0.014s-0.014-0.011-0.025-0.018L186.562,369.286z"/>
						<path fill="#2B2523" d="M186.677,369.438v-0.195l0.026,0.017v0.164l0.072,0.04v0.033L186.677,369.438z"/>
						<path fill="#2B2523" d="M186.791,369.407c0-0.021,0.002-0.036,0.006-0.047c0.004-0.008,0.009-0.016,0.015-0.02
							c0.006-0.005,0.014-0.009,0.018-0.009c0.01,0,0.021,0.005,0.031,0.011c0.021,0.013,0.037,0.03,0.051,0.057
							s0.019,0.054,0.019,0.086s-0.005,0.054-0.019,0.064c-0.014,0.01-0.029,0.011-0.051-0.002c-0.021-0.013-0.037-0.03-0.049-0.057
							C186.796,369.467,186.791,369.438,186.791,369.407z M186.82,369.423c0,0.021,0.004,0.041,0.012,0.058
							c0.008,0.016,0.017,0.026,0.027,0.033s0.021,0.007,0.029-0.001c0.006-0.008,0.01-0.022,0.01-0.045
							c0-0.023-0.004-0.042-0.01-0.058c-0.009-0.016-0.019-0.026-0.029-0.032c-0.012-0.009-0.021-0.009-0.029,0
							C186.824,369.385,186.82,369.399,186.82,369.423z"/>
						<path fill="#2B2523" d="M186.988,369.618v-0.082l-0.053-0.146l0.033,0.021l0.032,0.098l0.033-0.061l0.033,0.02l-0.051,0.085
							v0.084L186.988,369.618z"/>
					</g>
					<g>
						<path fill="#13110C" d="M184.191,369.548c0.035,0.075,0.094,0.146,0.158,0.185c0.016,0.009,0.03,0.017,0.045,0.021v-0.035
							c-0.015-0.004-0.029-0.011-0.045-0.02c-0.047-0.027-0.091-0.075-0.119-0.13L184.191,369.548z"/>
						<path fill="#13110C" d="M184.06,369.432v-0.01c-0.008,0.004-0.015,0.002-0.025-0.005c-0.014-0.008-0.021-0.016-0.027-0.025
							c-0.006-0.009-0.008-0.02-0.008-0.028c0-0.02,0.013-0.024,0.035-0.012l0.025,0.014v-0.008c0-0.014-0.006-0.022-0.021-0.033
							c-0.012-0.006-0.018-0.006-0.022-0.002l-0.013-0.021c0.009-0.006,0.021-0.004,0.035,0.005
							c0.027,0.017,0.041,0.038,0.041,0.063v0.074L184.06,369.432z M184.06,369.382l-0.023-0.013
							c-0.012-0.008-0.018-0.006-0.018,0.006c0,0.01,0.006,0.019,0.018,0.025c0.008,0.004,0.015,0.007,0.021,0.004
							c0.002-0.001,0.004-0.006,0.004-0.014L184.06,369.382L184.06,369.382z"/>
						<path fill="#13110C" d="M184.167,369.485c-0.004,0.004-0.014,0.002-0.022-0.004c-0.013-0.006-0.021-0.014-0.025-0.027v0.058
							l-0.021-0.013v-0.156l0.02,0.012v0.012c0.008-0.006,0.017-0.004,0.027,0.003c0.01,0.005,0.02,0.015,0.022,0.023
							c0.013,0.017,0.013,0.037,0.013,0.053C184.179,369.462,184.179,369.48,184.167,369.485 M184.138,369.384
							c-0.021-0.011-0.021,0.006-0.021,0.024c0,0.02,0,0.039,0.021,0.049c0.02,0.013,0.021-0.005,0.021-0.023
							C184.159,369.414,184.158,369.394,184.138,369.384"/>
						<path fill="#13110C" d="M184.212,369.469c0,0.02,0.009,0.037,0.023,0.047c0.012,0.006,0.02,0.006,0.025,0.002l0.012,0.021
							c-0.01,0.006-0.019,0.007-0.037-0.004c-0.023-0.016-0.045-0.041-0.045-0.084c0-0.035,0.018-0.047,0.043-0.032
							c0.026,0.017,0.043,0.047,0.043,0.077v0.012L184.212,369.469z M184.253,369.464c-0.002-0.011-0.01-0.021-0.02-0.025
							s-0.017-0.004-0.021,0.002c-0.002,0.004-0.002,0.008-0.002,0.014l0.045,0.026
							C184.257,369.473,184.255,369.469,184.253,369.464"/>
						<path fill="#13110C" d="M184.349,369.513c-0.004-0.009-0.011-0.014-0.017-0.018c-0.01-0.006-0.02-0.002-0.02,0.015v0.067
							l-0.021-0.013v-0.111l0.021,0.013v0.012c0.006-0.005,0.018-0.004,0.026,0.003c0.011,0.005,0.019,0.012,0.023,0.023
							L184.349,369.513z"/>
						<path fill="#13110C" d="M184.375,369.456l0.021,0.013v0.022l-0.021-0.011V369.456z M184.375,369.503l0.021,0.011v0.11
							l-0.021-0.012V369.503z"/>
						<path fill="#13110C" d="M184.484,369.665c-0.006,0.005-0.017,0.005-0.031-0.004c-0.014-0.009-0.021-0.02-0.029-0.03
							c-0.008-0.017-0.012-0.031-0.012-0.052c0-0.019,0.004-0.03,0.012-0.036c0.009-0.005,0.017-0.005,0.029,0.005
							c0.017,0.008,0.025,0.019,0.031,0.029c0.01,0.018,0.012,0.031,0.012,0.052C184.496,369.646,184.494,369.659,184.484,369.665
							 M184.469,369.582c-0.005-0.007-0.009-0.012-0.017-0.016c-0.004-0.003-0.01-0.004-0.014-0.002
							c-0.006,0.003-0.008,0.015-0.008,0.026c0,0.011,0.002,0.023,0.008,0.034c0.004,0.007,0.01,0.013,0.014,0.016
							c0.008,0.003,0.012,0.004,0.017,0.003c0.008-0.004,0.008-0.016,0.008-0.027C184.476,369.605,184.476,369.592,184.469,369.582"
							/>
						<path fill="#13110C" d="M183.978,369.227c0.039-0.094,0.141-0.119,0.258-0.051c0.068,0.039,0.133,0.104,0.18,0.178l0,0
							c-0.02-0.021-0.043-0.039-0.065-0.053c-0.082-0.047-0.152-0.029-0.179,0.037l0.031,0.018c0.025-0.048,0.082-0.059,0.146-0.021
							c0.063,0.036,0.121,0.112,0.146,0.189l0.033,0.02c-0.043-0.162-0.16-0.324-0.293-0.4c-0.133-0.078-0.248-0.047-0.289,0.065
							L183.978,369.227z"/>
						<polygon fill="#13110C" points="184.501,369.554 184.501,369.573 184.498,369.571 184.498,369.552 184.492,369.55 
							184.492,369.545 184.507,369.553 184.507,369.557 						"/>
						<polygon fill="#13110C" points="184.525,369.587 184.525,369.573 184.521,369.58 184.519,369.578 184.515,369.567 
							184.515,369.581 184.511,369.579 184.511,369.555 184.513,369.557 184.519,369.573 184.525,369.564 184.529,369.566 
							184.529,369.589 						"/>
					</g>
				</g>
			</g>
			<g>
				<g>
					<path fill="#F6F6F6" stroke="#000000" stroke-width="0.5" stroke-linecap="round" stroke-linejoin="round" d="M382.752,328.131
						c0.698-0.393,1.604-0.351,2.593,0.226l33.564,19.407c2.208,1.273,3.996,4.702,3.996,7.646v37.352
						c0,1.641-0.554,2.787-1.422,3.262l-4.711,2.724c-0.694,0.38-1.602,0.346-2.578-0.231l-33.563-19.403
						c-2.211-1.276-3.996-4.705-3.996-7.647v-37.352c0-1.625,0.541-2.774,1.399-3.252L382.752,328.131z"/>
					<path fill="none" stroke="#000000" stroke-width="0.25" stroke-linecap="round" stroke-linejoin="round" d="M380.633,379.109
						c-2.211-1.277-3.996-4.705-3.996-7.647V334.11c0-1.625,0.541-2.774,1.399-3.252c0.703-0.401,1.609-0.348,2.597,0.223
						l33.563,19.4c2.209,1.284,4,4.708,4,7.655l-0.004,37.348c0,1.645-0.547,2.791-1.418,3.262
						c-0.694,0.379-1.602,0.346-2.578-0.231L380.633,379.109z"/>
					<path fill="#F6F6F6" stroke="#000000" stroke-width="0.25" stroke-linecap="round" stroke-linejoin="round" d="M379.22,379.236
						c-1.877-1.083-3.398-4.001-3.398-6.508v-31.747c0-1.389,0.465-2.357,1.197-2.766c0.592-0.328,1.361-0.29,2.201,0.193
						l28.528,16.489c1.878,1.086,3.398,3.998,3.398,6.505v31.744c0,1.396-0.471,2.37-1.203,2.778
						c-0.595,0.321-1.36,0.29-2.195-0.194L379.22,379.236z"/>
					<path fill="none" stroke="#000000" stroke-linecap="round" stroke-linejoin="round" d="M409.802,395.977l4.393,2.535
						c0.978,0.577,1.884,0.611,2.578,0.231l4.711-2.724c0.868-0.475,1.422-1.621,1.422-3.262v-37.352
						c0-2.943-1.788-6.372-3.996-7.646l-33.564-19.407c-0.989-0.576-1.895-0.618-2.593-0.226l-4.716,2.727
						c-0.858,0.478-1.399,1.628-1.399,3.252v4.428c-0.506,0.493-0.814,1.325-0.814,2.443v31.747c0,2.507,1.521,5.425,3.398,6.508
						l28.528,16.495C408.52,396.175,409.231,396.225,409.802,395.977z"/>
					<path fill="none" stroke="#000000" stroke-width="0.5" stroke-linecap="round" stroke-linejoin="round" d="M377.019,338.216
						c0,0,2.309-1.771,1.597-5.38"/>
					<path fill="none" stroke="#000000" stroke-width="0.5" stroke-linecap="round" stroke-linejoin="round" d="M409.944,395.927
						c0,0,2.681-1.122,5.449,1.299"/>
					<g>
						<path fill="none" stroke="#000000" stroke-width="0.25" stroke-linecap="round" stroke-linejoin="round" d="M391.868,350.079
							c-0.833-1.452-0.781-3.028,0.108-3.555c0.892-0.513,2.29,0.242,3.124,1.682c0.834,1.456,0.786,3.039-0.107,3.56
							C394.099,352.27,392.702,351.519,391.868,350.079z"/>
						<path fill="none" stroke="#000000" stroke-width="0.5" stroke-linecap="round" stroke-linejoin="round" d="M391.977,346.523
							c0.892-0.513,2.29,0.242,3.124,1.682c0.834,1.456,0.786,3.039-0.107,3.56"/>
					</g>
					<g>
						<path d="M391.868,368.005c-0.833-1.45-0.781-3.039,0.108-3.549c0.892-0.521,2.29,0.227,3.124,1.68
							c0.834,1.438,0.783,3.036-0.107,3.558C394.099,370.202,392.702,369.447,391.868,368.005z"/>
					</g>
					<g>
						<path fill="none" stroke="#000000" stroke-width="0.25" stroke-linecap="round" stroke-linejoin="round" d="M391.868,384.983
							c-0.833-1.449-0.789-3.036,0.105-3.555c0.895-0.51,2.291,0.242,3.127,1.688c0.824,1.446,0.783,3.039-0.107,3.549
							C394.099,387.188,392.702,386.429,391.868,384.983z"/>
						<path fill="none" stroke="#000000" stroke-width="0.5" stroke-linecap="round" stroke-linejoin="round" d="M391.974,381.428
							c0.895-0.51,2.291,0.242,3.127,1.688c0.824,1.446,0.783,3.039-0.107,3.549"/>
					</g>
				</g>
			</g>
			<g>
				<g>
					<polygon fill="#00A3D2" points="256.806,369.694 256.806,372.856 265.364,366.308 256.805,359.749 256.805,362.918 
						220.7,365.759 220.698,366.844 					"/>
				</g>
			</g>
			<g>
				<g>
					<polygon fill="none" stroke="#000000" stroke-width="0.5" stroke-linecap="round" stroke-linejoin="round" points="
						220.7,365.759 220.698,366.844 256.806,369.694 256.806,372.856 265.364,366.308 256.805,359.749 256.805,362.918 					"/>
				</g>
			</g>
			<circle fill="none" stroke="#00A3D2" stroke-linecap="round" stroke-linejoin="round" cx="197.069" cy="366.308" r="19.298"/>
		</g>
		<g>
			
				<circle fill="#00A3D2" stroke="#FFFFFF" stroke-width="1.5" stroke-linecap="round" stroke-linejoin="round" cx="394.559" cy="486.497" r="28.347"/>
			
				<rect x="372.512" y="477.05" fill="#00A3D2" stroke="#FFFFFF" stroke-linecap="round" stroke-linejoin="round" width="44.095" height="23.773"/>
			<path fill="#00A3D2" stroke="#FFFFFF" stroke-linecap="round" stroke-linejoin="round" d="M394.559,474.713
				c9.854-3.979,18.802,0,18.802,0v23.773c0,0-8.946-3.978-18.802,0c-9.855-3.978-18.802,0-18.802,0v-23.773
				C375.758,474.713,384.703,470.734,394.559,474.713z"/>
			<path fill="#00A3D2" stroke="#FFFFFF" stroke-linecap="round" stroke-linejoin="round" d="M394.559,471.03
				c9.246-2.563,15.557,0,15.557,0v23.774c0,0-6.311-2.563-15.557,0c-9.246-2.563-15.556,0-15.556,0V471.03
				C379.004,471.03,385.313,468.468,394.559,471.03z"/>
			<path fill="none" stroke="#FFFFFF" stroke-width="1.5" stroke-linecap="round" stroke-linejoin="round" d="M413.36,477.05v-2.337
				c0,0-1.218-0.54-3.245-1.023v-2.658c0,0-6.311-2.563-15.557,0c-9.246-2.563-15.557,0-15.557,0v2.658
				c-2.027,0.483-3.245,1.023-3.245,1.023v2.337h-3.245v23.773h44.095V477.05H413.36z"/>
			<line fill="none" x1="394.559" y1="471.03" x2="394.559" y2="494.805"/>
		</g>
	</g>
	<g>
		
			<line fill="none" stroke="#FFFFFF" stroke-width="2" stroke-linecap="round" stroke-linejoin="round" stroke-dasharray="0,6" x1="294.224" y1="424.38" x2="345.056" y2="395.031"/>
		
			<line fill="none" stroke="#00A3D2" stroke-width="1.5" stroke-linecap="round" stroke-linejoin="round" stroke-dasharray="0,6" x1="294.224" y1="424.38" x2="345.056" y2="395.031"/>
	</g>
	<g>
		<path fill="#00A3D2" d="M369.087,389.924l-0.005-2.31c-3.558-0.002-6.46-2.888-6.449-6.461l-2.307,0.009
			C360.316,385.989,364.255,389.924,369.087,389.924"/>
		<path fill="#00A3D2" d="M369.082,381.159l-2.729-0.002c0.003,1.515,1.217,2.732,2.733,2.732L369.082,381.159z"/>
		<path fill="#00A3D2" d="M369.087,397.534C369.087,397.534,369.084,397.54,369.087,397.534v-3.459
			c-7.12,0.003-12.912-5.788-12.906-12.915l-3.472-0.003C352.718,390.188,360.062,397.531,369.087,397.534"/>
		<path fill="#00A3D2" d="M369.087,405.687l-0.003-4.604c-10.982,0-19.924-8.938-19.921-19.928l-4.606,0.003
			C344.548,394.679,355.563,405.69,369.087,405.687"/>
	</g>
	<g>
		<path fill="#FFFFFF" d="M391.487,488.76c1.34,2.006,3.624,3.33,6.212,3.33c0.598,0,1.191-0.07,1.762-0.208v-1.229
			c-0.566,0.166-1.159,0.249-1.762,0.249c-1.88,0-3.567-0.83-4.719-2.143L391.487,488.76z"/>
		<path fill="#FFFFFF" d="M386.313,487.341v-0.358c-0.287,0.288-0.562,0.405-1.053,0.405s-0.819-0.117-1.062-0.358
			c-0.204-0.212-0.313-0.517-0.313-0.851c0-0.664,0.461-1.141,1.365-1.141h1.047v-0.279c0-0.499-0.251-0.742-0.866-0.742
			c-0.438,0-0.648,0.102-0.866,0.383l-0.523-0.492c0.375-0.437,0.766-0.568,1.42-0.568c1.085,0,1.631,0.461,1.631,1.355v2.646
			H386.313L386.313,487.341z M386.3,485.593h-0.93c-0.469,0-0.711,0.21-0.711,0.569c0,0.357,0.228,0.562,0.728,0.562
			c0.304,0,0.527-0.022,0.74-0.227c0.116-0.117,0.173-0.305,0.173-0.586V485.593z"/>
		<path fill="#FFFFFF" d="M390.552,487.035c-0.219,0.22-0.562,0.353-0.959,0.353c-0.422,0-0.75-0.108-1.038-0.452v2.005h-0.795
			v-5.556h0.777v0.421c0.299-0.357,0.618-0.468,1.048-0.468c0.396,0,0.748,0.133,0.967,0.352c0.397,0.396,0.445,1.069,0.445,1.669
			C390.998,485.959,390.95,486.638,390.552,487.035 M389.383,484.048c-0.718,0-0.827,0.607-0.827,1.311s0.109,1.319,0.827,1.319
			s0.817-0.616,0.817-1.319S390.1,484.048,389.383,484.048"/>
		<path fill="#FFFFFF" d="M392.269,485.593c0,0.68,0.358,1.107,1.006,1.107c0.445,0,0.682-0.125,0.96-0.404l0.507,0.476
			c-0.403,0.405-0.786,0.616-1.481,0.616c-0.99,0-1.777-0.523-1.777-2.029c0-1.279,0.663-2.021,1.677-2.021
			c1.063,0,1.679,0.779,1.679,1.903v0.352H392.269L392.269,485.593z M393.938,484.499c-0.125-0.296-0.405-0.499-0.78-0.499
			s-0.664,0.203-0.787,0.499c-0.078,0.182-0.094,0.298-0.103,0.539h1.778C394.041,484.797,394.017,484.68,393.938,484.499"/>
		<path fill="#FFFFFF" d="M397.677,484.312c-0.181-0.179-0.321-0.265-0.596-0.265c-0.429,0-0.787,0.344-0.787,0.889v2.404H395.5
			v-3.956h0.779v0.429c0.203-0.28,0.608-0.476,1.053-0.476c0.384,0,0.672,0.103,0.944,0.375L397.677,484.312z"/>
		<path fill="#FFFFFF" d="M398.687,481.761h0.798v0.843h-0.798V481.761z M398.689,483.385h0.796v3.956h-0.796V483.385z"/>
		<path fill="#FFFFFF" d="M403.006,486.919c-0.259,0.265-0.648,0.469-1.188,0.469s-0.92-0.204-1.179-0.469
			c-0.373-0.391-0.468-0.89-0.468-1.562c0-0.663,0.095-1.161,0.468-1.553c0.259-0.266,0.641-0.468,1.179-0.468
			s0.929,0.202,1.188,0.468c0.374,0.392,0.468,0.89,0.468,1.553C403.473,486.029,403.38,486.528,403.006,486.919 M402.404,484.272
			c-0.147-0.146-0.352-0.226-0.586-0.226c-0.232,0-0.43,0.078-0.576,0.226c-0.242,0.243-0.273,0.657-0.273,1.085
			c0,0.43,0.031,0.843,0.273,1.086c0.146,0.147,0.344,0.233,0.576,0.233c0.234,0,0.438-0.086,0.586-0.233
			c0.241-0.243,0.272-0.656,0.272-1.086C402.677,484.93,402.646,484.516,402.404,484.272"/>
		<path fill="#FFFFFF" d="M383.093,481.747c1.534-4.136,5.521-7.091,10.183-7.091c2.653,0,5.146,0.979,7.072,2.63l-0.003,0.002
			c-0.835-0.319-1.735-0.493-2.664-0.493c-3.232,0-5.99,2.063-7.025,4.942l1.275,0.005c0.972-2.212,3.184-3.762,5.75-3.762
			c2.512,0,4.771,1.516,5.758,3.772l1.281-0.001c-1.61-4.901-6.247-8.283-11.444-8.283c-5.326,0-9.854,3.477-11.438,8.279
			L383.093,481.747z"/>
		<polygon fill="#FFFFFF" points="403.705,482.642 403.705,483.309 403.548,483.309 403.548,482.642 403.336,482.642 
			403.336,482.503 403.916,482.503 403.916,482.642 		"/>
		<polygon fill="#FFFFFF" points="404.618,483.309 404.618,482.839 404.465,483.144 404.356,483.144 404.201,482.839 
			404.201,483.309 404.043,483.309 404.043,482.503 404.198,482.503 404.409,482.939 404.619,482.503 404.774,482.503 
			404.774,483.309 		"/>
	</g>
</g>
</svg>
