<?xml version="1.0" encoding="utf-8"?>
<!-- Generator: Adobe Illustrator 15.0.2, SVG Export Plug-In . SVG Version: 6.00 Build 0)  -->
<!DOCTYPE svg PUBLIC "-//W3C//DTD SVG 1.1//EN" "http://www.w3.org/Graphics/SVG/1.1/DTD/svg11.dtd">
<svg version="1.1" id="Stuff" xmlns="http://www.w3.org/2000/svg" xmlns:xlink="http://www.w3.org/1999/xlink" x="0px" y="0px"
	 width="125.387px" height="112.03px" viewBox="146.936 78.461 125.387 112.03"
	 enable-background="new 146.936 78.461 125.387 112.03" xml:space="preserve">
<g>
	<line fill="none" x1="241.132" y1="164.257" x2="182.232" y2="130.237"/>
	<path fill="#F2F2F2" stroke="#000000" stroke-width="0.25" d="M176.475,189.991c0,0,15.422-5.787,33.067-1.092
		c19.428,5.169,28.824-8.247,28.824-23.404l-61.892-35.718V189.991z"/>
	<line fill="none" stroke="#000000" stroke-width="0.5" x1="238.367" y1="165.495" x2="176.475" y2="129.777"/>
	
		<line fill="none" stroke="#000000" stroke-linecap="round" stroke-linejoin="round" x1="176.475" y1="129.777" x2="176.475" y2="189.991"/>
	<g>
		<path fill="#F1F2F2" stroke="#000000" stroke-linecap="round" stroke-linejoin="round" d="M167.229,123.994
			c-0.085-0.147-0.229-0.229-0.314-0.177l-2.965,0.598l-13.252,7.65l-1.157-0.604c-0.519-0.248-1.028-0.285-1.43-0.055
			c-0.884,0.511-0.902,2.129-0.042,3.616c0.857,1.486,2.269,2.28,3.152,1.769c0.434-0.25,0.657-0.768,0.674-1.405l0.05-1.164
			l13.249-7.649l2.031-2.215C167.313,124.305,167.315,124.144,167.229,123.994z"/>
		<path fill="none" stroke="#000000" stroke-width="0.25" stroke-linecap="round" stroke-linejoin="round" d="M151.895,135.385
			c0.015-0.662-0.193-1.451-0.63-2.208c-0.47-0.813-1.104-1.417-1.726-1.717c-0.519-0.248-1.028-0.285-1.43-0.055
			c-0.884,0.511-0.902,2.129-0.042,3.616c0.856,1.486,2.269,2.28,3.152,1.769C151.655,136.541,151.879,136.023,151.895,135.385z"/>
		<path fill="none" d="M151.277,135.027c0.011-0.479-0.141-1.048-0.457-1.594c-0.337-0.587-0.794-1.024-1.244-1.24
			c-0.375-0.18-0.743-0.207-1.034-0.039c-0.637,0.369-0.65,1.537-0.029,2.612c0.619,1.074,1.641,1.646,2.277,1.277
			C151.101,135.864,151.265,135.49,151.277,135.027z"/>
		<path fill="none" stroke="#000000" stroke-width="0.25" stroke-linecap="round" stroke-linejoin="round" d="M165.194,126.571
			c0.354-0.204,0.361-0.852,0.02-1.447c-0.345-0.597-0.909-0.913-1.264-0.709l-13.502,7.796c0.176-0.102,0.405-0.073,0.634,0.056
			c0.229,0.128,0.456,0.355,0.628,0.653c0.181,0.313,0.265,0.638,0.252,0.906c-0.012,0.246-0.101,0.443-0.27,0.541L165.194,126.571z
			"/>
		<path fill="none" stroke="#000000" stroke-width="0.25" stroke-linecap="round" stroke-linejoin="round" d="M165.194,126.571
			c0.354-0.204,0.361-0.852,0.02-1.447c-0.345-0.597-0.909-0.913-1.264-0.709"/>
		<path fill="none" stroke="#000000" stroke-width="0.25" stroke-linecap="round" stroke-linejoin="round" d="M164.301,127.087
			c0.354-0.204,0.361-0.852,0.018-1.446c-0.343-0.598-0.909-0.913-1.263-0.709"/>
		<path fill="none" stroke="#000000" stroke-width="0.25" stroke-linecap="round" stroke-linejoin="round" d="M163.409,127.603
			c0.353-0.204,0.36-0.853,0.016-1.447c-0.344-0.597-0.908-0.913-1.263-0.709"/>
		<path fill="none" stroke="#000000" stroke-width="0.25" stroke-linecap="round" stroke-linejoin="round" d="M162.513,128.118
			c0.354-0.204,0.361-0.852,0.019-1.447c-0.345-0.597-0.909-0.913-1.264-0.709"/>
		<path fill="none" stroke="#000000" stroke-width="0.25" stroke-linecap="round" stroke-linejoin="round" d="M161.62,128.634
			c0.354-0.203,0.361-0.852,0.021-1.446c-0.346-0.598-0.91-0.913-1.265-0.709"/>
		<path fill="none" stroke="#000000" stroke-width="0.25" stroke-linecap="round" stroke-linejoin="round" d="M160.727,129.149
			c0.353-0.204,0.36-0.853,0.017-1.447c-0.343-0.597-0.909-0.913-1.263-0.709"/>
		<path fill="none" stroke="#000000" stroke-width="0.25" stroke-linecap="round" stroke-linejoin="round" d="M159.834,129.665
			c0.353-0.204,0.36-0.852,0.017-1.447c-0.345-0.597-0.909-0.912-1.264-0.709"/>
		<path fill="none" stroke="#000000" stroke-width="0.25" stroke-linecap="round" stroke-linejoin="round" d="M158.939,130.181
			c0.354-0.204,0.361-0.853,0.019-1.447c-0.345-0.597-0.909-0.913-1.264-0.709"/>
		<path fill="none" stroke="#000000" stroke-width="0.25" stroke-linecap="round" stroke-linejoin="round" d="M158.045,130.696
			c0.354-0.204,0.361-0.852,0.021-1.447c-0.345-0.597-0.91-0.913-1.265-0.709"/>
		<path fill="none" stroke="#000000" stroke-width="0.25" stroke-linecap="round" stroke-linejoin="round" d="M157.153,131.212
			c0.353-0.204,0.361-0.852,0.017-1.446c-0.343-0.598-0.908-0.913-1.263-0.709"/>
		<path fill="none" stroke="#000000" stroke-width="0.25" stroke-linecap="round" stroke-linejoin="round" d="M156.26,131.728
			c0.352-0.204,0.359-0.853,0.016-1.447c-0.344-0.597-0.909-0.913-1.263-0.709"/>
		<path fill="none" stroke="#000000" stroke-width="0.25" stroke-linecap="round" stroke-linejoin="round" d="M155.365,132.243
			c0.354-0.204,0.362-0.852,0.019-1.447c-0.345-0.597-0.908-0.913-1.264-0.709"/>
		<path fill="none" stroke="#000000" stroke-width="0.25" stroke-linecap="round" stroke-linejoin="round" d="M154.471,132.759
			c0.354-0.203,0.36-0.852,0.02-1.446c-0.345-0.598-0.91-0.913-1.264-0.709"/>
		<path fill="none" stroke="#000000" stroke-width="0.25" stroke-linecap="round" stroke-linejoin="round" d="M153.579,133.274
			c0.354-0.204,0.361-0.853,0.018-1.447c-0.344-0.597-0.909-0.913-1.264-0.709"/>
		<path fill="none" stroke="#000000" stroke-width="0.25" stroke-linecap="round" stroke-linejoin="round" d="M152.686,133.79
			c0.352-0.204,0.359-0.852,0.016-1.447c-0.344-0.597-0.909-0.912-1.263-0.709"/>
		<path fill="none" stroke="#000000" stroke-width="0.25" stroke-linecap="round" stroke-linejoin="round" d="M163.95,124.415
			l-13.502,7.796c0.176-0.102,0.405-0.073,0.634,0.056c0.229,0.128,0.456,0.355,0.628,0.653c0.181,0.313,0.265,0.638,0.252,0.906
			c-0.012,0.246-0.101,0.443-0.27,0.541l13.502-7.796l2.031-2.215c0.088-0.052,0.09-0.213,0.004-0.362
			c-0.085-0.147-0.229-0.229-0.314-0.177L163.95,124.415z"/>
		<path fill="none" stroke="#000000" stroke-width="0.25" stroke-linecap="round" stroke-linejoin="round" d="M151.082,132.266
			c0.229,0.128,0.456,0.355,0.628,0.653c0.181,0.313,0.265,0.638,0.252,0.906"/>
		<path fill="none" stroke="#000000" stroke-width="0.25" stroke-linecap="round" stroke-linejoin="round" d="M151.895,135.385
			c-0.017,0.639-0.24,1.155-0.674,1.405c-0.885,0.513-2.295-0.28-3.152-1.769c-0.86-1.487-0.842-3.105,0.042-3.616
			c0.4-0.229,0.911-0.193,1.43,0.055l1.541,0.806c0.229,0.128,0.456,0.355,0.628,0.653c0.181,0.313,0.265,0.638,0.252,0.906
			L151.895,135.385z"/>
		<polygon fill="none" stroke="#000000" stroke-width="0.25" stroke-linecap="round" stroke-linejoin="round" points="
			151.253,134.749 149.897,133.966 149.897,132.385 149.434,132.118 149.434,133.698 148.078,132.916 148.078,133.45 
			149.435,134.232 149.435,135.799 149.897,136.065 149.897,134.5 151.253,135.283 		"/>
		
			<line fill="none" stroke="#000000" stroke-width="0.5" stroke-linecap="round" stroke-linejoin="round" x1="151.253" y1="135.283" x2="151.253" y2="134.749"/>
		
			<line fill="none" stroke="#000000" stroke-width="0.5" stroke-linecap="round" stroke-linejoin="round" x1="149.897" y1="136.065" x2="149.897" y2="134.5"/>
		<polyline fill="none" stroke="#000000" stroke-width="0.5" stroke-linecap="round" stroke-linejoin="round" points="
			149.897,133.966 149.897,132.385 149.434,132.118 		"/>
		
			<line fill="none" stroke="#000000" stroke-width="0.5" stroke-linecap="round" stroke-linejoin="round" x1="149.434" y1="133.698" x2="148.078" y2="132.916"/>
		
			<line fill="none" stroke="#000000" stroke-width="0.5" stroke-linecap="round" stroke-linejoin="round" x1="151.253" y1="134.749" x2="149.897" y2="133.966"/>
	</g>
	<g>
		<path fill="#F1F2F2" stroke="#000000" stroke-linecap="round" stroke-linejoin="round" d="M198.114,157.2
			c-0.085-0.148-0.228-0.228-0.314-0.177l-2.965,0.598l-13.252,7.65l-1.156-0.604c-0.52-0.25-1.029-0.287-1.431-0.056
			c-0.884,0.51-0.901,2.129-0.042,3.615c0.857,1.488,2.27,2.28,3.152,1.77c0.434-0.25,0.658-0.769,0.674-1.407l0.05-1.162
			l13.249-7.65l2.031-2.215C198.198,157.512,198.2,157.35,198.114,157.2z"/>
		<path fill="none" stroke="#000000" stroke-width="0.25" stroke-linecap="round" stroke-linejoin="round" d="M182.78,168.591
			c0.015-0.66-0.193-1.45-0.63-2.207c-0.469-0.813-1.104-1.416-1.726-1.715c-0.519-0.25-1.028-0.287-1.43-0.056
			c-0.884,0.51-0.901,2.129-0.042,3.615c0.857,1.488,2.27,2.28,3.152,1.77C182.54,169.748,182.764,169.229,182.78,168.591z"/>
		<path fill="none" d="M182.162,168.234c0.011-0.479-0.141-1.049-0.457-1.596c-0.337-0.586-0.794-1.023-1.244-1.239
			c-0.375-0.181-0.742-0.206-1.033-0.04c-0.638,0.369-0.651,1.539-0.03,2.613c0.62,1.074,1.641,1.646,2.277,1.277
			C181.986,169.07,182.15,168.695,182.162,168.234z"/>
		<path fill="none" stroke="#000000" stroke-width="0.25" stroke-linecap="round" stroke-linejoin="round" d="M196.079,159.777
			c0.354-0.204,0.361-0.852,0.021-1.447c-0.346-0.596-0.91-0.914-1.265-0.709l-13.502,7.797c0.176-0.104,0.405-0.073,0.634,0.054
			c0.229,0.129,0.456,0.356,0.629,0.655c0.18,0.312,0.264,0.638,0.252,0.906c-0.013,0.244-0.102,0.443-0.271,0.54L196.079,159.777z"
			/>
		<path fill="none" stroke="#000000" stroke-width="0.25" stroke-linecap="round" stroke-linejoin="round" d="M196.079,159.777
			c0.354-0.204,0.361-0.852,0.021-1.447c-0.346-0.596-0.91-0.914-1.265-0.709"/>
		<path fill="none" stroke="#000000" stroke-width="0.25" stroke-linecap="round" stroke-linejoin="round" d="M195.186,160.294
			c0.353-0.204,0.36-0.853,0.017-1.447c-0.343-0.597-0.909-0.914-1.263-0.709"/>
		<path fill="none" stroke="#000000" stroke-width="0.25" stroke-linecap="round" stroke-linejoin="round" d="M194.293,160.809
			c0.353-0.204,0.36-0.853,0.017-1.447c-0.345-0.596-0.909-0.914-1.264-0.709"/>
		<path fill="none" stroke="#000000" stroke-width="0.25" stroke-linecap="round" stroke-linejoin="round" d="M193.398,161.324
			c0.354-0.204,0.362-0.852,0.019-1.446c-0.345-0.597-0.909-0.914-1.264-0.709"/>
		<path fill="none" stroke="#000000" stroke-width="0.25" stroke-linecap="round" stroke-linejoin="round" d="M192.504,161.841
			c0.354-0.204,0.361-0.853,0.021-1.447c-0.345-0.596-0.91-0.914-1.264-0.709"/>
		<path fill="none" stroke="#000000" stroke-width="0.25" stroke-linecap="round" stroke-linejoin="round" d="M191.612,162.355
			c0.353-0.204,0.361-0.852,0.017-1.447c-0.343-0.596-0.908-0.914-1.263-0.709"/>
		<path fill="none" stroke="#000000" stroke-width="0.25" stroke-linecap="round" stroke-linejoin="round" d="M190.719,162.871
			c0.352-0.203,0.359-0.852,0.016-1.446c-0.344-0.597-0.909-0.914-1.263-0.709"/>
		<path fill="none" stroke="#000000" stroke-width="0.25" stroke-linecap="round" stroke-linejoin="round" d="M189.824,163.387
			c0.354-0.204,0.362-0.853,0.02-1.447c-0.346-0.596-0.909-0.914-1.265-0.709"/>
		<path fill="none" stroke="#000000" stroke-width="0.25" stroke-linecap="round" stroke-linejoin="round" d="M188.93,163.902
			c0.354-0.204,0.36-0.852,0.02-1.447c-0.345-0.596-0.91-0.914-1.264-0.709"/>
		<path fill="none" stroke="#000000" stroke-width="0.25" stroke-linecap="round" stroke-linejoin="round" d="M188.038,164.419
			c0.354-0.204,0.361-0.853,0.018-1.447c-0.344-0.597-0.909-0.914-1.264-0.709"/>
		<path fill="none" stroke="#000000" stroke-width="0.25" stroke-linecap="round" stroke-linejoin="round" d="M187.145,164.934
			c0.352-0.204,0.359-0.853,0.016-1.447c-0.344-0.596-0.909-0.914-1.263-0.709"/>
		<path fill="none" stroke="#000000" stroke-width="0.25" stroke-linecap="round" stroke-linejoin="round" d="M186.25,165.449
			c0.354-0.204,0.362-0.852,0.02-1.446c-0.346-0.597-0.909-0.914-1.265-0.709"/>
		<path fill="none" stroke="#000000" stroke-width="0.25" stroke-linecap="round" stroke-linejoin="round" d="M185.356,165.966
			c0.354-0.204,0.36-0.853,0.02-1.447c-0.345-0.596-0.91-0.914-1.264-0.709"/>
		<path fill="none" stroke="#000000" stroke-width="0.25" stroke-linecap="round" stroke-linejoin="round" d="M184.463,166.48
			c0.354-0.204,0.361-0.852,0.018-1.447c-0.343-0.596-0.909-0.914-1.264-0.709"/>
		<path fill="none" stroke="#000000" stroke-width="0.25" stroke-linecap="round" stroke-linejoin="round" d="M183.571,166.996
			c0.352-0.203,0.36-0.852,0.016-1.446c-0.344-0.597-0.908-0.914-1.263-0.709"/>
		<path fill="none" stroke="#000000" stroke-width="0.25" stroke-linecap="round" stroke-linejoin="round" d="M194.834,157.621
			l-13.502,7.797c0.176-0.104,0.405-0.073,0.634,0.054c0.229,0.129,0.456,0.356,0.629,0.655c0.18,0.312,0.264,0.638,0.252,0.906
			c-0.013,0.244-0.102,0.443-0.271,0.54l13.502-7.796l2.031-2.215c0.088-0.051,0.09-0.213,0.004-0.362
			c-0.085-0.148-0.228-0.228-0.314-0.177L194.834,157.621z"/>
		<path fill="none" stroke="#000000" stroke-width="0.25" stroke-linecap="round" stroke-linejoin="round" d="M181.966,165.471
			c0.229,0.129,0.456,0.356,0.629,0.655c0.18,0.312,0.264,0.638,0.252,0.906"/>
		<path fill="none" stroke="#000000" stroke-width="0.25" stroke-linecap="round" stroke-linejoin="round" d="M182.78,168.591
			c-0.016,0.64-0.24,1.157-0.674,1.407c-0.884,0.512-2.295-0.28-3.152-1.77c-0.859-1.486-0.842-3.105,0.042-3.615
			c0.4-0.231,0.911-0.195,1.431,0.055l1.54,0.804c0.229,0.129,0.456,0.356,0.629,0.655c0.18,0.312,0.264,0.638,0.252,0.906
			L182.78,168.591z"/>
		<polygon fill="none" stroke="#000000" stroke-width="0.25" stroke-linecap="round" stroke-linejoin="round" points="
			182.138,167.955 180.782,167.173 180.782,165.592 180.319,165.324 180.319,166.904 178.962,166.121 178.962,166.656 
			180.32,167.439 180.32,169.007 180.782,169.271 180.782,167.706 182.138,168.488 		"/>
		
			<line fill="none" stroke="#000000" stroke-width="0.5" stroke-linecap="round" stroke-linejoin="round" x1="182.138" y1="168.488" x2="182.138" y2="167.955"/>
		
			<line fill="none" stroke="#000000" stroke-width="0.5" stroke-linecap="round" stroke-linejoin="round" x1="180.782" y1="169.271" x2="180.782" y2="167.706"/>
		<polyline fill="none" stroke="#000000" stroke-width="0.5" stroke-linecap="round" stroke-linejoin="round" points="
			180.782,167.173 180.782,165.592 180.319,165.324 		"/>
		
			<line fill="none" stroke="#000000" stroke-width="0.5" stroke-linecap="round" stroke-linejoin="round" x1="180.319" y1="166.904" x2="178.962" y2="166.121"/>
		
			<line fill="none" stroke="#000000" stroke-width="0.5" stroke-linecap="round" stroke-linejoin="round" x1="182.138" y1="167.955" x2="180.782" y2="167.173"/>
	</g>
	<g>
		<polygon fill="#F1F2F2" stroke="#000000" stroke-width="0.25" stroke-linecap="round" stroke-linejoin="round" points="
			232.43,83.959 226.314,84.775 226.314,86.479 226.552,87.141 232.669,84.621 		"/>
		<polyline fill="none" stroke="#000000" stroke-width="0.25" stroke-linecap="round" stroke-linejoin="round" points="
			232.669,84.621 226.552,85.438 226.552,87.141 		"/>
		
			<line fill="none" stroke="#000000" stroke-width="0.25" stroke-linecap="round" stroke-linejoin="round" x1="226.314" y1="84.775" x2="226.552" y2="85.438"/>
		
			<ellipse transform="matrix(-0.5001 -0.866 0.866 -0.5001 292.5419 330.986)" fill="#F1F2F2" stroke="#000000" stroke-width="0.25" stroke-linecap="round" stroke-linejoin="round" cx="241.802" cy="81.058" rx="1.909" ry="1.132"/>
		<path fill="#F1F2F2" stroke="#000000" stroke-width="0.25" stroke-linecap="round" stroke-linejoin="round" d="M239.921,79.09
			c0.75-0.432,1.948,0.24,2.68,1.505c0.729,1.264,0.711,2.639-0.039,3.071l-1.361,0.785c-0.75,0.435-1.948-0.24-2.68-1.503
			c-0.729-1.263-0.711-2.638,0.037-3.071L239.921,79.09z"/>
		
			<ellipse transform="matrix(-0.4996 -0.8663 0.8663 -0.4996 288.5367 331.0227)" fill="none" stroke="#000000" stroke-width="0.25" stroke-linecap="round" stroke-linejoin="round" cx="239.88" cy="82.171" rx="2.642" ry="1.567"/>
		<path fill="none" stroke="#000000" stroke-width="0.25" stroke-linecap="round" stroke-linejoin="round" d="M238.813,80.316
			c0.605-0.351,1.572,0.195,2.162,1.215s0.576,2.131-0.029,2.48l-1.362,0.786c0.604-0.351,0.618-1.461,0.03-2.479
			c-0.59-1.021-1.559-1.564-2.164-1.215L238.813,80.316z"/>
		<path fill="#F1F2F2" stroke="#000000" stroke-width="0.5" stroke-linecap="round" stroke-linejoin="round" d="M237.348,80.576
			c0.75-0.434,1.949,0.24,2.68,1.503c0.729,1.263,0.711,2.638-0.037,3.071l-1.08,0.624c-0.75,0.433-1.948-0.241-2.68-1.504
			c-0.729-1.264-0.713-2.639,0.037-3.071L237.348,80.576z"/>
		
			<ellipse transform="matrix(-0.4997 -0.8662 0.8662 -0.4997 283.9976 331.0148)" fill="none" stroke="#000000" stroke-width="0.25" stroke-linecap="round" stroke-linejoin="round" cx="237.591" cy="83.493" rx="2.642" ry="1.568"/>
		<path fill="none" stroke="#000000" stroke-width="0.25" stroke-linecap="round" stroke-linejoin="round" d="M236.521,81.64
			c0.605-0.352,1.574,0.193,2.164,1.214c0.588,1.021,0.574,2.131-0.031,2.479l-1.36,0.787c0.604-0.35,0.618-1.461,0.028-2.479
			c-0.588-1.021-1.557-1.564-2.162-1.216L236.521,81.64z"/>
		<path fill="#F1F2F2" stroke="#000000" stroke-width="0.5" stroke-linecap="round" stroke-linejoin="round" d="M234.992,81.936
			c0.75-0.435,1.949,0.239,2.681,1.504c0.729,1.264,0.711,2.639-0.039,3.07l-1.08,0.625c-0.748,0.432-1.949-0.24-2.679-1.505
			c-0.729-1.264-0.713-2.639,0.037-3.071L234.992,81.936z"/>
		
			<ellipse transform="matrix(-0.5 -0.866 0.866 -0.5 279.397 330.9933)" fill="none" stroke="#000000" stroke-width="0.25" stroke-linecap="round" stroke-linejoin="round" cx="235.249" cy="84.841" rx="2.643" ry="1.568"/>
		<path fill="none" stroke="#000000" stroke-width="0.25" stroke-linecap="round" stroke-linejoin="round" d="M234.166,83
			c0.605-0.352,1.574,0.193,2.164,1.213c0.589,1.021,0.576,2.132-0.028,2.48l-1.363,0.787c0.604-0.351,0.619-1.459,0.031-2.48
			c-0.59-1.02-1.56-1.563-2.164-1.213L234.166,83z"/>
		<path fill="#F1F2F2" stroke="#000000" stroke-width="0.5" stroke-linecap="round" stroke-linejoin="round" d="M232.637,83.295
			c0.75-0.434,1.949,0.24,2.68,1.504c0.729,1.265,0.711,2.64-0.039,3.071l-10.641,6.146c-0.75,0.432-1.949-0.24-2.681-1.504
			c-0.729-1.265-0.713-2.64,0.037-3.072L232.637,83.295z"/>
		<path fill="#F1F2F2" stroke="#000000" stroke-width="0.25" stroke-linecap="round" stroke-linejoin="round" d="M235.033,87.691
			l-1.139,3.063l-1.174-0.067v-1.703l0.785-2.113l1.526-0.881C235.033,85.988,235.307,86.672,235.033,87.691z"/>
		<polyline fill="none" stroke="#000000" stroke-width="0.5" stroke-linecap="round" stroke-linejoin="round" points="
			235.033,87.691 233.895,90.754 232.721,90.686 232.721,88.982 233.507,86.869 		"/>
		<polyline fill="none" stroke="#000000" stroke-width="0.25" stroke-linecap="round" stroke-linejoin="round" points="
			235.033,85.988 233.895,89.051 232.721,88.982 		"/>
		
			<line fill="none" stroke="#000000" stroke-width="0.25" stroke-linecap="round" stroke-linejoin="round" x1="233.895" y1="89.051" x2="233.895" y2="90.754"/>
		
			<ellipse transform="matrix(-0.4996 -0.8663 0.8663 -0.4996 255.4234 330.9933)" fill="none" stroke="#000000" stroke-width="0.25" stroke-linecap="round" stroke-linejoin="round" cx="223.312" cy="91.723" rx="2.641" ry="1.568"/>
		
			<ellipse transform="matrix(-0.4999 -0.8661 0.8661 -0.4999 255.476 330.9998)" fill="none" stroke="#000000" stroke-width="0.25" stroke-linecap="round" stroke-linejoin="round" cx="223.308" cy="91.736" rx="1.908" ry="1.134"/>
		<path fill="none" stroke="#000000" stroke-width="0.5" stroke-linecap="round" stroke-linejoin="round" d="M224.27,93.379
			c0.541-0.313,0.555-1.306,0.027-2.219c-0.527-0.912-1.394-1.397-1.937-1.086"/>
		<path fill="none" stroke="#000000" stroke-linecap="round" stroke-linejoin="round" d="M242.783,80.486
			c0.353,0.607,0.457,1.246,0.334,1.701c0.056,0.668-0.127,1.229-0.557,1.479l-1.361,0.785c-0.219,0.127-0.477,0.148-0.75,0.1
			c-0.094,0.263-0.242,0.474-0.459,0.601l-1.08,0.624c-0.231,0.134-0.51,0.15-0.801,0.089c-0.092,0.283-0.244,0.514-0.477,0.646
			l-1.08,0.625c-0.23,0.134-0.508,0.149-0.799,0.088c-0.093,0.282-0.244,0.514-0.478,0.646l-0.396,0.229l-0.986,2.653l-1.174-0.067
			v-1.338l-8.084,4.668c-0.75,0.432-1.949-0.24-2.681-1.504c-0.182-0.316-0.317-0.64-0.405-0.953
			c-0.269-0.939-0.119-1.795,0.442-2.119c0.002-0.002,0.004-0.001,0.004-0.001l4.455-2.573l-0.139-0.387v-1.703l4.891-0.652
			l1.433-0.828c0.231-0.134,0.51-0.149,0.799-0.088c0.092-0.283,0.244-0.514,0.477-0.647l1.08-0.623
			c0.232-0.136,0.508-0.152,0.799-0.09c0.093-0.281,0.246-0.514,0.478-0.646l1.08-0.623c0.219-0.127,0.477-0.147,0.75-0.101
			c0.094-0.261,0.24-0.473,0.459-0.6l1.363-0.787c0.43-0.248,1.008-0.123,1.559,0.259C241.934,79.469,242.434,79.879,242.783,80.486
			z"/>
	</g>
	<g>
		<polygon fill="#F1F2F2" stroke="#000000" stroke-width="0.25" stroke-linecap="round" stroke-linejoin="round" points="
			261.087,118.451 254.971,119.268 254.971,120.971 255.207,121.634 261.324,119.115 		"/>
		<polyline fill="none" stroke="#000000" stroke-width="0.25" stroke-linecap="round" stroke-linejoin="round" points="
			261.324,119.115 255.207,119.932 255.207,121.634 		"/>
		
			<line fill="none" stroke="#000000" stroke-width="0.25" stroke-linecap="round" stroke-linejoin="round" x1="254.971" y1="119.268" x2="255.207" y2="119.932"/>
		
			<ellipse transform="matrix(-0.5001 -0.866 0.866 -0.5001 305.6574 407.5471)" fill="#F1F2F2" stroke="#000000" stroke-width="0.25" stroke-linecap="round" stroke-linejoin="round" cx="270.457" cy="115.553" rx="1.909" ry="1.132"/>
		<path fill="#F1F2F2" stroke="#000000" stroke-width="0.25" stroke-linecap="round" stroke-linejoin="round" d="M268.576,113.583
			c0.75-0.433,1.949,0.24,2.681,1.504c0.729,1.265,0.711,2.64-0.039,3.071l-1.361,0.787c-0.75,0.434-1.949-0.24-2.68-1.504
			c-0.729-1.264-0.711-2.639,0.037-3.072L268.576,113.583z"/>
		
			<ellipse transform="matrix(-0.5001 -0.866 0.866 -0.5001 301.8309 407.5471)" fill="none" stroke="#000000" stroke-width="0.25" stroke-linecap="round" stroke-linejoin="round" cx="268.552" cy="116.651" rx="2.642" ry="1.568"/>
		<path fill="none" stroke="#000000" stroke-width="0.25" stroke-linecap="round" stroke-linejoin="round" d="M267.469,114.811
			c0.604-0.351,1.571,0.192,2.162,1.214c0.59,1.021,0.575,2.13-0.029,2.479l-1.363,0.787c0.605-0.35,0.619-1.459,0.031-2.479
			c-0.59-1.021-1.559-1.563-2.164-1.214L267.469,114.811z"/>
		<path fill="#F1F2F2" stroke="#000000" stroke-width="0.5" stroke-linecap="round" stroke-linejoin="round" d="M266.005,115.068
			c0.75-0.435,1.948,0.24,2.68,1.504c0.729,1.264,0.711,2.639-0.037,3.072l-1.08,0.623c-0.75,0.434-1.949-0.24-2.68-1.504
			c-0.729-1.265-0.713-2.64,0.037-3.072L266.005,115.068z"/>
		
			<ellipse transform="matrix(-0.5001 -0.866 0.866 -0.5001 297.2521 407.5483)" fill="none" stroke="#000000" stroke-width="0.25" stroke-linecap="round" stroke-linejoin="round" cx="266.263" cy="117.973" rx="2.642" ry="1.568"/>
		<path fill="none" stroke="#000000" stroke-width="0.25" stroke-linecap="round" stroke-linejoin="round" d="M265.178,116.133
			c0.604-0.35,1.574,0.193,2.164,1.216c0.588,1.02,0.573,2.129-0.031,2.479l-1.361,0.787c0.605-0.35,0.619-1.459,0.029-2.48
			c-0.588-1.02-1.557-1.563-2.162-1.213L265.178,116.133z"/>
		<path fill="#F1F2F2" stroke="#000000" stroke-width="0.5" stroke-linecap="round" stroke-linejoin="round" d="M263.648,116.428
			c0.75-0.433,1.949,0.239,2.68,1.504c0.729,1.264,0.711,2.639-0.039,3.071l-1.079,0.623c-0.748,0.435-1.949-0.239-2.679-1.503
			c-0.729-1.263-0.713-2.64,0.037-3.07L263.648,116.428z"/>
		
			<ellipse transform="matrix(-0.5 -0.866 0.866 -0.5 292.5214 407.5522)" fill="none" stroke="#000000" stroke-width="0.25" stroke-linecap="round" stroke-linejoin="round" cx="263.908" cy="119.334" rx="2.642" ry="1.568"/>
		<path fill="none" stroke="#000000" stroke-width="0.25" stroke-linecap="round" stroke-linejoin="round" d="M262.822,117.492
			c0.605-0.35,1.574,0.193,2.164,1.215c0.588,1.021,0.576,2.131-0.029,2.48l-1.362,0.786c0.604-0.352,0.619-1.46,0.03-2.479
			c-0.59-1.021-1.559-1.563-2.163-1.215L262.822,117.492z"/>
		<path fill="#F1F2F2" stroke="#000000" stroke-width="0.5" stroke-linecap="round" stroke-linejoin="round" d="M261.294,117.789
			c0.75-0.434,1.948,0.239,2.68,1.502c0.729,1.265,0.711,2.641-0.039,3.072l-10.642,6.145c-0.75,0.435-1.948-0.239-2.68-1.504
			c-0.729-1.262-0.713-2.639,0.037-3.07L261.294,117.789z"/>
		<path fill="#F1F2F2" stroke="#000000" stroke-width="0.25" stroke-linecap="round" stroke-linejoin="round" d="M263.689,122.184
			l-1.139,3.063l-1.174-0.067v-1.703l0.784-2.111l1.527-0.881C263.689,120.482,263.964,121.166,263.689,122.184z"/>
		<polyline fill="none" stroke="#000000" stroke-width="0.5" stroke-linecap="round" stroke-linejoin="round" points="
			263.689,122.184 262.552,125.246 261.378,125.178 261.378,123.475 262.162,121.363 		"/>
		<polyline fill="none" stroke="#000000" stroke-width="0.25" stroke-linecap="round" stroke-linejoin="round" points="
			263.689,120.482 262.552,123.544 261.378,123.475 		"/>
		
			<line fill="none" stroke="#000000" stroke-width="0.25" stroke-linecap="round" stroke-linejoin="round" x1="262.552" y1="123.544" x2="262.552" y2="125.246"/>
		
			<ellipse transform="matrix(-0.4999 -0.8661 0.8661 -0.4999 268.6334 407.5556)" fill="none" stroke="#000000" stroke-width="0.25" stroke-linecap="round" stroke-linejoin="round" cx="251.99" cy="126.215" rx="2.642" ry="1.568"/>
		
			<ellipse transform="matrix(-0.4998 -0.8661 0.8661 -0.4998 268.5688 407.5547)" fill="none" stroke="#000000" stroke-width="0.25" stroke-linecap="round" stroke-linejoin="round" cx="251.963" cy="126.23" rx="1.909" ry="1.133"/>
		<path fill="none" stroke="#000000" stroke-width="0.5" stroke-linecap="round" stroke-linejoin="round" d="M252.927,127.873
			c0.541-0.313,0.555-1.307,0.026-2.22c-0.527-0.913-1.393-1.399-1.936-1.087"/>
		<path fill="none" stroke="#000000" stroke-linecap="round" stroke-linejoin="round" d="M271.439,114.98
			c0.352,0.606,0.457,1.244,0.334,1.699c0.055,0.67-0.127,1.229-0.557,1.479l-1.361,0.787c-0.219,0.127-0.477,0.148-0.75,0.1
			c-0.094,0.261-0.242,0.474-0.459,0.601l-1.08,0.623c-0.231,0.134-0.51,0.149-0.801,0.088c-0.092,0.283-0.244,0.514-0.478,0.647
			l-1.079,0.623c-0.23,0.136-0.509,0.152-0.8,0.089c-0.092,0.283-0.243,0.516-0.477,0.647l-0.396,0.23l-0.985,2.651l-1.174-0.067
			v-1.339l-8.084,4.668c-0.75,0.435-1.949-0.239-2.681-1.504c-0.182-0.313-0.317-0.639-0.405-0.95
			c-0.269-0.941-0.119-1.796,0.442-2.121c0.002,0,0.004,0,0.004,0l4.455-2.572l-0.139-0.389v-1.703l4.891-0.652l1.433-0.826
			c0.231-0.135,0.51-0.151,0.799-0.09c0.092-0.282,0.244-0.514,0.477-0.646l1.08-0.625c0.232-0.134,0.508-0.15,0.799-0.089
			c0.092-0.282,0.246-0.514,0.478-0.647l1.08-0.623c0.219-0.127,0.477-0.148,0.75-0.1c0.094-0.261,0.239-0.474,0.459-0.601
			l1.362-0.786c0.431-0.249,1.009-0.124,1.56,0.259C270.591,113.962,271.091,114.373,271.439,114.98z"/>
	</g>
	<g>
		<path fill="#F1F2F2" stroke="#000000" stroke-width="1.5" stroke-linecap="round" stroke-linejoin="round" d="M177.368,124.773
			v3.826l49.682,28.684l3.916-2.141v-14.23l0.641-0.371v-5.271l-0.641-0.369v-14.574c0,0,0.018-0.604-0.563-0.94l-49.231-28.425
			l-3.804,2.195v1.238l-6.004,3.467v24.44l2.769,1.599l3.655-2.109l0.625,0.36l1.176-0.676c0.099-0.053,0.195-0.094,0.292-0.12
			h0.008c0.114,0.463-0.002,1.104-0.354,1.713c-0.28,0.485-0.654,0.854-1.027,1.048L177.368,124.773z"/>
		<g>
			<path fill="none" stroke="#000000" stroke-width="0.25" stroke-linecap="round" stroke-linejoin="round" d="M217.423,142.503
				c-0.002-0.683,0.227-1.238,0.684-1.503c0.623-0.358,1.51-0.071,2.285,0.648c0.328,0.307,0.635,0.689,0.893,1.137
				c0.435,0.75,0.646,1.533,0.638,2.193l0.002,1.922c-0.009,0.66-0.236,1.195-0.683,1.455c-0.891,0.512-2.313-0.287-3.18-1.787
				c-0.422-0.729-0.635-1.494-0.637-2.145L217.423,142.503z"/>
			<path fill="none" stroke="#000000" stroke-width="0.5" stroke-linecap="round" stroke-linejoin="round" d="M218.105,141
				c0.623-0.358,1.51-0.071,2.285,0.648c0.328,0.307,0.635,0.689,0.893,1.137c0.435,0.75,0.646,1.533,0.638,2.193l0.002,1.922
				c-0.009,0.66-0.236,1.195-0.683,1.455"/>
			<path fill="none" stroke="#000000" stroke-width="0.25" stroke-linecap="round" stroke-linejoin="round" d="M221.921,146.607
				c-0.5-0.039-1.099-0.484-1.498-1.18c-0.257-0.443-0.386-0.908-0.388-1.303v-1.841c-0.002-0.254,0.052-0.479,0.154-0.652"/>
			<path fill="none" stroke="#000000" stroke-width="0.25" stroke-linecap="round" stroke-linejoin="round" d="M221.923,146.719
				c-0.052,0.061-0.109,0.108-0.179,0.149c-0.543,0.312-1.407-0.176-1.934-1.086c-0.258-0.444-0.385-0.91-0.387-1.305v-1.84
				c-0.004-0.414,0.135-0.752,0.412-0.912c0.106-0.063,0.227-0.093,0.354-0.095c0.064-0.002,0.133,0.005,0.201,0.019"/>
			<path fill="#FFFFFF" stroke="#000000" stroke-width="0.5" stroke-linecap="round" stroke-linejoin="round" d="M221.921,146.607
				c-0.5-0.039-1.099-0.484-1.498-1.18c-0.257-0.443-0.386-0.908-0.388-1.303v-1.841c-0.002-0.254,0.052-0.479,0.154-0.652
				l-0.002-0.004c0.066,0,0.133,0.007,0.203,0.021c0.328,0.307,0.635,0.689,0.893,1.137c0.435,0.75,0.646,1.533,0.638,2.193V146.607
				L221.921,146.607z"/>
		</g>
		<path fill="none" stroke="#000000" stroke-linecap="round" stroke-linejoin="round" d="M213.479,136.557
			c0.639-0.763,0.84-1.773,0.338-2.064c-0.621-0.313-1.332,0.465-1.611,1.504c-0.276,1.037-0.096,1.627,0.492,2.107
			c0.498,0.418,1.474,0.076,2.177-0.763c0.702-0.84,0.928-1.954,0.372-2.274c-0.684-0.348-1.469,0.512-1.774,1.656
			c-0.31,1.145-0.105,1.797,0.543,2.325c0.547,0.459,1.617,0.084,2.393-0.838c0.773-0.924,1.021-2.149,0.41-2.504
			c-0.752-0.383-1.617,0.564-1.955,1.822c-0.338,1.26-0.115,1.977,0.599,2.559c0.6,0.505,1.774,0.095,2.625-0.92
			c0.848-1.012,1.116-2.356,0.448-2.744c-0.823-0.42-1.772,0.619-2.143,2c-0.371,1.38-0.129,2.166,0.656,2.806
			c0.647,0.545,1.92,0.1,2.84-0.996c0.918-1.094,1.135-2.424,0.483-2.969"/>
		<polygon fill="#F1F2F2" stroke="#000000" stroke-width="0.25" stroke-linecap="round" stroke-linejoin="round" points="
			222.283,129.688 222.283,144.873 216.375,148.285 213.619,146.699 213.619,144.164 214.677,143.555 214.677,137.648 
			214.27,137.885 213.619,137.51 213.619,131.547 214.677,130.938 214.677,125.037 214.27,125.273 213.619,124.898 213.619,122.259 
			219.625,118.792 224.682,121.684 224.701,124.116 218.669,127.6 218.669,128.312 220.714,129.491 222.959,128.194 
			223.914,128.746 		"/>
		<g>
			<path fill="#F1F2F2" stroke="#000000" stroke-width="0.25" stroke-linecap="round" stroke-linejoin="round" d="M176.503,116.994
				c-0.104-0.014-0.201-0.045-0.292-0.098c-0.591-0.34-0.604-1.426-0.028-2.424c0.575-0.996,1.521-1.527,2.114-1.188
				c0.089,0.052,0.164,0.118,0.228,0.2l0.309,0.409c0.28,0.438,0.209,1.235-0.221,1.979c-0.42,0.728-1.055,1.185-1.57,1.183
				L176.503,116.994z"/>
			<path fill="none" stroke="#000000" stroke-width="0.5" stroke-linecap="round" stroke-linejoin="round" d="M178.524,113.486
				l0.309,0.409c0.28,0.438,0.209,1.235-0.221,1.979c-0.42,0.728-1.055,1.185-1.57,1.183l-0.538-0.063"/>
			<path fill="none" stroke="#000000" stroke-width="0.25" stroke-linecap="round" stroke-linejoin="round" d="M176.649,114.742
				c0.526-0.912,1.394-1.397,1.936-1.086c0.103,0.058,0.185,0.139,0.248,0.239c0.28,0.438,0.209,1.235-0.221,1.979
				c-0.42,0.728-1.055,1.185-1.57,1.183c-0.131,0-0.256-0.031-0.364-0.097C176.135,116.648,176.122,115.655,176.649,114.742z"/>
		</g>
		<g>
			<path fill="#F1F2F2" stroke="#000000" stroke-width="0.25" stroke-linecap="round" stroke-linejoin="round" d="M176.493,103.781
				c-0.104-0.014-0.203-0.045-0.293-0.096c-0.59-0.343-0.604-1.429-0.029-2.424c0.576-0.998,1.522-1.529,2.115-1.188
				c0.088,0.051,0.164,0.119,0.228,0.199l0.309,0.41c0.281,0.438,0.209,1.235-0.221,1.979c-0.42,0.729-1.056,1.185-1.57,1.182
				L176.493,103.781z"/>
			<path fill="none" stroke="#000000" stroke-width="0.5" stroke-linecap="round" stroke-linejoin="round" d="M178.512,100.273
				l0.309,0.41c0.281,0.438,0.209,1.235-0.221,1.979c-0.42,0.729-1.056,1.185-1.57,1.183l-0.537-0.063"/>
			<path fill="none" stroke="#000000" stroke-width="0.25" stroke-linecap="round" stroke-linejoin="round" d="M176.637,101.529
				c0.526-0.912,1.395-1.398,1.936-1.086c0.102,0.059,0.184,0.141,0.248,0.24c0.281,0.438,0.209,1.235-0.221,1.979
				c-0.42,0.729-1.056,1.185-1.57,1.183c-0.131,0-0.256-0.031-0.365-0.095C176.124,103.438,176.11,102.443,176.637,101.529z"/>
		</g>
		<path fill="none" stroke="#000000" stroke-linecap="round" stroke-linejoin="round" d="M182.313,105.092
			c0.339-0.932,1.113-1.612,1.617-1.322c0.582,0.378,0.264,1.386-0.496,2.146c-0.761,0.76-1.361,0.897-2.072,0.627
			c-0.609-0.221-0.803-1.234-0.428-2.264s1.229-1.779,1.784-1.461c0.643,0.418,0.292,1.529-0.547,2.367
			c-0.838,0.838-1.504,0.988-2.286,0.69c-0.671-0.244-0.882-1.358-0.47-2.489c0.411-1.134,1.353-1.959,1.961-1.606
			c0.707,0.458,0.32,1.681-0.601,2.603c-0.921,0.923-1.653,1.09-2.515,0.763c-0.734-0.269-0.968-1.49-0.517-2.732
			c0.452-1.24,1.483-2.146,2.152-1.76c0.774,0.502,0.352,1.844-0.66,2.854c-1.01,1.012-1.813,1.193-2.756,0.835
			c-0.797-0.29-1.047-1.613-0.56-2.957c0.488-1.343,1.531-2.195,2.329-1.904"/>
		<path fill="none" stroke="#000000" stroke-width="0.25" stroke-linecap="round" stroke-linejoin="round" d="M177.368,93.156
			l49.119,28.358c0.582,0.336,0.563,0.94,0.563,0.94v5.729l-3.687,2.128v19.479l3.687-2.129v9.621"/>
		
			<line fill="none" stroke="#000000" stroke-width="0.5" stroke-linecap="round" stroke-linejoin="round" x1="223.363" y1="149.791" x2="227.05" y2="147.662"/>
		<polygon fill="none" stroke="#000000" stroke-width="0.25" stroke-linecap="round" stroke-linejoin="round" points="
			216.369,123.847 213.619,122.259 213.619,124.898 214.27,125.273 214.27,123.535 215.729,124.378 215.729,127.824 
			216.369,128.215 		"/>
		<polyline fill="none" stroke="#000000" stroke-width="0.5" stroke-linecap="round" stroke-linejoin="round" points="
			214.27,123.535 215.729,124.378 215.729,127.824 216.369,128.215 		"/>
		<polyline fill="none" stroke="#000000" stroke-width="0.5" stroke-linecap="round" stroke-linejoin="round" points="
			213.619,122.259 213.619,124.898 214.27,125.273 		"/>
		<polygon fill="none" stroke="#000000" stroke-width="0.25" stroke-linecap="round" stroke-linejoin="round" points="
			213.619,131.547 214.27,131.922 214.27,133.953 215.729,134.797 215.729,130.466 216.369,130.836 216.369,141.412 
			215.729,141.043 215.729,136.697 214.27,135.855 214.27,137.885 213.619,137.51 		"/>
		<polyline fill="none" stroke="#000000" stroke-width="0.5" stroke-linecap="round" stroke-linejoin="round" points="
			214.27,137.885 213.619,137.51 213.619,131.547 		"/>
		<polyline fill="none" stroke="#000000" stroke-width="0.5" stroke-linecap="round" stroke-linejoin="round" points="
			216.369,141.412 215.729,141.043 215.729,136.697 214.27,135.855 		"/>
		
			<line fill="none" stroke="#000000" stroke-width="0.5" stroke-linecap="round" stroke-linejoin="round" x1="215.729" y1="134.797" x2="215.729" y2="130.466"/>
		<polygon fill="none" stroke="#000000" stroke-width="0.25" stroke-linecap="round" stroke-linejoin="round" points="
			213.619,144.164 214.268,144.539 214.27,146.298 215.729,147.141 215.729,143.697 216.369,144.066 216.375,148.285 
			213.619,146.699 		"/>
		<polyline fill="none" stroke="#000000" stroke-width="0.5" stroke-linecap="round" stroke-linejoin="round" points="
			216.375,148.285 213.619,146.699 213.619,144.164 		"/>
		
			<line fill="none" stroke="#000000" stroke-width="0.5" stroke-linecap="round" stroke-linejoin="round" x1="215.729" y1="147.141" x2="215.729" y2="143.697"/>
		<polyline fill="none" stroke="#000000" stroke-width="0.25" stroke-linecap="round" stroke-linejoin="round" points="
			171.364,97.861 174.132,99.461 174.132,102.088 173.444,101.703 173.444,99.964 172.073,99.172 172.073,121.935 173.444,122.727 
			173.444,120.969 174.132,121.366 174.132,123.9 		"/>
		
			<line fill="none" stroke="#000000" stroke-width="0.5" stroke-linecap="round" stroke-linejoin="round" x1="173.444" y1="122.727" x2="173.444" y2="120.969"/>
		<polyline fill="none" stroke="#000000" stroke-width="0.5" stroke-linecap="round" stroke-linejoin="round" points="
			174.132,102.088 173.444,101.703 173.444,99.964 172.073,99.172 		"/>
		<polyline fill="none" stroke="#000000" stroke-width="0.25" stroke-linecap="round" stroke-linejoin="round" points="
			227.05,128.184 226.068,127.617 226.068,124.904 224.701,124.116 224.701,121.723 219.625,118.792 		"/>
		
			<line fill="none" stroke="#000000" stroke-width="0.25" stroke-linecap="round" stroke-linejoin="round" x1="222.375" y1="120.38" x2="216.369" y2="123.847"/>
		<polyline fill="none" stroke="#000000" stroke-width="0.25" stroke-linecap="round" stroke-linejoin="round" points="
			224.701,124.116 218.669,127.6 218.669,128.312 220.714,129.492 222.959,128.194 223.914,128.746 		"/>
		<polyline fill="none" stroke="#000000" stroke-width="0.5" stroke-linecap="round" stroke-linejoin="round" points="
			218.669,128.312 220.714,129.492 222.959,128.194 223.914,128.746 		"/>
		<polyline fill="none" stroke="#000000" stroke-width="0.5" stroke-linecap="round" stroke-linejoin="round" points="
			224.529,128.391 222.283,129.688 222.283,149.166 223.363,149.791 		"/>
		<polyline fill="none" stroke="#000000" stroke-width="0.25" stroke-linecap="round" stroke-linejoin="round" points="
			218.669,127.6 220.714,128.781 222.959,127.484 224.529,128.391 		"/>
		<polyline fill="none" stroke="#000000" stroke-width="0.5" stroke-linecap="round" stroke-linejoin="round" points="
			215.729,130.466 217.322,129.545 217.322,127.746 		"/>
		<polyline fill="none" stroke="#000000" stroke-width="0.25" stroke-linecap="round" stroke-linejoin="round" points="
			216.369,128.215 217.964,127.273 217.964,129.916 216.369,130.836 		"/>
		
			<line fill="none" stroke="#000000" stroke-width="0.5" stroke-linecap="round" stroke-linejoin="round" x1="216.369" y1="128.215" x2="217.964" y2="127.273"/>
		
			<line fill="none" stroke="#000000" stroke-width="0.25" stroke-linecap="round" stroke-linejoin="round" x1="222.283" y1="129.688" x2="223.363" y2="130.312"/>
		
			<line fill="none" stroke="#000000" stroke-width="0.25" stroke-linecap="round" stroke-linejoin="round" x1="222.959" y1="127.484" x2="222.959" y2="128.194"/>
		
			<line fill="none" stroke="#000000" stroke-width="0.25" stroke-linecap="round" stroke-linejoin="round" x1="220.714" y1="128.781" x2="220.714" y2="129.491"/>
		<polyline fill="none" stroke="#000000" stroke-width="0.25" stroke-linecap="round" stroke-linejoin="round" points="
			222.283,138.832 218.669,140.918 218.669,141.631 220.714,142.811 222.283,141.904 		"/>
		<polyline fill="none" stroke="#000000" stroke-width="0.5" stroke-linecap="round" stroke-linejoin="round" points="
			218.669,141.631 220.714,142.811 222.283,141.904 		"/>
		<polyline fill="none" stroke="#000000" stroke-width="0.25" stroke-linecap="round" stroke-linejoin="round" points="
			218.669,140.918 220.714,142.1 222.283,141.193 		"/>
		
			<line fill="none" stroke="#000000" stroke-width="0.25" stroke-linecap="round" stroke-linejoin="round" x1="220.714" y1="142.1" x2="220.714" y2="142.811"/>
		
			<line fill="none" stroke="#000000" stroke-width="0.5" stroke-linecap="round" stroke-linejoin="round" x1="219.625" y1="118.792" x2="213.619" y2="122.259"/>
		<polyline fill="none" stroke="#000000" stroke-width="0.25" stroke-linecap="round" stroke-linejoin="round" points="
			216.369,141.412 217.964,140.492 217.964,143.146 216.369,144.066 		"/>
		
			<line fill="none" stroke="#000000" stroke-width="0.5" stroke-linecap="round" stroke-linejoin="round" x1="216.369" y1="141.412" x2="217.964" y2="140.492"/>
		<polyline fill="none" stroke="#000000" stroke-width="0.5" stroke-linecap="round" stroke-linejoin="round" points="
			217.322,140.861 217.322,142.777 215.729,143.697 		"/>
		<polygon fill="none" stroke="#000000" stroke-width="0.25" stroke-linecap="round" stroke-linejoin="round" points="
			214.677,136.637 215.031,136.84 215.031,146.072 214.677,145.867 		"/>
		<polyline fill="none" stroke="#000000" stroke-width="0.5" stroke-linecap="round" stroke-linejoin="round" points="
			215.031,146.072 214.677,145.867 214.677,136.637 		"/>
		
			<line fill="none" stroke="#000000" stroke-width="0.5" stroke-linecap="round" stroke-linejoin="round" x1="215.031" y1="146.072" x2="215.729" y2="145.671"/>
		
			<line fill="none" stroke="#000000" stroke-width="0.5" stroke-linecap="round" stroke-linejoin="round" x1="214.677" y1="136.637" x2="215.148" y2="136.363"/>
		
			<line fill="none" stroke="#000000" stroke-width="0.25" stroke-linecap="round" stroke-linejoin="round" x1="215.031" y1="136.84" x2="215.505" y2="136.568"/>
		<g>
			<polygon fill="none" stroke="#000000" stroke-width="0.25" stroke-linecap="round" stroke-linejoin="round" points="
				214.677,124.315 215.031,124.52 215.031,133.752 214.677,133.547 			"/>
			<polyline fill="none" stroke="#000000" stroke-width="0.5" stroke-linecap="round" stroke-linejoin="round" points="
				215.031,133.752 214.677,133.547 214.677,124.315 			"/>
			
				<line fill="none" stroke="#000000" stroke-width="0.5" stroke-linecap="round" stroke-linejoin="round" x1="215.031" y1="133.752" x2="215.729" y2="133.35"/>
			
				<line fill="none" stroke="#000000" stroke-width="0.5" stroke-linecap="round" stroke-linejoin="round" x1="214.677" y1="124.315" x2="215.148" y2="124.043"/>
			
				<line fill="none" stroke="#000000" stroke-width="0.25" stroke-linecap="round" stroke-linejoin="round" x1="215.031" y1="124.52" x2="215.505" y2="124.247"/>
		</g>
		<g>
			<polygon fill="none" stroke="#000000" stroke-width="0.25" stroke-linecap="round" stroke-linejoin="round" points="
				172.745,99.895 173.1,100.1 173.1,121.522 172.745,121.317 			"/>
			<polyline fill="none" stroke="#000000" stroke-width="0.5" stroke-linecap="round" stroke-linejoin="round" points="
				173.1,121.522 172.745,121.317 172.745,99.895 			"/>
			
				<line fill="none" stroke="#000000" stroke-width="0.5" stroke-linecap="round" stroke-linejoin="round" x1="173.1" y1="121.522" x2="173.444" y2="121.324"/>
			
				<line fill="none" stroke="#000000" stroke-width="0.5" stroke-linecap="round" stroke-linejoin="round" x1="172.745" y1="99.895" x2="173.034" y2="99.727"/>
			
				<line fill="none" stroke="#000000" stroke-width="0.25" stroke-linecap="round" stroke-linejoin="round" x1="173.1" y1="100.1" x2="173.391" y2="99.934"/>
		</g>
		
			<line fill="none" stroke="#000000" stroke-width="0.5" stroke-linecap="round" stroke-linejoin="round" x1="213.619" y1="131.547" x2="214.677" y2="130.938"/>
		
			<line fill="none" stroke="#000000" stroke-width="0.5" stroke-linecap="round" stroke-linejoin="round" x1="214.27" y1="137.885" x2="214.677" y2="137.648"/>
		
			<line fill="none" stroke="#000000" stroke-width="0.25" stroke-linecap="round" stroke-linejoin="round" x1="214.27" y1="133.953" x2="214.824" y2="133.633"/>
		
			<line fill="none" stroke="#000000" stroke-width="0.25" stroke-linecap="round" stroke-linejoin="round" x1="217.322" y1="129.545" x2="217.964" y2="129.916"/>
		
			<line fill="none" stroke="#000000" stroke-width="0.5" stroke-linecap="round" stroke-linejoin="round" x1="213.619" y1="144.164" x2="214.677" y2="143.555"/>
		
			<line fill="none" stroke="#000000" stroke-width="0.25" stroke-linecap="round" stroke-linejoin="round" x1="214.268" y1="144.539" x2="214.677" y2="144.305"/>
		
			<line fill="none" stroke="#000000" stroke-width="0.25" stroke-linecap="round" stroke-linejoin="round" x1="214.27" y1="146.298" x2="214.844" y2="145.966"/>
		
			<line fill="none" stroke="#000000" stroke-width="0.25" stroke-linecap="round" stroke-linejoin="round" x1="217.322" y1="142.777" x2="217.964" y2="143.146"/>
		<polyline fill="none" stroke="#000000" stroke-width="0.25" stroke-linecap="round" stroke-linejoin="round" points="
			226.068,148.229 226.068,155.548 178.413,128.032 178.413,125.377 177.368,124.773 		"/>
		
			<line fill="none" stroke="#000000" stroke-width="0.5" stroke-linecap="round" stroke-linejoin="round" x1="226.068" y1="148.229" x2="226.068" y2="155.548"/>
		
			<line fill="none" stroke="#000000" stroke-width="0.5" stroke-linecap="round" stroke-linejoin="round" x1="222.283" y1="144.873" x2="216.375" y2="148.285"/>
		
			<line fill="none" stroke="#000000" stroke-width="0.25" stroke-linecap="round" stroke-linejoin="round" x1="226.068" y1="152.589" x2="217.492" y2="147.639"/>
		<polyline fill="none" stroke="#000000" stroke-width="0.25" stroke-linecap="round" stroke-linejoin="round" points="
			230.966,134.9 229.76,135.596 229.76,140.867 		"/>
		<polyline fill="none" stroke="#000000" stroke-width="0.25" stroke-linecap="round" stroke-linejoin="round" points="
			229.76,135.596 230.402,135.965 231.605,135.27 		"/>
		
			<line fill="none" stroke="#000000" stroke-width="0.25" stroke-linecap="round" stroke-linejoin="round" x1="230.402" y1="135.965" x2="230.402" y2="141.236"/>
		<polyline fill="none" stroke="#000000" stroke-width="0.5" stroke-linecap="round" stroke-linejoin="round" points="
			229.76,140.867 230.402,141.236 231.605,140.541 		"/>
		
			<line fill="none" stroke="#000000" stroke-width="0.25" stroke-linecap="round" stroke-linejoin="round" x1="174.132" y1="99.461" x2="180.137" y2="95.994"/>
		
			<line fill="none" stroke="#000000" stroke-width="0.5" stroke-linecap="round" stroke-linejoin="round" x1="214.27" y1="125.273" x2="214.677" y2="125.037"/>
		<path fill="none" stroke="#000000" stroke-width="0.25" stroke-linecap="round" stroke-linejoin="round" d="M179.588,121.476
			c0.099-0.053,0.195-0.094,0.292-0.12c0.245-0.072,0.479-0.061,0.672,0.052c0.553,0.319,0.563,1.333,0.026,2.264
			c-0.281,0.485-0.654,0.854-1.026,1.049l-1.14,0.657"/>
		<path fill="none" stroke="#000000" stroke-width="0.5" stroke-linecap="round" stroke-linejoin="round" d="M179.88,121.355
			c0.245-0.072,0.479-0.061,0.672,0.052"/>
		
			<line fill="none" stroke="#000000" stroke-width="0.25" stroke-linecap="round" stroke-linejoin="round" x1="213.619" y1="145.402" x2="180.973" y2="126.553"/>
		<polyline fill="none" stroke="#000000" stroke-width="0.25" stroke-linecap="round" stroke-linejoin="round" points="
			178.413,128.032 180.973,126.553 180.973,119.951 		"/>
		<g>
			<polygon fill="none" points="198.29,133.719 198.29,132.016 197.762,131.711 197.762,129.9 193.439,127.405 188.129,130.471 
				188.129,131.672 187.602,131.977 187.602,133.678 192.979,136.783 			"/>
			<polygon fill="none" points="187.602,133.678 187.602,131.977 188.129,132.281 188.129,130.471 192.452,132.967 192.452,134.776 
				192.979,135.081 192.979,136.783 			"/>
			<line fill="none" x1="188.129" y1="132.281" x2="188.129" y2="130.471"/>
			<line fill="none" x1="192.452" y1="132.967" x2="197.762" y2="129.9"/>
			<line fill="none" x1="192.452" y1="134.776" x2="197.762" y2="131.711"/>
			<line fill="none" x1="192.979" y1="135.081" x2="198.29" y2="132.016"/>
		</g>
		
			<line fill="none" stroke="#000000" stroke-width="0.25" stroke-linecap="round" stroke-linejoin="round" x1="172.073" y1="121.935" x2="172.95" y2="121.428"/>
		<polyline fill="none" stroke="#000000" stroke-width="0.25" stroke-linecap="round" stroke-linejoin="round" points="
			181.872,116.106 182.557,116.502 174.132,121.366 		"/>
		
			<line fill="none" stroke="#000000" stroke-width="0.5" stroke-linecap="round" stroke-linejoin="round" x1="173.444" y1="120.969" x2="181.872" y2="116.106"/>
		<polyline fill="none" stroke="#000000" stroke-width="0.25" stroke-linecap="round" stroke-linejoin="round" points="
			174.132,123.9 181.432,119.686 181.432,119.535 182.557,117.236 182.557,116.502 		"/>
		
			<line fill="none" stroke="#000000" stroke-width="0.5" stroke-linecap="round" stroke-linejoin="round" x1="174.132" y1="123.9" x2="181.432" y2="119.686"/>
		
			<line fill="none" stroke="#000000" stroke-width="0.25" stroke-linecap="round" stroke-linejoin="round" x1="181.432" y1="119.535" x2="214.677" y2="138.729"/>
		
			<line fill="none" stroke="#000000" stroke-width="0.25" stroke-linecap="round" stroke-linejoin="round" x1="182.557" y1="117.236" x2="213.619" y2="135.17"/>
		
			<line fill="none" stroke="#000000" stroke-width="0.25" stroke-linecap="round" stroke-linejoin="round" x1="182.932" y1="109.807" x2="214.677" y2="128.134"/>
		
			<line fill="none" stroke="#000000" stroke-width="0.25" stroke-linecap="round" stroke-linejoin="round" x1="182.932" y1="104.605" x2="213.619" y2="122.322"/>
		
			<line fill="none" stroke="#000000" stroke-width="0.25" stroke-linecap="round" stroke-linejoin="round" x1="182.932" y1="117.452" x2="182.932" y2="109.807"/>
		
			<line fill="none" stroke="#000000" stroke-width="0.25" stroke-linecap="round" stroke-linejoin="round" x1="182.932" y1="104.605" x2="182.932" y2="97.607"/>
		
			<line fill="none" stroke="#000000" stroke-width="0.25" stroke-linecap="round" stroke-linejoin="round" x1="177.368" y1="94.395" x2="180.053" y2="95.945"/>
		
			<line fill="none" stroke="#000000" stroke-width="0.25" stroke-linecap="round" stroke-linejoin="round" x1="181.432" y1="116.36" x2="181.432" y2="97.885"/>
		<path fill="none" stroke="#000000" stroke-width="0.25" stroke-linecap="round" stroke-linejoin="round" d="M182.932,117.452
			c0,0,2.907-5.238,0-7.646"/>
		<path fill="none" stroke="#000000" stroke-width="0.25" stroke-linecap="round" stroke-linejoin="round" d="M182.932,104.605
			c0,0,2.141-3.855,0.913-6.472"/>
		<path fill="none" stroke="#000000" stroke-width="0.25" stroke-linecap="round" stroke-linejoin="round" d="M190.124,113.949
			c0.588,0.344,1.187,0.425,1.642,0.162c0.624-0.361,0.819-1.273,0.582-2.305c-0.103-0.438-0.279-0.896-0.537-1.343
			c-0.435-0.75-1.006-1.323-1.582-1.647l-1.664-0.961c-0.574-0.323-1.153-0.396-1.601-0.14c-0.89,0.517-0.907,2.148-0.043,3.646
			c0.422,0.732,0.979,1.297,1.539,1.624L190.124,113.949z"/>
		<path fill="none" stroke="#000000" stroke-width="0.5" stroke-linecap="round" stroke-linejoin="round" d="M191.764,114.111
			c0.624-0.361,0.819-1.273,0.582-2.305c-0.103-0.438-0.279-0.896-0.537-1.343c-0.435-0.75-1.006-1.323-1.582-1.647l-1.664-0.961
			c-0.574-0.323-1.153-0.396-1.601-0.14"/>
		<path fill="none" stroke="#000000" stroke-width="0.25" stroke-linecap="round" stroke-linejoin="round" d="M188.817,108.003
			c-0.219,0.452-0.129,1.192,0.271,1.887c0.258,0.444,0.595,0.789,0.937,0.985l1.592,0.922c0.221,0.127,0.441,0.195,0.643,0.191"/>
		<path fill="none" stroke="#000000" stroke-width="0.25" stroke-linecap="round" stroke-linejoin="round" d="M188.72,107.945
			c-0.077,0.014-0.149,0.041-0.219,0.08c-0.541,0.313-0.553,1.305-0.024,2.217c0.256,0.445,0.594,0.789,0.936,0.986l1.592,0.921
			c0.357,0.209,0.722,0.259,0.998,0.099c0.107-0.063,0.193-0.149,0.259-0.26c0.033-0.057,0.063-0.118,0.086-0.185"/>
		<path fill="#FFFFFF" stroke="#000000" stroke-width="0.5" stroke-linecap="round" stroke-linejoin="round" d="M188.817,108.003
			c-0.219,0.452-0.129,1.192,0.271,1.887c0.258,0.444,0.595,0.789,0.937,0.985l1.592,0.922c0.221,0.127,0.441,0.195,0.643,0.191
			l0.005,0.004c0.032-0.057,0.061-0.119,0.084-0.186c-0.103-0.438-0.279-0.896-0.537-1.343c-0.435-0.75-1.006-1.323-1.582-1.647
			L188.817,108.003z"/>
		<polygon fill="#F1F2F2" stroke="#000000" stroke-width="0.25" stroke-linecap="round" stroke-linejoin="round" points="
			182.422,97.313 174.132,102.088 174.132,99.461 180.137,95.994 		"/>
		
			<line fill="none" stroke="#000000" stroke-width="0.5" stroke-linecap="round" stroke-linejoin="round" x1="219.625" y1="118.792" x2="180.053" y2="95.945"/>
		
			<line fill="none" stroke="#000000" stroke-width="0.5" stroke-linecap="round" stroke-linejoin="round" x1="174.132" y1="102.088" x2="182.422" y2="97.313"/>
		
			<line fill="none" stroke="#000000" stroke-width="0.25" stroke-linecap="round" stroke-linejoin="round" x1="214.27" y1="131.922" x2="214.677" y2="131.688"/>
		<path fill="none" stroke="#000000" stroke-width="0.5" stroke-linecap="round" stroke-linejoin="round" d="M222.375,120.38
			l3.427,1.979c0,0,0.268,0.153,0.268,0.507v4.752"/>
	</g>
	<path fill="none" stroke="#000000" stroke-linejoin="round" d="M216.719,142.259c0,0,1.843,1.184,2.571-0.423
		c0.729-1.605,1.431-5.285,2.992-5.285"/>
	<path fill="none" stroke="#000000" stroke-linecap="round" stroke-linejoin="round" d="M216.719,142.259
		c0,0,1.843,1.184,2.571-0.423"/>
	<path fill="none" stroke="#000000" stroke-linejoin="round" d="M223.363,149.791c0,3.416-0.641,6.193-1.736,8.449
		c-2.141,4.404-6.019,6.82-10.263,8.12"/>
	<path fill="none" stroke="#000000" stroke-linecap="round" stroke-linejoin="round" d="M221.627,158.24
		c-2.141,4.404-6.019,6.82-10.263,8.12"/>
	
		<linearGradient id="SVGID_1_" gradientUnits="userSpaceOnUse" x1="-11.6956" y1="286.2605" x2="0.4607" y2="286.2605" gradientTransform="matrix(1 0 0 -1 211.2446 453.3374)">
		<stop  offset="0.1" style="stop-color:#F1F2F2"/>
		<stop  offset="0.8" style="stop-color:#000000"/>
	</linearGradient>
	<path fill="url(#SVGID_1_)" d="M199.598,167.791c0-0.278,0.223-0.502,0.5-0.502l0,0c3.371,0.002,7.405-0.271,11.122-1.406l0,0
		c0.264-0.081,0.542,0.066,0.623,0.332l0,0c0.08,0.265-0.068,0.543-0.332,0.623l0,0c-3.864,1.183-7.988,1.452-11.413,1.455l0,0
		C199.821,168.293,199.598,168.067,199.598,167.791L199.598,167.791z"/>
	
		<linearGradient id="SVGID_2_" gradientUnits="userSpaceOnUse" x1="-11.8562" y1="285.032" x2="0.7536" y2="285.032" gradientTransform="matrix(1 0 0 -1 211.2446 453.3374)">
		<stop  offset="0.1" style="stop-color:#F1F2F2"/>
		<stop  offset="0.8" style="stop-color:#666666"/>
	</linearGradient>
	<path fill="url(#SVGID_2_)" d="M199.388,169.5c0-0.276,0.223-0.502,0.5-0.502l0,0c3.953,0.002,8.056-0.684,11.577-2.341l0,0h0.002
		c0.248-0.116,0.548-0.009,0.663,0.241l0,0c0.116,0.248,0.011,0.547-0.239,0.663l0,0c-3.698,1.738-7.937,2.438-12.003,2.438l0,0
		C199.611,170.002,199.388,169.776,199.388,169.5L199.388,169.5z"/>
	<path fill="none" stroke="#808285" stroke-linecap="round" stroke-linejoin="round" d="M216.719,129.094
		c0,0,1.843,1.183,2.571-0.424c0.729-1.605,2.03-3.7,3.131-3.237c1.234,0.52-0.405,2.224-0.797,3.894
		c-0.652,2.795,0.124,13.753,0.124,20.771c0,9.063-4.325,14.313-10.069,17.015"/>
	<polyline fill="none" stroke="#000000" stroke-width="0.5" stroke-linecap="round" stroke-linejoin="round" points="
		224.529,128.391 222.283,129.688 222.283,149.166 223.363,149.791 227.05,147.662 	"/>
	<g>
		
			<line fill="none" stroke="#FFFFFF" stroke-width="2" stroke-linecap="round" stroke-linejoin="round" x1="206.062" y1="101.688" x2="223.316" y2="91.727"/>
		
			<line fill="none" stroke="#000000" stroke-width="0.5" stroke-linecap="round" stroke-linejoin="round" stroke-dasharray="4,2,0,2" x1="206.062" y1="101.688" x2="223.316" y2="91.727"/>
	</g>
	<g>
		
			<line fill="none" stroke="#FFFFFF" stroke-width="2" stroke-linecap="round" stroke-linejoin="round" x1="169.176" y1="122.984" x2="190.086" y2="110.912"/>
		
			<line fill="none" stroke="#000000" stroke-width="0.5" stroke-linecap="round" stroke-linejoin="round" stroke-dasharray="4,2,0,2" x1="169.176" y1="122.984" x2="190.086" y2="110.912"/>
	</g>
	<g>
		
			<line fill="none" stroke="#FFFFFF" stroke-width="2" stroke-linecap="round" stroke-linejoin="round" x1="234.719" y1="136.182" x2="251.973" y2="126.22"/>
		
			<line fill="none" stroke="#000000" stroke-width="0.5" stroke-linecap="round" stroke-linejoin="round" stroke-dasharray="4,2,0,2" x1="234.719" y1="136.182" x2="251.973" y2="126.22"/>
	</g>
	<g>
		
			<line fill="none" stroke="#FFFFFF" stroke-width="2" stroke-linecap="round" stroke-linejoin="round" x1="200.061" y1="156.189" x2="213.621" y2="148.361"/>
		
			<line fill="none" stroke="#000000" stroke-width="0.5" stroke-linecap="round" stroke-linejoin="round" stroke-dasharray="4,2,0,2" x1="200.061" y1="156.189" x2="213.621" y2="148.361"/>
	</g>
</g>
</svg>
