<?xml version="1.0" encoding="utf-8"?>
<!-- Generator: Adobe Illustrator 15.0.2, SVG Export Plug-In . SVG Version: 6.00 Build 0)  -->
<!DOCTYPE svg PUBLIC "-//W3C//DTD SVG 1.1//EN" "http://www.w3.org/Graphics/SVG/1.1/DTD/svg11.dtd">
<svg version="1.1" id="Stuff" xmlns="http://www.w3.org/2000/svg" xmlns:xlink="http://www.w3.org/1999/xlink" x="0px" y="0px"
	 width="103.496px" height="89.225px" viewBox="158.085 103.301 103.496 89.225"
	 enable-background="new 158.085 103.301 103.496 89.225" xml:space="preserve">
<g>
	<g>
		<path fill="#F1F2F2" stroke="#000000" stroke-linecap="round" stroke-linejoin="round" d="M206.842,137.619v3.826l49.683,28.685
			l3.916-2.144v-14.229l0.641-0.371v-5.271l-0.641-0.371V133.17c0,0,0.018-0.604-0.563-0.94l-49.231-28.429l-3.805,2.195v1.24
			l-6.004,3.467v24.443l2.77,1.6l3.655-2.11l0.625,0.36l1.176-0.676c0.098-0.053,0.194-0.092,0.292-0.121l0.007,0.002
			c0.115,0.463-0.002,1.105-0.354,1.711c-0.279,0.486-0.653,0.854-1.026,1.049L206.842,137.619z"/>
		<g>
			<path fill="#CCCCCC" stroke="#000000" stroke-width="0.25" stroke-linecap="round" stroke-linejoin="round" d="M205.978,129.838
				c-0.104-0.012-0.202-0.045-0.292-0.096c-0.591-0.342-0.605-1.428-0.029-2.426c0.576-0.996,1.521-1.527,2.115-1.188
				c0.088,0.054,0.164,0.119,0.227,0.201l0.31,0.408c0.279,0.438,0.209,1.236-0.222,1.979c-0.42,0.729-1.055,1.187-1.569,1.185
				L205.978,129.838z"/>
			<path fill="none" stroke="#000000" stroke-width="0.5" stroke-linecap="round" stroke-linejoin="round" d="M207.998,126.33
				l0.31,0.408c0.279,0.439,0.209,1.236-0.222,1.98c-0.42,0.729-1.055,1.186-1.569,1.184l-0.538-0.064"/>
			<path fill="none" stroke="#000000" stroke-width="0.25" stroke-linecap="round" stroke-linejoin="round" d="M206.123,127.586
				c0.527-0.912,1.395-1.397,1.937-1.086c0.102,0.058,0.184,0.14,0.248,0.238c0.279,0.439,0.209,1.236-0.222,1.98
				c-0.42,0.729-1.055,1.186-1.569,1.184c-0.131-0.002-0.256-0.031-0.365-0.096C205.609,129.494,205.596,128.498,206.123,127.586z"
				/>
		</g>
		<g>
			<path fill="#F1F2F2" stroke="#000000" stroke-width="0.25" stroke-linecap="round" stroke-linejoin="round" d="M205.967,116.623
				c-0.104-0.014-0.202-0.045-0.293-0.096c-0.59-0.342-0.604-1.428-0.028-2.424c0.576-0.998,1.521-1.529,2.115-1.188
				c0.088,0.051,0.163,0.119,0.227,0.199l0.309,0.41c0.281,0.438,0.209,1.236-0.221,1.979c-0.42,0.729-1.055,1.185-1.57,1.183
				L205.967,116.623z"/>
			<path fill="none" stroke="#000000" stroke-width="0.5" stroke-linecap="round" stroke-linejoin="round" d="M207.986,113.115
				l0.309,0.41c0.281,0.438,0.209,1.236-0.221,1.979c-0.42,0.729-1.055,1.185-1.57,1.183l-0.537-0.063"/>
			<path fill="none" stroke="#000000" stroke-width="0.25" stroke-linecap="round" stroke-linejoin="round" d="M206.111,114.371
				c0.527-0.912,1.395-1.397,1.936-1.086c0.103,0.06,0.185,0.141,0.248,0.24c0.281,0.438,0.209,1.236-0.221,1.979
				c-0.42,0.729-1.055,1.185-1.57,1.183c-0.131,0-0.256-0.031-0.364-0.095C205.598,116.279,205.584,115.285,206.111,114.371z"/>
		</g>
		<path fill="none" stroke="#000000" stroke-linecap="round" stroke-linejoin="round" d="M211.787,117.936
			c0.34-0.935,1.113-1.615,1.617-1.326c0.582,0.379,0.265,1.389-0.496,2.147c-0.76,0.76-1.36,0.896-2.071,0.628
			c-0.609-0.224-0.804-1.236-0.429-2.267s1.23-1.779,1.784-1.461c0.644,0.418,0.292,1.529-0.546,2.367s-1.504,0.99-2.287,0.693
			c-0.67-0.244-0.881-1.361-0.469-2.492c0.41-1.133,1.352-1.959,1.961-1.607c0.707,0.459,0.32,1.682-0.602,2.604
			c-0.921,0.924-1.652,1.09-2.515,0.764c-0.734-0.271-0.967-1.492-0.516-2.734c0.451-1.239,1.482-2.146,2.151-1.76
			c0.775,0.502,0.353,1.844-0.66,2.854c-1.01,1.01-1.813,1.192-2.756,0.834c-0.797-0.289-1.047-1.613-0.559-2.957
			c0.487-1.343,1.531-2.195,2.329-1.904"/>
		<path fill="none" stroke="#000000" stroke-width="0.25" stroke-linecap="round" stroke-linejoin="round" d="M206.842,105.996
			l49.12,28.363c0.582,0.336,0.563,0.94,0.563,0.94v5.729l-3.686,2.127v19.479l3.686-2.129v9.623"/>
		<polyline fill="none" stroke="#000000" stroke-width="0.25" stroke-linecap="round" stroke-linejoin="round" points="
			200.838,110.703 203.606,112.303 203.606,114.93 202.918,114.545 202.918,112.805 201.547,112.014 201.547,134.779 
			202.918,135.572 202.918,133.814 203.606,134.211 203.606,136.746 		"/>
		
			<line fill="none" stroke="#000000" stroke-width="0.5" stroke-linecap="round" stroke-linejoin="round" x1="202.918" y1="135.572" x2="202.918" y2="133.814"/>
		<polyline fill="none" stroke="#000000" stroke-width="0.5" stroke-linecap="round" stroke-linejoin="round" points="
			203.606,114.93 202.918,114.545 202.918,112.805 201.547,112.014 		"/>
		<g>
			<polygon fill="none" stroke="#000000" stroke-width="0.25" stroke-linecap="round" stroke-linejoin="round" points="
				202.219,112.736 202.574,112.941 202.574,134.367 202.219,134.162 			"/>
			<polyline fill="none" stroke="#000000" stroke-width="0.5" stroke-linecap="round" stroke-linejoin="round" points="
				202.574,134.367 202.219,134.162 202.219,112.736 			"/>
			
				<line fill="none" stroke="#000000" stroke-width="0.5" stroke-linecap="round" stroke-linejoin="round" x1="202.574" y1="134.367" x2="202.918" y2="134.17"/>
			
				<line fill="none" stroke="#000000" stroke-width="0.5" stroke-linecap="round" stroke-linejoin="round" x1="202.219" y1="112.736" x2="202.508" y2="112.568"/>
			
				<line fill="none" stroke="#000000" stroke-width="0.25" stroke-linecap="round" stroke-linejoin="round" x1="202.574" y1="112.941" x2="202.865" y2="112.775"/>
		</g>
		<polyline fill="none" stroke="#000000" stroke-width="0.25" stroke-linecap="round" stroke-linejoin="round" points="
			255.543,161.072 255.543,168.391 207.887,140.877 207.887,138.223 206.842,137.619 		"/>
		<polyline fill="none" stroke="#000000" stroke-width="0.25" stroke-linecap="round" stroke-linejoin="round" points="
			260.439,147.744 259.234,148.439 259.234,153.712 		"/>
		<polyline fill="none" stroke="#000000" stroke-width="0.25" stroke-linecap="round" stroke-linejoin="round" points="
			259.234,148.439 259.878,148.809 261.08,148.115 		"/>
		
			<line fill="none" stroke="#000000" stroke-width="0.25" stroke-linecap="round" stroke-linejoin="round" x1="259.878" y1="148.809" x2="259.878" y2="154.08"/>
		<polyline fill="none" stroke="#000000" stroke-width="0.5" stroke-linecap="round" stroke-linejoin="round" points="
			259.234,153.712 259.878,154.08 261.08,153.385 		"/>
		
			<line fill="none" stroke="#000000" stroke-width="0.25" stroke-linecap="round" stroke-linejoin="round" x1="203.606" y1="112.303" x2="209.611" y2="108.834"/>
		<path fill="none" stroke="#000000" stroke-width="0.25" stroke-linecap="round" stroke-linejoin="round" d="M209.063,134.32
			c0.098-0.053,0.194-0.092,0.292-0.121c0.245-0.07,0.479-0.059,0.671,0.053c0.553,0.32,0.564,1.334,0.027,2.265
			c-0.281,0.485-0.654,0.854-1.027,1.049l-1.139,0.658"/>
		<path fill="none" stroke="#000000" stroke-width="0.5" stroke-linecap="round" stroke-linejoin="round" d="M209.354,134.199
			c0.245-0.07,0.478-0.059,0.671,0.053"/>
		
			<line fill="none" stroke="#000000" stroke-width="0.25" stroke-linecap="round" stroke-linejoin="round" x1="243.094" y1="158.246" x2="210.447" y2="139.398"/>
		<polyline fill="none" stroke="#000000" stroke-width="0.25" stroke-linecap="round" stroke-linejoin="round" points="
			207.887,140.877 210.447,139.398 210.447,132.795 		"/>
		<g>
			<polygon fill="#CCCCCC" stroke="#000000" stroke-width="0.5" stroke-linecap="round" stroke-linejoin="round" points="
				227.764,146.563 227.764,144.861 227.236,144.557 227.236,142.746 222.913,140.25 217.604,143.316 217.604,144.518 
				217.076,144.82 217.076,146.523 222.453,149.628 			"/>
			<polygon fill="none" stroke="#000000" stroke-width="0.25" stroke-linecap="round" stroke-linejoin="round" points="
				217.076,146.523 217.076,144.82 217.604,145.125 217.604,143.316 221.927,145.811 221.927,147.621 222.453,147.927 
				222.453,149.628 			"/>
			
				<line fill="none" stroke="#000000" stroke-width="0.5" stroke-linecap="round" stroke-linejoin="round" x1="217.604" y1="145.125" x2="217.604" y2="143.316"/>
			
				<line fill="none" stroke="#000000" stroke-width="0.25" stroke-linecap="round" stroke-linejoin="round" x1="221.927" y1="145.811" x2="227.236" y2="142.746"/>
			
				<line fill="none" stroke="#000000" stroke-width="0.25" stroke-linecap="round" stroke-linejoin="round" x1="221.927" y1="147.621" x2="227.236" y2="144.557"/>
			
				<line fill="none" stroke="#000000" stroke-width="0.25" stroke-linecap="round" stroke-linejoin="round" x1="222.453" y1="147.927" x2="227.764" y2="144.861"/>
		</g>
		
			<line fill="none" stroke="#000000" stroke-width="0.25" stroke-linecap="round" stroke-linejoin="round" x1="201.547" y1="134.779" x2="202.424" y2="134.273"/>
		<polyline fill="none" stroke="#000000" stroke-width="0.25" stroke-linecap="round" stroke-linejoin="round" points="
			211.346,128.951 212.031,129.348 203.606,134.211 		"/>
		
			<line fill="none" stroke="#000000" stroke-width="0.5" stroke-linecap="round" stroke-linejoin="round" x1="202.918" y1="133.814" x2="211.346" y2="128.951"/>
		<polyline fill="none" stroke="#000000" stroke-width="0.25" stroke-linecap="round" stroke-linejoin="round" points="
			203.606,136.746 210.906,132.531 210.906,132.381 212.031,130.08 212.031,129.348 		"/>
		
			<line fill="none" stroke="#000000" stroke-width="0.5" stroke-linecap="round" stroke-linejoin="round" x1="203.606" y1="136.746" x2="210.906" y2="132.531"/>
		
			<line fill="none" stroke="#000000" stroke-width="0.25" stroke-linecap="round" stroke-linejoin="round" x1="210.906" y1="132.381" x2="244.15" y2="151.572"/>
		
			<line fill="none" stroke="#000000" stroke-width="0.25" stroke-linecap="round" stroke-linejoin="round" x1="212.031" y1="130.08" x2="243.094" y2="148.016"/>
		
			<line fill="none" stroke="#000000" stroke-width="0.25" stroke-linecap="round" stroke-linejoin="round" x1="212.406" y1="122.65" x2="244.15" y2="140.979"/>
		
			<line fill="none" stroke="#000000" stroke-width="0.25" stroke-linecap="round" stroke-linejoin="round" x1="212.406" y1="117.447" x2="243.094" y2="135.168"/>
		
			<line fill="none" stroke="#000000" stroke-width="0.25" stroke-linecap="round" stroke-linejoin="round" x1="212.406" y1="130.297" x2="212.406" y2="122.65"/>
		
			<line fill="none" stroke="#000000" stroke-width="0.25" stroke-linecap="round" stroke-linejoin="round" x1="212.406" y1="117.447" x2="212.406" y2="110.449"/>
		
			<line fill="none" stroke="#000000" stroke-width="0.25" stroke-linecap="round" stroke-linejoin="round" x1="206.842" y1="107.236" x2="209.527" y2="108.785"/>
		
			<line fill="none" stroke="#000000" stroke-width="0.25" stroke-linecap="round" stroke-linejoin="round" x1="210.906" y1="129.205" x2="210.906" y2="110.727"/>
		<path fill="none" stroke="#000000" stroke-width="0.25" stroke-linecap="round" stroke-linejoin="round" d="M212.406,130.297
			c0,0,2.908-5.239,0-7.646"/>
		<path fill="none" stroke="#000000" stroke-width="0.25" stroke-linecap="round" stroke-linejoin="round" d="M212.406,117.447
			c0,0,2.142-3.855,0.913-6.473"/>
		<path fill="none" stroke="#000000" stroke-width="0.25" stroke-linecap="round" stroke-linejoin="round" d="M219.598,126.793
			c0.588,0.345,1.186,0.424,1.641,0.162c0.624-0.36,0.82-1.272,0.582-2.305c-0.102-0.438-0.278-0.896-0.537-1.342
			c-0.434-0.75-1.006-1.326-1.582-1.648l-1.664-0.963c-0.573-0.322-1.152-0.393-1.6-0.137c-0.89,0.514-0.908,2.146-0.043,3.646
			c0.422,0.732,0.979,1.297,1.539,1.623L219.598,126.793z"/>
		<path fill="none" stroke="#000000" stroke-width="0.5" stroke-linecap="round" stroke-linejoin="round" d="M221.238,126.955
			c0.624-0.36,0.82-1.272,0.582-2.305c-0.102-0.438-0.279-0.896-0.537-1.342c-0.434-0.75-1.006-1.326-1.582-1.648l-1.664-0.963
			c-0.573-0.322-1.152-0.393-1.6-0.137"/>
		<path fill="none" stroke="#000000" stroke-width="0.25" stroke-linecap="round" stroke-linejoin="round" d="M218.291,120.846
			c-0.219,0.452-0.129,1.192,0.271,1.887c0.257,0.442,0.594,0.789,0.936,0.986l1.593,0.922c0.221,0.127,0.44,0.194,0.643,0.19"/>
		<path fill="none" stroke="#000000" stroke-width="0.25" stroke-linecap="round" stroke-linejoin="round" d="M218.194,120.787
			c-0.077,0.017-0.148,0.041-0.218,0.08c-0.541,0.314-0.553,1.307-0.025,2.219c0.256,0.445,0.595,0.789,0.937,0.986l1.592,0.92
			c0.357,0.209,0.721,0.26,0.998,0.1c0.106-0.063,0.193-0.149,0.258-0.26c0.034-0.057,0.063-0.119,0.086-0.186"/>
		<path fill="#FFFFFF" stroke="#000000" stroke-width="0.5" stroke-linecap="round" stroke-linejoin="round" d="M218.291,120.846
			c-0.219,0.452-0.129,1.192,0.271,1.887c0.257,0.442,0.594,0.789,0.936,0.986l1.593,0.922c0.221,0.127,0.44,0.194,0.643,0.19
			l0.004,0.004c0.033-0.057,0.062-0.119,0.084-0.186c-0.102-0.438-0.278-0.896-0.537-1.342c-0.434-0.75-1.006-1.326-1.582-1.648
			L218.291,120.846z"/>
		<polygon fill="#F1F2F2" stroke="#000000" stroke-width="0.25" stroke-linecap="round" stroke-linejoin="round" points="
			211.896,110.154 203.606,114.93 203.606,112.303 209.611,108.834 		"/>
		
			<line fill="none" stroke="#000000" stroke-width="0.5" stroke-linecap="round" stroke-linejoin="round" x1="249.099" y1="131.637" x2="209.527" y2="108.785"/>
		
			<line fill="none" stroke="#000000" stroke-width="0.5" stroke-linecap="round" stroke-linejoin="round" x1="203.606" y1="114.93" x2="211.896" y2="110.154"/>
	</g>
	<g>
		<path fill="#F1F2F2" stroke="#000000" stroke-linecap="round" stroke-linejoin="round" d="M240.086,156.007
			c2.061,1.19,5.382-0.699,7.416-4.224c2.032-3.521,2.011-7.344-0.052-8.533l-35.555-20.528c-2.063-1.189-5.382,0.702-7.416,4.225
			c-2.033,3.523-2.012,7.344,0.051,8.535L240.086,156.007z"/>
		
			<ellipse transform="matrix(0.5 -0.866 0.866 0.5 -7.7132 285.9011)" fill="none" stroke="#000000" stroke-width="0.25" stroke-linecap="round" stroke-linejoin="round" cx="243.752" cy="149.631" rx="7.365" ry="4.311"/>
		
			<ellipse transform="matrix(0.4999 -0.8661 0.8661 0.4999 -7.6857 285.9634)" fill="none" stroke="#000000" stroke-width="0.25" stroke-linecap="round" stroke-linejoin="round" cx="243.762" cy="149.636" rx="4.714" ry="2.759"/>
	</g>
	<g>
		<path fill="#F1F2F2" stroke="#000000" stroke-linecap="round" stroke-linejoin="round" d="M242.993,144.451
			c2.063,1.191,5.384-0.698,7.416-4.223c2.035-3.523,2.013-7.345-0.05-8.533l-35.554-20.531c-2.063-1.188-5.384,0.701-7.416,4.226
			c-2.034,3.522-2.013,7.344,0.051,8.534L242.993,144.451z"/>
		
			<ellipse transform="matrix(0.5 -0.866 0.866 0.5 3.7473 282.6426)" fill="none" stroke="#000000" stroke-width="0.25" stroke-linecap="round" stroke-linejoin="round" cx="246.66" cy="138.076" rx="7.365" ry="4.311"/>
		
			<ellipse transform="matrix(0.5 -0.866 0.866 0.5 3.7607 282.6484)" fill="none" stroke="#000000" stroke-width="0.25" stroke-linecap="round" stroke-linejoin="round" cx="246.676" cy="138.067" rx="5.229" ry="3.06"/>
		
			<ellipse transform="matrix(0.5003 -0.8659 0.8659 0.5003 3.7108 283.967)" fill="none" stroke="#000000" stroke-width="0.25" stroke-linecap="round" stroke-linejoin="round" cx="247.863" cy="138.769" rx="2.651" ry="1.552"/>
		<path fill="none" stroke="#000000" stroke-width="0.25" stroke-linecap="round" stroke-linejoin="round" d="M245.351,140.369
			c-0.742-0.428-0.75-1.803-0.018-3.072c0.731-1.268,1.926-1.946,2.67-1.52l1.184,0.684c0.742,0.429,0.75,1.804,0.018,3.072
			c-0.73,1.269-1.928,1.947-2.669,1.521L245.351,140.369z"/>
		<path fill="none" stroke="#000000" stroke-width="0.5" stroke-linecap="round" stroke-linejoin="round" d="M248.004,135.777
			l1.184,0.684c0.742,0.429,0.75,1.804,0.018,3.072c-0.73,1.269-1.928,1.947-2.669,1.521l-1.185-0.685"/>
	</g>
	<g>
		<g>
			<path fill="none" stroke="#000000" stroke-width="0.25" stroke-linecap="round" stroke-linejoin="round" d="M246.896,155.348
				c-0.002-0.685,0.226-1.238,0.683-1.502c0.623-0.361,1.512-0.074,2.286,0.646c0.327,0.308,0.635,0.691,0.894,1.138
				c0.434,0.75,0.645,1.534,0.637,2.194l0.002,1.92c-0.009,0.66-0.236,1.197-0.682,1.455c-0.892,0.515-2.314-0.285-3.181-1.785
				c-0.422-0.731-0.635-1.495-0.637-2.145L246.896,155.348z"/>
			<path fill="none" stroke="#000000" stroke-width="0.5" stroke-linecap="round" stroke-linejoin="round" d="M247.579,153.846
				c0.623-0.361,1.512-0.074,2.286,0.646c0.327,0.308,0.635,0.691,0.894,1.138c0.434,0.75,0.645,1.534,0.637,2.194l0.002,1.92
				c-0.009,0.66-0.236,1.197-0.682,1.455"/>
		</g>
		<path fill="none" stroke="#000000" stroke-linecap="round" stroke-linejoin="round" d="M242.953,149.4
			c0.639-0.762,0.841-1.771,0.338-2.063c-0.62-0.314-1.332,0.465-1.61,1.502c-0.277,1.037-0.096,1.627,0.492,2.106
			c0.497,0.418,1.473,0.078,2.176-0.762c0.703-0.838,0.927-1.955,0.372-2.273c-0.684-0.35-1.468,0.511-1.775,1.654
			c-0.307,1.145-0.104,1.797,0.543,2.326c0.547,0.459,1.618,0.084,2.394-0.838c0.774-0.922,1.021-2.15,0.409-2.502
			c-0.751-0.383-1.615,0.563-1.953,1.821s-0.115,1.976,0.598,2.558c0.6,0.504,1.775,0.094,2.625-0.918
			c0.848-1.012,1.117-2.359,0.449-2.746c-0.824-0.418-1.773,0.619-2.144,2c-0.371,1.379-0.129,2.166,0.656,2.805
			c0.647,0.545,1.92,0.101,2.839-0.994c0.919-1.096,1.136-2.426,0.485-2.971"/>
		<polygon fill="#F1F2F2" points="251.759,142.533 251.759,157.718 245.85,161.13 243.094,159.544 243.094,157.01 244.15,156.4 
			244.15,150.494 243.743,150.729 243.094,150.354 243.094,144.393 244.15,143.783 244.15,137.883 243.743,138.117 243.094,137.744 
			243.094,135.104 249.099,131.637 254.156,134.529 254.177,136.961 254.005,141.236 		"/>
		
			<line fill="none" stroke="#000000" stroke-width="0.5" stroke-linecap="round" stroke-linejoin="round" x1="252.839" y1="162.635" x2="256.523" y2="160.507"/>
		<polygon fill="none" stroke="#000000" stroke-width="0.25" stroke-linecap="round" stroke-linejoin="round" points="
			245.844,136.691 243.094,135.104 243.094,137.744 243.743,138.117 243.743,136.379 245.203,137.223 245.203,140.67 
			245.844,141.061 		"/>
		<polyline fill="none" stroke="#000000" stroke-width="0.5" stroke-linecap="round" stroke-linejoin="round" points="
			243.743,136.379 245.203,137.223 245.203,140.67 245.844,141.061 		"/>
		<polyline fill="none" stroke="#000000" stroke-width="0.5" stroke-linecap="round" stroke-linejoin="round" points="
			243.094,135.104 243.094,137.744 243.743,138.117 		"/>
		<polygon fill="none" stroke="#000000" stroke-width="0.25" stroke-linecap="round" stroke-linejoin="round" points="
			243.094,144.393 243.743,144.768 243.743,146.8 245.203,147.641 245.203,143.311 245.844,143.682 245.844,154.257 
			245.203,153.887 245.203,149.544 243.743,148.699 243.743,150.729 243.094,150.354 		"/>
		<polyline fill="none" stroke="#000000" stroke-width="0.5" stroke-linecap="round" stroke-linejoin="round" points="
			243.743,150.729 243.094,150.354 243.094,144.393 		"/>
		<polyline fill="none" stroke="#000000" stroke-width="0.5" stroke-linecap="round" stroke-linejoin="round" points="
			245.844,154.257 245.203,153.887 245.203,149.544 243.743,148.699 		"/>
		
			<line fill="none" stroke="#000000" stroke-width="0.5" stroke-linecap="round" stroke-linejoin="round" x1="245.203" y1="147.641" x2="245.203" y2="143.311"/>
		<polygon fill="none" stroke="#000000" stroke-width="0.25" stroke-linecap="round" stroke-linejoin="round" points="
			243.094,157.01 243.742,157.384 243.743,159.143 245.203,159.984 245.203,156.541 245.844,156.91 245.85,161.13 243.094,159.544 
					"/>
		<polyline fill="none" stroke="#000000" stroke-width="0.5" stroke-linecap="round" stroke-linejoin="round" points="
			245.85,161.13 243.094,159.544 243.094,157.01 		"/>
		
			<line fill="none" stroke="#000000" stroke-width="0.5" stroke-linecap="round" stroke-linejoin="round" x1="245.203" y1="159.984" x2="245.203" y2="156.541"/>
		<polyline fill="none" stroke="#000000" stroke-width="0.25" stroke-linecap="round" stroke-linejoin="round" points="
			256.523,141.029 255.543,140.461 255.543,137.75 254.177,136.961 254.177,134.568 249.099,131.637 		"/>
		
			<line fill="none" stroke="#000000" stroke-width="0.25" stroke-linecap="round" stroke-linejoin="round" x1="251.85" y1="133.225" x2="245.844" y2="136.691"/>
		<polyline fill="none" stroke="#000000" stroke-width="0.25" stroke-linecap="round" stroke-linejoin="round" points="
			254.177,136.961 248.143,140.445 248.143,141.156 250.187,142.337 252.434,141.039 253.389,141.592 		"/>
		<polyline fill="none" stroke="#000000" stroke-width="0.5" stroke-linecap="round" stroke-linejoin="round" points="
			248.143,141.156 250.187,142.337 252.434,141.039 253.389,141.592 		"/>
		<polyline fill="none" stroke="#000000" stroke-width="0.5" stroke-linecap="round" stroke-linejoin="round" points="
			254.005,141.236 251.759,142.533 251.759,162.012 252.839,162.635 		"/>
		<polyline fill="none" stroke="#000000" stroke-width="0.25" stroke-linecap="round" stroke-linejoin="round" points="
			248.143,140.445 250.187,141.625 252.434,140.328 254.005,141.236 		"/>
		<polyline fill="none" stroke="#000000" stroke-width="0.5" stroke-linecap="round" stroke-linejoin="round" points="
			245.203,143.311 246.798,142.391 246.798,140.592 		"/>
		<polyline fill="none" stroke="#000000" stroke-width="0.25" stroke-linecap="round" stroke-linejoin="round" points="
			245.844,141.061 247.438,140.119 247.438,142.76 245.844,143.682 		"/>
		
			<line fill="none" stroke="#000000" stroke-width="0.5" stroke-linecap="round" stroke-linejoin="round" x1="245.844" y1="141.061" x2="247.438" y2="140.119"/>
		
			<line fill="none" stroke="#000000" stroke-width="0.25" stroke-linecap="round" stroke-linejoin="round" x1="251.759" y1="142.533" x2="252.839" y2="143.156"/>
		
			<line fill="none" stroke="#000000" stroke-width="0.25" stroke-linecap="round" stroke-linejoin="round" x1="252.434" y1="140.328" x2="252.434" y2="141.039"/>
		
			<line fill="none" stroke="#000000" stroke-width="0.25" stroke-linecap="round" stroke-linejoin="round" x1="250.187" y1="141.625" x2="250.187" y2="142.337"/>
		<polyline fill="none" stroke="#000000" stroke-width="0.25" stroke-linecap="round" stroke-linejoin="round" points="
			251.759,151.677 248.143,153.762 248.143,154.475 250.187,155.654 251.759,154.748 		"/>
		<polyline fill="none" stroke="#000000" stroke-width="0.5" stroke-linecap="round" stroke-linejoin="round" points="
			248.143,154.475 250.187,155.654 251.759,154.748 		"/>
		<polyline fill="none" stroke="#000000" stroke-width="0.25" stroke-linecap="round" stroke-linejoin="round" points="
			248.143,153.762 250.187,154.943 251.759,154.037 		"/>
		
			<line fill="none" stroke="#000000" stroke-width="0.25" stroke-linecap="round" stroke-linejoin="round" x1="250.187" y1="154.943" x2="250.187" y2="155.654"/>
		
			<line fill="none" stroke="#000000" stroke-width="0.5" stroke-linecap="round" stroke-linejoin="round" x1="249.099" y1="131.637" x2="243.094" y2="135.104"/>
		<polyline fill="none" stroke="#000000" stroke-width="0.25" stroke-linecap="round" stroke-linejoin="round" points="
			245.844,154.257 247.438,153.337 247.438,155.99 245.844,156.91 		"/>
		
			<line fill="none" stroke="#000000" stroke-width="0.5" stroke-linecap="round" stroke-linejoin="round" x1="245.844" y1="154.257" x2="247.438" y2="153.337"/>
		<polyline fill="none" stroke="#000000" stroke-width="0.5" stroke-linecap="round" stroke-linejoin="round" points="
			246.798,153.705 246.798,155.621 245.203,156.541 		"/>
		<polygon fill="none" stroke="#000000" stroke-width="0.25" stroke-linecap="round" stroke-linejoin="round" points="
			244.15,149.48 244.507,149.686 244.507,158.919 244.15,158.714 		"/>
		<polyline fill="none" stroke="#000000" stroke-width="0.5" stroke-linecap="round" stroke-linejoin="round" points="
			244.507,158.919 244.15,158.714 244.15,149.48 		"/>
		
			<line fill="none" stroke="#000000" stroke-width="0.5" stroke-linecap="round" stroke-linejoin="round" x1="244.507" y1="158.919" x2="245.203" y2="158.514"/>
		
			<line fill="none" stroke="#000000" stroke-width="0.5" stroke-linecap="round" stroke-linejoin="round" x1="244.15" y1="149.48" x2="244.623" y2="149.207"/>
		
			<line fill="none" stroke="#000000" stroke-width="0.25" stroke-linecap="round" stroke-linejoin="round" x1="244.507" y1="149.686" x2="244.979" y2="149.412"/>
		<g>
			<polygon fill="none" stroke="#000000" stroke-width="0.25" stroke-linecap="round" stroke-linejoin="round" points="
				244.15,137.16 244.507,137.365 244.507,146.598 244.15,146.393 			"/>
			<polyline fill="none" stroke="#000000" stroke-width="0.5" stroke-linecap="round" stroke-linejoin="round" points="
				244.507,146.598 244.15,146.393 244.15,137.16 			"/>
			
				<line fill="none" stroke="#000000" stroke-width="0.5" stroke-linecap="round" stroke-linejoin="round" x1="244.507" y1="146.598" x2="245.203" y2="146.195"/>
			
				<line fill="none" stroke="#000000" stroke-width="0.5" stroke-linecap="round" stroke-linejoin="round" x1="244.15" y1="137.16" x2="244.623" y2="136.887"/>
			
				<line fill="none" stroke="#000000" stroke-width="0.25" stroke-linecap="round" stroke-linejoin="round" x1="244.507" y1="137.365" x2="244.979" y2="137.092"/>
		</g>
		
			<line fill="none" stroke="#000000" stroke-width="0.5" stroke-linecap="round" stroke-linejoin="round" x1="243.094" y1="144.393" x2="244.15" y2="143.783"/>
		
			<line fill="none" stroke="#000000" stroke-width="0.5" stroke-linecap="round" stroke-linejoin="round" x1="243.743" y1="150.729" x2="244.15" y2="150.494"/>
		
			<line fill="none" stroke="#000000" stroke-width="0.25" stroke-linecap="round" stroke-linejoin="round" x1="243.743" y1="146.8" x2="244.3" y2="146.479"/>
		
			<line fill="none" stroke="#000000" stroke-width="0.25" stroke-linecap="round" stroke-linejoin="round" x1="246.798" y1="142.391" x2="247.438" y2="142.76"/>
		
			<line fill="none" stroke="#000000" stroke-width="0.5" stroke-linecap="round" stroke-linejoin="round" x1="243.094" y1="157.01" x2="244.15" y2="156.4"/>
		
			<line fill="none" stroke="#000000" stroke-width="0.25" stroke-linecap="round" stroke-linejoin="round" x1="243.742" y1="157.384" x2="244.15" y2="157.148"/>
		
			<line fill="none" stroke="#000000" stroke-width="0.25" stroke-linecap="round" stroke-linejoin="round" x1="243.743" y1="159.143" x2="244.318" y2="158.811"/>
		
			<line fill="none" stroke="#000000" stroke-width="0.25" stroke-linecap="round" stroke-linejoin="round" x1="246.798" y1="155.621" x2="247.438" y2="155.99"/>
		
			<line fill="none" stroke="#000000" stroke-width="0.5" stroke-linecap="round" stroke-linejoin="round" x1="255.543" y1="161.072" x2="255.543" y2="168.391"/>
		
			<line fill="none" stroke="#000000" stroke-width="0.5" stroke-linecap="round" stroke-linejoin="round" x1="251.759" y1="157.718" x2="245.85" y2="161.13"/>
		
			<line fill="none" stroke="#000000" stroke-width="0.25" stroke-linecap="round" stroke-linejoin="round" x1="255.543" y1="165.434" x2="246.968" y2="160.482"/>
		
			<line fill="none" stroke="#000000" stroke-width="0.5" stroke-linecap="round" stroke-linejoin="round" x1="243.743" y1="138.117" x2="244.15" y2="137.883"/>
		
			<line fill="none" stroke="#000000" stroke-width="0.25" stroke-linecap="round" stroke-linejoin="round" x1="243.743" y1="144.768" x2="244.15" y2="144.531"/>
		<path fill="none" stroke="#000000" stroke-width="0.5" stroke-linecap="round" stroke-linejoin="round" d="M251.85,133.225
			l3.426,1.979c0,0,0.268,0.154,0.268,0.508v4.75"/>
	</g>
	<path fill="none" stroke="#000000" stroke-linejoin="round" d="M246.193,155.104c0,0,1.843,1.184,2.572-0.422
		c0.729-1.606,1.43-5.285,2.992-5.285"/>
	<path fill="none" stroke="#000000" stroke-linecap="round" stroke-linejoin="round" d="M246.193,155.104
		c0,0,1.843,1.184,2.572-0.422"/>
	<path fill="none" stroke="#000000" stroke-linejoin="round" d="M252.839,162.637c0,3.416-0.642,6.192-1.737,8.449
		c-2.14,4.403-6.018,6.819-10.262,8.118"/>
	<path fill="none" stroke="#000000" stroke-linecap="round" stroke-linejoin="round" d="M251.101,171.087
		c-2.14,4.403-6.018,6.819-10.262,8.118"/>
	<path d="M229.072,180.637c0-0.279,0.224-0.502,0.5-0.502l0,0c3.37,0.002,7.406-0.271,11.121-1.408l0,0
		c0.264-0.08,0.542,0.068,0.623,0.332l0,0c0.08,0.266-0.068,0.543-0.332,0.623l0,0c-3.864,1.184-7.988,1.453-11.412,1.455l0,0
		C229.296,181.137,229.072,180.912,229.072,180.637L229.072,180.637z"/>
	<path fill="#808285" d="M228.863,182.346c0-0.277,0.224-0.502,0.499-0.502l0,0c3.954,0.002,8.057-0.685,11.577-2.342l0,0h0.002
		c0.248-0.115,0.548-0.009,0.663,0.241l0,0c0.117,0.248,0.011,0.547-0.239,0.662l0,0c-3.697,1.738-7.936,2.438-12.003,2.439l0,0
		C229.087,182.846,228.863,182.621,228.863,182.346L228.863,182.346z"/>
	<path fill="none" stroke="#808285" stroke-linecap="round" stroke-linejoin="round" d="M246.193,141.939
		c0,0,1.843,1.183,2.572-0.424c0.729-1.605,2.03-3.7,3.13-3.238c1.235,0.52-0.405,2.225-0.796,3.895
		c-0.653,2.796,0.124,13.755,0.124,20.771c0,9.063-4.326,14.313-10.07,17.014"/>
	<polyline fill="none" stroke="#000000" stroke-width="0.5" stroke-linecap="round" stroke-linejoin="round" points="
		254.005,141.236 251.759,142.533 251.759,162.012 252.839,162.637 256.523,160.509 	"/>
	<g>
		<path fill="#F1F2F2" stroke="#000000" stroke-width="1.5" stroke-linecap="round" stroke-linejoin="round" d="M184.496,117.229
			l49.44,28.547c0,0,1.428,0.824,1.428,2.521v14.633l-2.125,1.227v4.383l1.328-0.766l0.797,0.459v14.586c0,0,0,0.56-0.337,0.754
			l-13.921,8.037c0,0-0.529,0.308-0.92,0.082l-50.115-28.936c0,0-0.313-0.203-0.313-0.627v-35.316c0,0-0.038-1.705,0.607-2.08
			l13.048-7.533C183.414,117.199,183.928,116.902,184.496,117.229z"/>
		<path fill="none" stroke="#000000" stroke-width="0.25" stroke-linecap="round" stroke-linejoin="round" d="M169.759,127.066
			c0,0,0,3.551,0.988,4.123l45.734,26.404"/>
		<path fill="none" stroke="#000000" stroke-width="0.25" stroke-linecap="round" stroke-linejoin="round" d="M219.608,191.357
			c-2.145-1.238-3.127-3.129-3.127-3.129l-45.734-26.404v-30.635"/>
		
			<line fill="none" stroke="#000000" stroke-width="0.25" stroke-linecap="round" stroke-linejoin="round" x1="216.481" y1="188.229" x2="216.481" y2="157.594"/>
		
			<line fill="none" stroke="#000000" stroke-width="0.25" stroke-linecap="round" stroke-linejoin="round" x1="216.481" y1="157.594" x2="220.65" y2="155.188"/>
		
			<line fill="none" stroke="#000000" stroke-width="0.25" stroke-linecap="round" stroke-linejoin="round" x1="171.036" y1="124.678" x2="220.758" y2="153.385"/>
		
			<line fill="none" stroke="#000000" stroke-width="0.25" stroke-linecap="round" stroke-linejoin="round" x1="222.469" y1="190.822" x2="222.469" y2="155.514"/>
		
			<line fill="none" stroke="#000000" stroke-width="0.25" stroke-linecap="round" stroke-linejoin="round" x1="220.758" y1="153.385" x2="233.239" y2="146.178"/>
		
			<line fill="none" stroke="#000000" stroke-width="0.25" stroke-linecap="round" stroke-linejoin="round" x1="222.469" y1="155.514" x2="234.219" y2="148.73"/>
		<g>
			<path fill="#231F20" d="M199.594,153.302l-0.404-0.234l-0.162-0.678l-0.736-0.426l-0.151,0.498l-0.396-0.229l0.719-2.164
				l0.396,0.228L199.594,153.302z M198.907,151.885l-0.254-1.104l-0.25,0.814L198.907,151.885z"/>
			<path fill="#231F20" d="M199.696,152.521l0.363,0.162c0.021,0.182,0.065,0.33,0.133,0.449c0.065,0.117,0.156,0.211,0.27,0.274
				c0.119,0.07,0.21,0.086,0.271,0.052c0.061-0.035,0.091-0.103,0.091-0.197c0-0.062-0.013-0.119-0.038-0.178
				c-0.024-0.058-0.07-0.119-0.135-0.189c-0.043-0.045-0.144-0.141-0.298-0.283c-0.2-0.186-0.34-0.352-0.421-0.5
				c-0.113-0.205-0.17-0.412-0.17-0.615c0-0.133,0.026-0.237,0.079-0.321c0.054-0.084,0.132-0.127,0.23-0.129
				c0.099-0.003,0.222,0.038,0.363,0.12c0.231,0.134,0.405,0.306,0.522,0.515s0.179,0.434,0.185,0.676l-0.372-0.191
				c-0.018-0.143-0.05-0.258-0.104-0.346c-0.053-0.09-0.131-0.164-0.235-0.225c-0.107-0.063-0.193-0.08-0.254-0.054
				c-0.039,0.019-0.06,0.06-0.06,0.125c0,0.063,0.019,0.125,0.055,0.189c0.048,0.082,0.162,0.205,0.343,0.369
				c0.182,0.164,0.315,0.305,0.401,0.418c0.088,0.115,0.154,0.24,0.205,0.381c0.049,0.139,0.072,0.289,0.072,0.451
				c0,0.147-0.029,0.27-0.088,0.365c-0.06,0.095-0.142,0.143-0.249,0.143c-0.107,0.002-0.241-0.043-0.401-0.137
				c-0.232-0.135-0.412-0.313-0.538-0.537C199.796,153.087,199.722,152.824,199.696,152.521z"/>
			<path fill="#231F20" d="M201.415,153.514l0.363,0.162c0.021,0.182,0.066,0.33,0.133,0.448c0.067,0.119,0.156,0.212,0.271,0.275
				c0.119,0.07,0.211,0.086,0.271,0.051c0.061-0.035,0.092-0.102,0.092-0.196c0-0.062-0.014-0.119-0.039-0.179
				c-0.024-0.057-0.069-0.119-0.133-0.188c-0.045-0.047-0.145-0.144-0.299-0.285c-0.2-0.186-0.34-0.352-0.421-0.498
				c-0.113-0.207-0.17-0.414-0.17-0.617c0-0.131,0.025-0.238,0.08-0.322c0.054-0.084,0.13-0.127,0.229-0.127
				c0.103-0.004,0.224,0.037,0.363,0.119c0.232,0.133,0.406,0.306,0.523,0.515c0.116,0.209,0.179,0.436,0.185,0.676l-0.372-0.191
				c-0.018-0.143-0.051-0.258-0.104-0.346c-0.054-0.09-0.132-0.162-0.236-0.225c-0.107-0.062-0.192-0.08-0.254-0.054
				c-0.039,0.019-0.06,0.06-0.06,0.125c0,0.063,0.019,0.125,0.056,0.189c0.048,0.082,0.162,0.205,0.343,0.369
				c0.181,0.166,0.314,0.305,0.402,0.418c0.087,0.115,0.154,0.24,0.203,0.381c0.05,0.139,0.072,0.289,0.072,0.453
				c0,0.146-0.027,0.268-0.087,0.362c-0.06,0.097-0.142,0.144-0.249,0.146c-0.106,0-0.242-0.045-0.402-0.137
				c-0.231-0.136-0.411-0.314-0.536-0.539C201.515,154.078,201.44,153.816,201.415,153.514z"/>
			<path fill="#231F20" d="M204.894,156.361l-0.405-0.233l-0.161-0.681l-0.738-0.426l-0.151,0.498l-0.396-0.229l0.72-2.163
				l0.395,0.229L204.894,156.361z M204.208,154.945l-0.255-1.104l-0.249,0.813L204.208,154.945z"/>
			<path fill="#231F20" d="M207.279,157.738l-0.405-0.233l-0.16-0.679l-0.737-0.426l-0.152,0.496l-0.395-0.227l0.717-2.164
				l0.395,0.227L207.279,157.738z M206.594,156.322l-0.255-1.104l-0.249,0.813L206.594,156.322z"/>
			<path fill="#231F20" d="M207.478,155.273l0.737,0.426c0.146,0.084,0.257,0.156,0.326,0.215c0.072,0.06,0.138,0.132,0.193,0.218
				c0.057,0.088,0.104,0.186,0.141,0.297c0.038,0.112,0.058,0.225,0.058,0.336c0,0.121-0.022,0.217-0.068,0.291
				c-0.047,0.074-0.111,0.112-0.188,0.119c0.11,0.108,0.196,0.237,0.258,0.383c0.061,0.145,0.092,0.291,0.092,0.44
				c0,0.115-0.021,0.22-0.06,0.31c-0.038,0.088-0.093,0.145-0.159,0.172c-0.068,0.027-0.15,0.02-0.25-0.021
				c-0.063-0.026-0.213-0.106-0.449-0.241l-0.629-0.363L207.478,155.273L207.478,155.273z M207.851,155.919v0.596l0.244,0.143
				c0.145,0.082,0.234,0.133,0.271,0.146c0.063,0.024,0.113,0.024,0.15-0.006c0.034-0.029,0.055-0.086,0.055-0.168
				c0-0.08-0.016-0.156-0.047-0.224c-0.033-0.067-0.079-0.125-0.142-0.172c-0.036-0.027-0.145-0.092-0.317-0.19L207.851,155.919z
				 M207.851,156.943v0.689l0.346,0.198c0.134,0.078,0.219,0.121,0.256,0.132c0.055,0.02,0.101,0.012,0.135-0.023
				s0.054-0.098,0.054-0.189c0-0.077-0.015-0.149-0.041-0.219c-0.027-0.069-0.066-0.131-0.117-0.186
				c-0.051-0.056-0.16-0.131-0.33-0.229L207.851,156.943z"/>
			<path fill="#231F20" d="M209.349,158.932v-2.558l0.373,0.216v2.123l0.926,0.534v0.435L209.349,158.932z"/>
			<path fill="#231F20" d="M210.838,158.518c0-0.262,0.028-0.465,0.084-0.611c0.043-0.106,0.1-0.19,0.173-0.254
				c0.071-0.063,0.15-0.096,0.237-0.096c0.115-0.002,0.247,0.041,0.397,0.127c0.271,0.158,0.49,0.4,0.652,0.729
				c0.164,0.33,0.246,0.705,0.246,1.125c0,0.416-0.082,0.695-0.244,0.836c-0.162,0.144-0.379,0.136-0.648-0.021
				c-0.274-0.158-0.493-0.4-0.655-0.729C210.92,159.298,210.838,158.928,210.838,158.518z M211.222,158.723
				c0,0.291,0.048,0.541,0.145,0.746c0.097,0.207,0.22,0.354,0.367,0.438c0.148,0.085,0.271,0.08,0.365-0.014
				c0.096-0.094,0.143-0.291,0.143-0.59c0-0.295-0.045-0.543-0.139-0.742c-0.092-0.199-0.215-0.344-0.369-0.432
				c-0.153-0.091-0.277-0.086-0.371,0.008C211.269,158.23,211.222,158.427,211.222,158.723z"/>
			<path fill="#231F20" d="M213.402,161.271v-1.084l-0.677-1.885l0.438,0.252l0.435,1.271l0.426-0.774l0.43,0.248l-0.678,1.104
				v1.082L213.402,161.271z"/>
		</g>
		<g>
			<path fill="#010101" d="M176.979,160.354c0.442,0.99,1.197,1.912,2.053,2.406c0.197,0.112,0.396,0.201,0.582,0.26v-0.451
				c-0.187-0.047-0.383-0.129-0.582-0.244c-0.621-0.358-1.18-0.985-1.56-1.686L176.979,160.354z"/>
			<path fill="#010101" d="M175.27,158.844v-0.131c-0.097,0.051-0.187,0.043-0.35-0.052c-0.162-0.096-0.271-0.198-0.351-0.336
				c-0.067-0.114-0.104-0.248-0.104-0.371c0-0.243,0.152-0.33,0.45-0.157l0.348,0.198v-0.102c0-0.184-0.083-0.32-0.287-0.438
				c-0.146-0.084-0.213-0.086-0.286-0.024l-0.173-0.279c0.124-0.09,0.254-0.063,0.47,0.063c0.358,0.207,0.539,0.479,0.539,0.809
				v0.971L175.27,158.844z M175.265,158.201l-0.309-0.178c-0.153-0.09-0.233-0.059-0.233,0.074c0,0.131,0.074,0.25,0.239,0.344
				c0.102,0.059,0.176,0.094,0.244,0.059c0.039-0.021,0.059-0.079,0.059-0.182V158.201z"/>
			<path fill="#010101" d="M176.67,159.541c-0.07,0.039-0.186,0.023-0.316-0.053c-0.14-0.082-0.247-0.184-0.343-0.363v0.734
				l-0.264-0.152v-2.036l0.258,0.147v0.154c0.099-0.074,0.204-0.053,0.347,0.029c0.131,0.073,0.248,0.188,0.318,0.311
				c0.133,0.223,0.147,0.479,0.147,0.699C176.817,159.231,176.802,159.471,176.67,159.541 M176.283,158.221
				c-0.237-0.138-0.272,0.067-0.272,0.326c0,0.256,0.035,0.502,0.272,0.639c0.237,0.139,0.271-0.068,0.271-0.324
				C176.555,158.604,176.521,158.359,176.283,158.221"/>
			<path fill="#010101" d="M177.237,159.341c0,0.248,0.119,0.475,0.333,0.6c0.146,0.084,0.225,0.082,0.317,0.033l0.167,0.271
				c-0.135,0.07-0.261,0.076-0.489-0.057c-0.328-0.189-0.589-0.533-0.589-1.084c0-0.469,0.22-0.613,0.556-0.42
				c0.351,0.201,0.554,0.604,0.554,1.016v0.131L177.237,159.341z M177.789,159.259c-0.041-0.134-0.134-0.263-0.257-0.332
				c-0.124-0.072-0.22-0.054-0.261,0.032c-0.026,0.052-0.031,0.093-0.034,0.179l0.588,0.338
				C177.823,159.387,177.815,159.341,177.789,159.259"/>
			<path fill="#010101" d="M179.024,159.902c-0.061-0.102-0.105-0.16-0.195-0.211c-0.143-0.082-0.261-0.022-0.261,0.176v0.881
				l-0.264-0.151v-1.449l0.259,0.148v0.155c0.066-0.063,0.2-0.057,0.348,0.027c0.127,0.074,0.222,0.164,0.313,0.318L179.024,159.902
				z"/>
			<path fill="#010101" d="M179.358,159.158l0.264,0.152v0.309l-0.264-0.151V159.158z M179.359,159.755l0.264,0.151v1.451
				l-0.264-0.152V159.755z"/>
			<path fill="#010101" d="M180.786,161.875c-0.086,0.05-0.214,0.05-0.392-0.055c-0.18-0.104-0.307-0.25-0.392-0.396
				c-0.123-0.215-0.153-0.416-0.153-0.662c0-0.244,0.03-0.408,0.153-0.48c0.085-0.049,0.212-0.049,0.392,0.056
				c0.178,0.102,0.306,0.25,0.392,0.396c0.123,0.215,0.154,0.416,0.154,0.66C180.94,161.639,180.909,161.803,180.786,161.875
				 M180.587,160.789c-0.049-0.082-0.114-0.149-0.191-0.194c-0.078-0.045-0.144-0.054-0.191-0.025
				c-0.08,0.043-0.09,0.188-0.09,0.346c0,0.156,0.01,0.314,0.09,0.451c0.049,0.08,0.113,0.15,0.191,0.195
				c0.077,0.043,0.144,0.051,0.191,0.025c0.081-0.043,0.092-0.189,0.092-0.347C180.678,161.082,180.668,160.925,180.587,160.789"/>
			<path fill="#010101" d="M174.205,156.18c0.506-1.228,1.824-1.549,3.365-0.66c0.877,0.506,1.7,1.34,2.337,2.313l-0.001,0.002
				c-0.276-0.277-0.573-0.515-0.881-0.689c-1.067-0.617-1.979-0.387-2.321,0.475l0.422,0.244c0.32-0.629,1.053-0.772,1.899-0.285
				c0.831,0.48,1.578,1.47,1.903,2.484l0.424,0.244c-0.533-2.105-2.064-4.232-3.782-5.223c-1.761-1.019-3.258-0.605-3.782,0.854
				L174.205,156.18z"/>
			<polygon fill="#010101" points="181.019,160.439 181.019,160.686 180.966,160.654 180.966,160.41 180.896,160.369 
				180.896,160.316 181.087,160.428 181.087,160.48 			"/>
			<polygon fill="#010101" points="181.319,160.859 181.319,160.686 181.268,160.768 181.232,160.748 181.182,160.605 
				181.182,160.779 181.13,160.75 181.13,160.453 181.181,160.482 181.251,160.684 181.32,160.563 181.371,160.593 181.371,160.889 
							"/>
		</g>
	</g>
	<g>
		<polygon fill="none" stroke="#FFFFFF" stroke-width="2" stroke-linecap="round" stroke-linejoin="round" points="193.669,154.654 
			193.389,162.684 190.123,160.8 166.188,174.621 159.085,170.518 183.021,156.699 179.76,154.814 		"/>
		<polygon fill="#00A7D2" stroke="#000000" stroke-width="0.5" stroke-linecap="round" stroke-linejoin="round" points="
			193.669,154.654 193.389,162.684 190.123,160.8 166.188,174.621 159.085,170.518 183.021,156.699 179.76,154.814 		"/>
	</g>
</g>
</svg>
